%TF.GenerationSoftware,KiCad,Pcbnew,9.0.2*%
%TF.CreationDate,2025-12-04T12:20:35+01:00*%
%TF.ProjectId,TechStarter,54656368-5374-4617-9274-65722e6b6963,rev?*%
%TF.SameCoordinates,Original*%
%TF.FileFunction,Legend,Bot*%
%TF.FilePolarity,Positive*%
%FSLAX46Y46*%
G04 Gerber Fmt 4.6, Leading zero omitted, Abs format (unit mm)*
G04 Created by KiCad (PCBNEW 9.0.2) date 2025-12-04 12:20:35*
%MOMM*%
%LPD*%
G01*
G04 APERTURE LIST*
%ADD10C,0.120000*%
G04 APERTURE END LIST*
D10*
%TO.C,J2*%
X264177500Y-27730000D02*
G75*
G02*
X259757500Y-27730000I-2210000J0D01*
G01*
X259757500Y-27730000D02*
G75*
G02*
X264177500Y-27730000I2210000J0D01*
G01*
X264177500Y-48160000D02*
G75*
G02*
X259757500Y-48160000I-2210000J0D01*
G01*
X259757500Y-48160000D02*
G75*
G02*
X264177500Y-48160000I2210000J0D01*
G01*
%TO.C,J1*%
X264110000Y-54500000D02*
G75*
G02*
X259690000Y-54500000I-2210000J0D01*
G01*
X259690000Y-54500000D02*
G75*
G02*
X264110000Y-54500000I2210000J0D01*
G01*
X264110000Y-74930000D02*
G75*
G02*
X259690000Y-74930000I-2210000J0D01*
G01*
X259690000Y-74930000D02*
G75*
G02*
X264110000Y-74930000I2210000J0D01*
G01*
%TO.C,J13*%
X170105000Y-28532500D02*
G75*
G02*
X165685000Y-28532500I-2210000J0D01*
G01*
X165685000Y-28532500D02*
G75*
G02*
X170105000Y-28532500I2210000J0D01*
G01*
X182205000Y-28532500D02*
G75*
G02*
X177785000Y-28532500I-2210000J0D01*
G01*
X177785000Y-28532500D02*
G75*
G02*
X182205000Y-28532500I2210000J0D01*
G01*
%TO.C,J4*%
X264110000Y-81440000D02*
G75*
G02*
X259690000Y-81440000I-2210000J0D01*
G01*
X259690000Y-81440000D02*
G75*
G02*
X264110000Y-81440000I2210000J0D01*
G01*
X264110000Y-101870000D02*
G75*
G02*
X259690000Y-101870000I-2210000J0D01*
G01*
X259690000Y-101870000D02*
G75*
G02*
X264110000Y-101870000I2210000J0D01*
G01*
%TO.C,J6*%
X264177500Y-108230000D02*
G75*
G02*
X259757500Y-108230000I-2210000J0D01*
G01*
X259757500Y-108230000D02*
G75*
G02*
X264177500Y-108230000I2210000J0D01*
G01*
X264177500Y-128660000D02*
G75*
G02*
X259757500Y-128660000I-2210000J0D01*
G01*
X259757500Y-128660000D02*
G75*
G02*
X264177500Y-128660000I2210000J0D01*
G01*
%TD*%
M02*
