%TF.GenerationSoftware,KiCad,Pcbnew,9.0.2*%
%TF.CreationDate,2025-12-04T18:58:38+01:00*%
%TF.ProjectId,TechStarter,54656368-5374-4617-9274-65722e6b6963,rev?*%
%TF.SameCoordinates,Original*%
%TF.FileFunction,Legend,Top*%
%TF.FilePolarity,Positive*%
%FSLAX46Y46*%
G04 Gerber Fmt 4.6, Leading zero omitted, Abs format (unit mm)*
G04 Created by KiCad (PCBNEW 9.0.2) date 2025-12-04 18:58:38*
%MOMM*%
%LPD*%
G01*
G04 APERTURE LIST*
%ADD10C,0.150000*%
%ADD11C,0.120000*%
%ADD12C,0.000000*%
G04 APERTURE END LIST*
D10*
X249342142Y-76704819D02*
X249008809Y-76228628D01*
X248770714Y-76704819D02*
X248770714Y-75704819D01*
X248770714Y-75704819D02*
X249151666Y-75704819D01*
X249151666Y-75704819D02*
X249246904Y-75752438D01*
X249246904Y-75752438D02*
X249294523Y-75800057D01*
X249294523Y-75800057D02*
X249342142Y-75895295D01*
X249342142Y-75895295D02*
X249342142Y-76038152D01*
X249342142Y-76038152D02*
X249294523Y-76133390D01*
X249294523Y-76133390D02*
X249246904Y-76181009D01*
X249246904Y-76181009D02*
X249151666Y-76228628D01*
X249151666Y-76228628D02*
X248770714Y-76228628D01*
X250294523Y-76704819D02*
X249723095Y-76704819D01*
X250008809Y-76704819D02*
X250008809Y-75704819D01*
X250008809Y-75704819D02*
X249913571Y-75847676D01*
X249913571Y-75847676D02*
X249818333Y-75942914D01*
X249818333Y-75942914D02*
X249723095Y-75990533D01*
X250627857Y-75704819D02*
X251294523Y-75704819D01*
X251294523Y-75704819D02*
X250865952Y-76704819D01*
X204178571Y-107981009D02*
X203845238Y-107981009D01*
X203845238Y-108504819D02*
X203845238Y-107504819D01*
X203845238Y-107504819D02*
X204321428Y-107504819D01*
X204702381Y-108504819D02*
X204702381Y-107504819D01*
X205178571Y-108504819D02*
X205178571Y-107504819D01*
X205178571Y-107504819D02*
X205416666Y-107504819D01*
X205416666Y-107504819D02*
X205559523Y-107552438D01*
X205559523Y-107552438D02*
X205654761Y-107647676D01*
X205654761Y-107647676D02*
X205702380Y-107742914D01*
X205702380Y-107742914D02*
X205749999Y-107933390D01*
X205749999Y-107933390D02*
X205749999Y-108076247D01*
X205749999Y-108076247D02*
X205702380Y-108266723D01*
X205702380Y-108266723D02*
X205654761Y-108361961D01*
X205654761Y-108361961D02*
X205559523Y-108457200D01*
X205559523Y-108457200D02*
X205416666Y-108504819D01*
X205416666Y-108504819D02*
X205178571Y-108504819D01*
X206083333Y-107504819D02*
X206702380Y-107504819D01*
X206702380Y-107504819D02*
X206369047Y-107885771D01*
X206369047Y-107885771D02*
X206511904Y-107885771D01*
X206511904Y-107885771D02*
X206607142Y-107933390D01*
X206607142Y-107933390D02*
X206654761Y-107981009D01*
X206654761Y-107981009D02*
X206702380Y-108076247D01*
X206702380Y-108076247D02*
X206702380Y-108314342D01*
X206702380Y-108314342D02*
X206654761Y-108409580D01*
X206654761Y-108409580D02*
X206607142Y-108457200D01*
X206607142Y-108457200D02*
X206511904Y-108504819D01*
X206511904Y-108504819D02*
X206226190Y-108504819D01*
X206226190Y-108504819D02*
X206130952Y-108457200D01*
X206130952Y-108457200D02*
X206083333Y-108409580D01*
X249379642Y-86124819D02*
X249046309Y-85648628D01*
X248808214Y-86124819D02*
X248808214Y-85124819D01*
X248808214Y-85124819D02*
X249189166Y-85124819D01*
X249189166Y-85124819D02*
X249284404Y-85172438D01*
X249284404Y-85172438D02*
X249332023Y-85220057D01*
X249332023Y-85220057D02*
X249379642Y-85315295D01*
X249379642Y-85315295D02*
X249379642Y-85458152D01*
X249379642Y-85458152D02*
X249332023Y-85553390D01*
X249332023Y-85553390D02*
X249284404Y-85601009D01*
X249284404Y-85601009D02*
X249189166Y-85648628D01*
X249189166Y-85648628D02*
X248808214Y-85648628D01*
X250332023Y-86124819D02*
X249760595Y-86124819D01*
X250046309Y-86124819D02*
X250046309Y-85124819D01*
X250046309Y-85124819D02*
X249951071Y-85267676D01*
X249951071Y-85267676D02*
X249855833Y-85362914D01*
X249855833Y-85362914D02*
X249760595Y-85410533D01*
X251189166Y-85124819D02*
X250998690Y-85124819D01*
X250998690Y-85124819D02*
X250903452Y-85172438D01*
X250903452Y-85172438D02*
X250855833Y-85220057D01*
X250855833Y-85220057D02*
X250760595Y-85362914D01*
X250760595Y-85362914D02*
X250712976Y-85553390D01*
X250712976Y-85553390D02*
X250712976Y-85934342D01*
X250712976Y-85934342D02*
X250760595Y-86029580D01*
X250760595Y-86029580D02*
X250808214Y-86077200D01*
X250808214Y-86077200D02*
X250903452Y-86124819D01*
X250903452Y-86124819D02*
X251093928Y-86124819D01*
X251093928Y-86124819D02*
X251189166Y-86077200D01*
X251189166Y-86077200D02*
X251236785Y-86029580D01*
X251236785Y-86029580D02*
X251284404Y-85934342D01*
X251284404Y-85934342D02*
X251284404Y-85696247D01*
X251284404Y-85696247D02*
X251236785Y-85601009D01*
X251236785Y-85601009D02*
X251189166Y-85553390D01*
X251189166Y-85553390D02*
X251093928Y-85505771D01*
X251093928Y-85505771D02*
X250903452Y-85505771D01*
X250903452Y-85505771D02*
X250808214Y-85553390D01*
X250808214Y-85553390D02*
X250760595Y-85601009D01*
X250760595Y-85601009D02*
X250712976Y-85696247D01*
X232166666Y-33659819D02*
X232166666Y-34374104D01*
X232166666Y-34374104D02*
X232119047Y-34516961D01*
X232119047Y-34516961D02*
X232023809Y-34612200D01*
X232023809Y-34612200D02*
X231880952Y-34659819D01*
X231880952Y-34659819D02*
X231785714Y-34659819D01*
X232547619Y-33659819D02*
X233214285Y-33659819D01*
X233214285Y-33659819D02*
X232785714Y-34659819D01*
X195857142Y-87524819D02*
X195523809Y-87048628D01*
X195285714Y-87524819D02*
X195285714Y-86524819D01*
X195285714Y-86524819D02*
X195666666Y-86524819D01*
X195666666Y-86524819D02*
X195761904Y-86572438D01*
X195761904Y-86572438D02*
X195809523Y-86620057D01*
X195809523Y-86620057D02*
X195857142Y-86715295D01*
X195857142Y-86715295D02*
X195857142Y-86858152D01*
X195857142Y-86858152D02*
X195809523Y-86953390D01*
X195809523Y-86953390D02*
X195761904Y-87001009D01*
X195761904Y-87001009D02*
X195666666Y-87048628D01*
X195666666Y-87048628D02*
X195285714Y-87048628D01*
X196238095Y-86620057D02*
X196285714Y-86572438D01*
X196285714Y-86572438D02*
X196380952Y-86524819D01*
X196380952Y-86524819D02*
X196619047Y-86524819D01*
X196619047Y-86524819D02*
X196714285Y-86572438D01*
X196714285Y-86572438D02*
X196761904Y-86620057D01*
X196761904Y-86620057D02*
X196809523Y-86715295D01*
X196809523Y-86715295D02*
X196809523Y-86810533D01*
X196809523Y-86810533D02*
X196761904Y-86953390D01*
X196761904Y-86953390D02*
X196190476Y-87524819D01*
X196190476Y-87524819D02*
X196809523Y-87524819D01*
X197761904Y-87524819D02*
X197190476Y-87524819D01*
X197476190Y-87524819D02*
X197476190Y-86524819D01*
X197476190Y-86524819D02*
X197380952Y-86667676D01*
X197380952Y-86667676D02*
X197285714Y-86762914D01*
X197285714Y-86762914D02*
X197190476Y-86810533D01*
X250107142Y-54024819D02*
X249773809Y-53548628D01*
X249535714Y-54024819D02*
X249535714Y-53024819D01*
X249535714Y-53024819D02*
X249916666Y-53024819D01*
X249916666Y-53024819D02*
X250011904Y-53072438D01*
X250011904Y-53072438D02*
X250059523Y-53120057D01*
X250059523Y-53120057D02*
X250107142Y-53215295D01*
X250107142Y-53215295D02*
X250107142Y-53358152D01*
X250107142Y-53358152D02*
X250059523Y-53453390D01*
X250059523Y-53453390D02*
X250011904Y-53501009D01*
X250011904Y-53501009D02*
X249916666Y-53548628D01*
X249916666Y-53548628D02*
X249535714Y-53548628D01*
X251059523Y-54024819D02*
X250488095Y-54024819D01*
X250773809Y-54024819D02*
X250773809Y-53024819D01*
X250773809Y-53024819D02*
X250678571Y-53167676D01*
X250678571Y-53167676D02*
X250583333Y-53262914D01*
X250583333Y-53262914D02*
X250488095Y-53310533D01*
X251535714Y-54024819D02*
X251726190Y-54024819D01*
X251726190Y-54024819D02*
X251821428Y-53977200D01*
X251821428Y-53977200D02*
X251869047Y-53929580D01*
X251869047Y-53929580D02*
X251964285Y-53786723D01*
X251964285Y-53786723D02*
X252011904Y-53596247D01*
X252011904Y-53596247D02*
X252011904Y-53215295D01*
X252011904Y-53215295D02*
X251964285Y-53120057D01*
X251964285Y-53120057D02*
X251916666Y-53072438D01*
X251916666Y-53072438D02*
X251821428Y-53024819D01*
X251821428Y-53024819D02*
X251630952Y-53024819D01*
X251630952Y-53024819D02*
X251535714Y-53072438D01*
X251535714Y-53072438D02*
X251488095Y-53120057D01*
X251488095Y-53120057D02*
X251440476Y-53215295D01*
X251440476Y-53215295D02*
X251440476Y-53453390D01*
X251440476Y-53453390D02*
X251488095Y-53548628D01*
X251488095Y-53548628D02*
X251535714Y-53596247D01*
X251535714Y-53596247D02*
X251630952Y-53643866D01*
X251630952Y-53643866D02*
X251821428Y-53643866D01*
X251821428Y-53643866D02*
X251916666Y-53596247D01*
X251916666Y-53596247D02*
X251964285Y-53548628D01*
X251964285Y-53548628D02*
X252011904Y-53453390D01*
X212583333Y-68504819D02*
X212107143Y-68504819D01*
X212107143Y-68504819D02*
X212107143Y-67504819D01*
X213440476Y-68504819D02*
X212869048Y-68504819D01*
X213154762Y-68504819D02*
X213154762Y-67504819D01*
X213154762Y-67504819D02*
X213059524Y-67647676D01*
X213059524Y-67647676D02*
X212964286Y-67742914D01*
X212964286Y-67742914D02*
X212869048Y-67790533D01*
X259416666Y-130749819D02*
X259416666Y-131464104D01*
X259416666Y-131464104D02*
X259369047Y-131606961D01*
X259369047Y-131606961D02*
X259273809Y-131702200D01*
X259273809Y-131702200D02*
X259130952Y-131749819D01*
X259130952Y-131749819D02*
X259035714Y-131749819D01*
X259940476Y-131749819D02*
X260130952Y-131749819D01*
X260130952Y-131749819D02*
X260226190Y-131702200D01*
X260226190Y-131702200D02*
X260273809Y-131654580D01*
X260273809Y-131654580D02*
X260369047Y-131511723D01*
X260369047Y-131511723D02*
X260416666Y-131321247D01*
X260416666Y-131321247D02*
X260416666Y-130940295D01*
X260416666Y-130940295D02*
X260369047Y-130845057D01*
X260369047Y-130845057D02*
X260321428Y-130797438D01*
X260321428Y-130797438D02*
X260226190Y-130749819D01*
X260226190Y-130749819D02*
X260035714Y-130749819D01*
X260035714Y-130749819D02*
X259940476Y-130797438D01*
X259940476Y-130797438D02*
X259892857Y-130845057D01*
X259892857Y-130845057D02*
X259845238Y-130940295D01*
X259845238Y-130940295D02*
X259845238Y-131178390D01*
X259845238Y-131178390D02*
X259892857Y-131273628D01*
X259892857Y-131273628D02*
X259940476Y-131321247D01*
X259940476Y-131321247D02*
X260035714Y-131368866D01*
X260035714Y-131368866D02*
X260226190Y-131368866D01*
X260226190Y-131368866D02*
X260321428Y-131321247D01*
X260321428Y-131321247D02*
X260369047Y-131273628D01*
X260369047Y-131273628D02*
X260416666Y-131178390D01*
X246690476Y-130749819D02*
X246690476Y-131464104D01*
X246690476Y-131464104D02*
X246642857Y-131606961D01*
X246642857Y-131606961D02*
X246547619Y-131702200D01*
X246547619Y-131702200D02*
X246404762Y-131749819D01*
X246404762Y-131749819D02*
X246309524Y-131749819D01*
X247690476Y-131749819D02*
X247119048Y-131749819D01*
X247404762Y-131749819D02*
X247404762Y-130749819D01*
X247404762Y-130749819D02*
X247309524Y-130892676D01*
X247309524Y-130892676D02*
X247214286Y-130987914D01*
X247214286Y-130987914D02*
X247119048Y-131035533D01*
X248261905Y-131178390D02*
X248166667Y-131130771D01*
X248166667Y-131130771D02*
X248119048Y-131083152D01*
X248119048Y-131083152D02*
X248071429Y-130987914D01*
X248071429Y-130987914D02*
X248071429Y-130940295D01*
X248071429Y-130940295D02*
X248119048Y-130845057D01*
X248119048Y-130845057D02*
X248166667Y-130797438D01*
X248166667Y-130797438D02*
X248261905Y-130749819D01*
X248261905Y-130749819D02*
X248452381Y-130749819D01*
X248452381Y-130749819D02*
X248547619Y-130797438D01*
X248547619Y-130797438D02*
X248595238Y-130845057D01*
X248595238Y-130845057D02*
X248642857Y-130940295D01*
X248642857Y-130940295D02*
X248642857Y-130987914D01*
X248642857Y-130987914D02*
X248595238Y-131083152D01*
X248595238Y-131083152D02*
X248547619Y-131130771D01*
X248547619Y-131130771D02*
X248452381Y-131178390D01*
X248452381Y-131178390D02*
X248261905Y-131178390D01*
X248261905Y-131178390D02*
X248166667Y-131226009D01*
X248166667Y-131226009D02*
X248119048Y-131273628D01*
X248119048Y-131273628D02*
X248071429Y-131368866D01*
X248071429Y-131368866D02*
X248071429Y-131559342D01*
X248071429Y-131559342D02*
X248119048Y-131654580D01*
X248119048Y-131654580D02*
X248166667Y-131702200D01*
X248166667Y-131702200D02*
X248261905Y-131749819D01*
X248261905Y-131749819D02*
X248452381Y-131749819D01*
X248452381Y-131749819D02*
X248547619Y-131702200D01*
X248547619Y-131702200D02*
X248595238Y-131654580D01*
X248595238Y-131654580D02*
X248642857Y-131559342D01*
X248642857Y-131559342D02*
X248642857Y-131368866D01*
X248642857Y-131368866D02*
X248595238Y-131273628D01*
X248595238Y-131273628D02*
X248547619Y-131226009D01*
X248547619Y-131226009D02*
X248452381Y-131178390D01*
X237592142Y-101679580D02*
X237544523Y-101727200D01*
X237544523Y-101727200D02*
X237401666Y-101774819D01*
X237401666Y-101774819D02*
X237306428Y-101774819D01*
X237306428Y-101774819D02*
X237163571Y-101727200D01*
X237163571Y-101727200D02*
X237068333Y-101631961D01*
X237068333Y-101631961D02*
X237020714Y-101536723D01*
X237020714Y-101536723D02*
X236973095Y-101346247D01*
X236973095Y-101346247D02*
X236973095Y-101203390D01*
X236973095Y-101203390D02*
X237020714Y-101012914D01*
X237020714Y-101012914D02*
X237068333Y-100917676D01*
X237068333Y-100917676D02*
X237163571Y-100822438D01*
X237163571Y-100822438D02*
X237306428Y-100774819D01*
X237306428Y-100774819D02*
X237401666Y-100774819D01*
X237401666Y-100774819D02*
X237544523Y-100822438D01*
X237544523Y-100822438D02*
X237592142Y-100870057D01*
X238544523Y-101774819D02*
X237973095Y-101774819D01*
X238258809Y-101774819D02*
X238258809Y-100774819D01*
X238258809Y-100774819D02*
X238163571Y-100917676D01*
X238163571Y-100917676D02*
X238068333Y-101012914D01*
X238068333Y-101012914D02*
X237973095Y-101060533D01*
X239496904Y-101774819D02*
X238925476Y-101774819D01*
X239211190Y-101774819D02*
X239211190Y-100774819D01*
X239211190Y-100774819D02*
X239115952Y-100917676D01*
X239115952Y-100917676D02*
X239020714Y-101012914D01*
X239020714Y-101012914D02*
X238925476Y-101060533D01*
X223283333Y-88099819D02*
X222950000Y-87623628D01*
X222711905Y-88099819D02*
X222711905Y-87099819D01*
X222711905Y-87099819D02*
X223092857Y-87099819D01*
X223092857Y-87099819D02*
X223188095Y-87147438D01*
X223188095Y-87147438D02*
X223235714Y-87195057D01*
X223235714Y-87195057D02*
X223283333Y-87290295D01*
X223283333Y-87290295D02*
X223283333Y-87433152D01*
X223283333Y-87433152D02*
X223235714Y-87528390D01*
X223235714Y-87528390D02*
X223188095Y-87576009D01*
X223188095Y-87576009D02*
X223092857Y-87623628D01*
X223092857Y-87623628D02*
X222711905Y-87623628D01*
X223759524Y-88099819D02*
X223950000Y-88099819D01*
X223950000Y-88099819D02*
X224045238Y-88052200D01*
X224045238Y-88052200D02*
X224092857Y-88004580D01*
X224092857Y-88004580D02*
X224188095Y-87861723D01*
X224188095Y-87861723D02*
X224235714Y-87671247D01*
X224235714Y-87671247D02*
X224235714Y-87290295D01*
X224235714Y-87290295D02*
X224188095Y-87195057D01*
X224188095Y-87195057D02*
X224140476Y-87147438D01*
X224140476Y-87147438D02*
X224045238Y-87099819D01*
X224045238Y-87099819D02*
X223854762Y-87099819D01*
X223854762Y-87099819D02*
X223759524Y-87147438D01*
X223759524Y-87147438D02*
X223711905Y-87195057D01*
X223711905Y-87195057D02*
X223664286Y-87290295D01*
X223664286Y-87290295D02*
X223664286Y-87528390D01*
X223664286Y-87528390D02*
X223711905Y-87623628D01*
X223711905Y-87623628D02*
X223759524Y-87671247D01*
X223759524Y-87671247D02*
X223854762Y-87718866D01*
X223854762Y-87718866D02*
X224045238Y-87718866D01*
X224045238Y-87718866D02*
X224140476Y-87671247D01*
X224140476Y-87671247D02*
X224188095Y-87623628D01*
X224188095Y-87623628D02*
X224235714Y-87528390D01*
X238164580Y-112167857D02*
X238212200Y-112215476D01*
X238212200Y-112215476D02*
X238259819Y-112358333D01*
X238259819Y-112358333D02*
X238259819Y-112453571D01*
X238259819Y-112453571D02*
X238212200Y-112596428D01*
X238212200Y-112596428D02*
X238116961Y-112691666D01*
X238116961Y-112691666D02*
X238021723Y-112739285D01*
X238021723Y-112739285D02*
X237831247Y-112786904D01*
X237831247Y-112786904D02*
X237688390Y-112786904D01*
X237688390Y-112786904D02*
X237497914Y-112739285D01*
X237497914Y-112739285D02*
X237402676Y-112691666D01*
X237402676Y-112691666D02*
X237307438Y-112596428D01*
X237307438Y-112596428D02*
X237259819Y-112453571D01*
X237259819Y-112453571D02*
X237259819Y-112358333D01*
X237259819Y-112358333D02*
X237307438Y-112215476D01*
X237307438Y-112215476D02*
X237355057Y-112167857D01*
X238259819Y-111215476D02*
X238259819Y-111786904D01*
X238259819Y-111501190D02*
X237259819Y-111501190D01*
X237259819Y-111501190D02*
X237402676Y-111596428D01*
X237402676Y-111596428D02*
X237497914Y-111691666D01*
X237497914Y-111691666D02*
X237545533Y-111786904D01*
X237259819Y-110310714D02*
X237259819Y-110786904D01*
X237259819Y-110786904D02*
X237736009Y-110834523D01*
X237736009Y-110834523D02*
X237688390Y-110786904D01*
X237688390Y-110786904D02*
X237640771Y-110691666D01*
X237640771Y-110691666D02*
X237640771Y-110453571D01*
X237640771Y-110453571D02*
X237688390Y-110358333D01*
X237688390Y-110358333D02*
X237736009Y-110310714D01*
X237736009Y-110310714D02*
X237831247Y-110263095D01*
X237831247Y-110263095D02*
X238069342Y-110263095D01*
X238069342Y-110263095D02*
X238164580Y-110310714D01*
X238164580Y-110310714D02*
X238212200Y-110358333D01*
X238212200Y-110358333D02*
X238259819Y-110453571D01*
X238259819Y-110453571D02*
X238259819Y-110691666D01*
X238259819Y-110691666D02*
X238212200Y-110786904D01*
X238212200Y-110786904D02*
X238164580Y-110834523D01*
X249592142Y-97704819D02*
X249258809Y-97228628D01*
X249020714Y-97704819D02*
X249020714Y-96704819D01*
X249020714Y-96704819D02*
X249401666Y-96704819D01*
X249401666Y-96704819D02*
X249496904Y-96752438D01*
X249496904Y-96752438D02*
X249544523Y-96800057D01*
X249544523Y-96800057D02*
X249592142Y-96895295D01*
X249592142Y-96895295D02*
X249592142Y-97038152D01*
X249592142Y-97038152D02*
X249544523Y-97133390D01*
X249544523Y-97133390D02*
X249496904Y-97181009D01*
X249496904Y-97181009D02*
X249401666Y-97228628D01*
X249401666Y-97228628D02*
X249020714Y-97228628D01*
X250544523Y-97704819D02*
X249973095Y-97704819D01*
X250258809Y-97704819D02*
X250258809Y-96704819D01*
X250258809Y-96704819D02*
X250163571Y-96847676D01*
X250163571Y-96847676D02*
X250068333Y-96942914D01*
X250068333Y-96942914D02*
X249973095Y-96990533D01*
X251449285Y-96704819D02*
X250973095Y-96704819D01*
X250973095Y-96704819D02*
X250925476Y-97181009D01*
X250925476Y-97181009D02*
X250973095Y-97133390D01*
X250973095Y-97133390D02*
X251068333Y-97085771D01*
X251068333Y-97085771D02*
X251306428Y-97085771D01*
X251306428Y-97085771D02*
X251401666Y-97133390D01*
X251401666Y-97133390D02*
X251449285Y-97181009D01*
X251449285Y-97181009D02*
X251496904Y-97276247D01*
X251496904Y-97276247D02*
X251496904Y-97514342D01*
X251496904Y-97514342D02*
X251449285Y-97609580D01*
X251449285Y-97609580D02*
X251401666Y-97657200D01*
X251401666Y-97657200D02*
X251306428Y-97704819D01*
X251306428Y-97704819D02*
X251068333Y-97704819D01*
X251068333Y-97704819D02*
X250973095Y-97657200D01*
X250973095Y-97657200D02*
X250925476Y-97609580D01*
X187640476Y-31887319D02*
X187640476Y-32601604D01*
X187640476Y-32601604D02*
X187592857Y-32744461D01*
X187592857Y-32744461D02*
X187497619Y-32839700D01*
X187497619Y-32839700D02*
X187354762Y-32887319D01*
X187354762Y-32887319D02*
X187259524Y-32887319D01*
X188640476Y-32887319D02*
X188069048Y-32887319D01*
X188354762Y-32887319D02*
X188354762Y-31887319D01*
X188354762Y-31887319D02*
X188259524Y-32030176D01*
X188259524Y-32030176D02*
X188164286Y-32125414D01*
X188164286Y-32125414D02*
X188069048Y-32173033D01*
X189497619Y-31887319D02*
X189307143Y-31887319D01*
X189307143Y-31887319D02*
X189211905Y-31934938D01*
X189211905Y-31934938D02*
X189164286Y-31982557D01*
X189164286Y-31982557D02*
X189069048Y-32125414D01*
X189069048Y-32125414D02*
X189021429Y-32315890D01*
X189021429Y-32315890D02*
X189021429Y-32696842D01*
X189021429Y-32696842D02*
X189069048Y-32792080D01*
X189069048Y-32792080D02*
X189116667Y-32839700D01*
X189116667Y-32839700D02*
X189211905Y-32887319D01*
X189211905Y-32887319D02*
X189402381Y-32887319D01*
X189402381Y-32887319D02*
X189497619Y-32839700D01*
X189497619Y-32839700D02*
X189545238Y-32792080D01*
X189545238Y-32792080D02*
X189592857Y-32696842D01*
X189592857Y-32696842D02*
X189592857Y-32458747D01*
X189592857Y-32458747D02*
X189545238Y-32363509D01*
X189545238Y-32363509D02*
X189497619Y-32315890D01*
X189497619Y-32315890D02*
X189402381Y-32268271D01*
X189402381Y-32268271D02*
X189211905Y-32268271D01*
X189211905Y-32268271D02*
X189116667Y-32315890D01*
X189116667Y-32315890D02*
X189069048Y-32363509D01*
X189069048Y-32363509D02*
X189021429Y-32458747D01*
X181954819Y-115238094D02*
X182764342Y-115238094D01*
X182764342Y-115238094D02*
X182859580Y-115190475D01*
X182859580Y-115190475D02*
X182907200Y-115142856D01*
X182907200Y-115142856D02*
X182954819Y-115047618D01*
X182954819Y-115047618D02*
X182954819Y-114857142D01*
X182954819Y-114857142D02*
X182907200Y-114761904D01*
X182907200Y-114761904D02*
X182859580Y-114714285D01*
X182859580Y-114714285D02*
X182764342Y-114666666D01*
X182764342Y-114666666D02*
X181954819Y-114666666D01*
X182954819Y-113666666D02*
X182954819Y-114238094D01*
X182954819Y-113952380D02*
X181954819Y-113952380D01*
X181954819Y-113952380D02*
X182097676Y-114047618D01*
X182097676Y-114047618D02*
X182192914Y-114142856D01*
X182192914Y-114142856D02*
X182240533Y-114238094D01*
X182954819Y-112714285D02*
X182954819Y-113285713D01*
X182954819Y-112999999D02*
X181954819Y-112999999D01*
X181954819Y-112999999D02*
X182097676Y-113095237D01*
X182097676Y-113095237D02*
X182192914Y-113190475D01*
X182192914Y-113190475D02*
X182240533Y-113285713D01*
X257522319Y-38273333D02*
X258236604Y-38273333D01*
X258236604Y-38273333D02*
X258379461Y-38320952D01*
X258379461Y-38320952D02*
X258474700Y-38416190D01*
X258474700Y-38416190D02*
X258522319Y-38559047D01*
X258522319Y-38559047D02*
X258522319Y-38654285D01*
X257617557Y-37844761D02*
X257569938Y-37797142D01*
X257569938Y-37797142D02*
X257522319Y-37701904D01*
X257522319Y-37701904D02*
X257522319Y-37463809D01*
X257522319Y-37463809D02*
X257569938Y-37368571D01*
X257569938Y-37368571D02*
X257617557Y-37320952D01*
X257617557Y-37320952D02*
X257712795Y-37273333D01*
X257712795Y-37273333D02*
X257808033Y-37273333D01*
X257808033Y-37273333D02*
X257950890Y-37320952D01*
X257950890Y-37320952D02*
X258522319Y-37892380D01*
X258522319Y-37892380D02*
X258522319Y-37273333D01*
X193301905Y-65609819D02*
X193301905Y-64609819D01*
X193301905Y-64609819D02*
X193540000Y-64609819D01*
X193540000Y-64609819D02*
X193682857Y-64657438D01*
X193682857Y-64657438D02*
X193778095Y-64752676D01*
X193778095Y-64752676D02*
X193825714Y-64847914D01*
X193825714Y-64847914D02*
X193873333Y-65038390D01*
X193873333Y-65038390D02*
X193873333Y-65181247D01*
X193873333Y-65181247D02*
X193825714Y-65371723D01*
X193825714Y-65371723D02*
X193778095Y-65466961D01*
X193778095Y-65466961D02*
X193682857Y-65562200D01*
X193682857Y-65562200D02*
X193540000Y-65609819D01*
X193540000Y-65609819D02*
X193301905Y-65609819D01*
X194825714Y-65609819D02*
X194254286Y-65609819D01*
X194540000Y-65609819D02*
X194540000Y-64609819D01*
X194540000Y-64609819D02*
X194444762Y-64752676D01*
X194444762Y-64752676D02*
X194349524Y-64847914D01*
X194349524Y-64847914D02*
X194254286Y-64895533D01*
X188698095Y-65979819D02*
X188698095Y-64979819D01*
X189269523Y-65979819D02*
X188840952Y-65408390D01*
X189269523Y-64979819D02*
X188698095Y-65551247D01*
X210238095Y-83054819D02*
X210238095Y-83864342D01*
X210238095Y-83864342D02*
X210285714Y-83959580D01*
X210285714Y-83959580D02*
X210333333Y-84007200D01*
X210333333Y-84007200D02*
X210428571Y-84054819D01*
X210428571Y-84054819D02*
X210619047Y-84054819D01*
X210619047Y-84054819D02*
X210714285Y-84007200D01*
X210714285Y-84007200D02*
X210761904Y-83959580D01*
X210761904Y-83959580D02*
X210809523Y-83864342D01*
X210809523Y-83864342D02*
X210809523Y-83054819D01*
X211761904Y-83054819D02*
X211285714Y-83054819D01*
X211285714Y-83054819D02*
X211238095Y-83531009D01*
X211238095Y-83531009D02*
X211285714Y-83483390D01*
X211285714Y-83483390D02*
X211380952Y-83435771D01*
X211380952Y-83435771D02*
X211619047Y-83435771D01*
X211619047Y-83435771D02*
X211714285Y-83483390D01*
X211714285Y-83483390D02*
X211761904Y-83531009D01*
X211761904Y-83531009D02*
X211809523Y-83626247D01*
X211809523Y-83626247D02*
X211809523Y-83864342D01*
X211809523Y-83864342D02*
X211761904Y-83959580D01*
X211761904Y-83959580D02*
X211714285Y-84007200D01*
X211714285Y-84007200D02*
X211619047Y-84054819D01*
X211619047Y-84054819D02*
X211380952Y-84054819D01*
X211380952Y-84054819D02*
X211285714Y-84007200D01*
X211285714Y-84007200D02*
X211238095Y-83959580D01*
X200261905Y-48954819D02*
X200261905Y-49764342D01*
X200261905Y-49764342D02*
X200309524Y-49859580D01*
X200309524Y-49859580D02*
X200357143Y-49907200D01*
X200357143Y-49907200D02*
X200452381Y-49954819D01*
X200452381Y-49954819D02*
X200642857Y-49954819D01*
X200642857Y-49954819D02*
X200738095Y-49907200D01*
X200738095Y-49907200D02*
X200785714Y-49859580D01*
X200785714Y-49859580D02*
X200833333Y-49764342D01*
X200833333Y-49764342D02*
X200833333Y-48954819D01*
X201833333Y-49954819D02*
X201261905Y-49954819D01*
X201547619Y-49954819D02*
X201547619Y-48954819D01*
X201547619Y-48954819D02*
X201452381Y-49097676D01*
X201452381Y-49097676D02*
X201357143Y-49192914D01*
X201357143Y-49192914D02*
X201261905Y-49240533D01*
X202214286Y-49050057D02*
X202261905Y-49002438D01*
X202261905Y-49002438D02*
X202357143Y-48954819D01*
X202357143Y-48954819D02*
X202595238Y-48954819D01*
X202595238Y-48954819D02*
X202690476Y-49002438D01*
X202690476Y-49002438D02*
X202738095Y-49050057D01*
X202738095Y-49050057D02*
X202785714Y-49145295D01*
X202785714Y-49145295D02*
X202785714Y-49240533D01*
X202785714Y-49240533D02*
X202738095Y-49383390D01*
X202738095Y-49383390D02*
X202166667Y-49954819D01*
X202166667Y-49954819D02*
X202785714Y-49954819D01*
X233190476Y-130749819D02*
X233190476Y-131464104D01*
X233190476Y-131464104D02*
X233142857Y-131606961D01*
X233142857Y-131606961D02*
X233047619Y-131702200D01*
X233047619Y-131702200D02*
X232904762Y-131749819D01*
X232904762Y-131749819D02*
X232809524Y-131749819D01*
X234190476Y-131749819D02*
X233619048Y-131749819D01*
X233904762Y-131749819D02*
X233904762Y-130749819D01*
X233904762Y-130749819D02*
X233809524Y-130892676D01*
X233809524Y-130892676D02*
X233714286Y-130987914D01*
X233714286Y-130987914D02*
X233619048Y-131035533D01*
X235095238Y-130749819D02*
X234619048Y-130749819D01*
X234619048Y-130749819D02*
X234571429Y-131226009D01*
X234571429Y-131226009D02*
X234619048Y-131178390D01*
X234619048Y-131178390D02*
X234714286Y-131130771D01*
X234714286Y-131130771D02*
X234952381Y-131130771D01*
X234952381Y-131130771D02*
X235047619Y-131178390D01*
X235047619Y-131178390D02*
X235095238Y-131226009D01*
X235095238Y-131226009D02*
X235142857Y-131321247D01*
X235142857Y-131321247D02*
X235142857Y-131559342D01*
X235142857Y-131559342D02*
X235095238Y-131654580D01*
X235095238Y-131654580D02*
X235047619Y-131702200D01*
X235047619Y-131702200D02*
X234952381Y-131749819D01*
X234952381Y-131749819D02*
X234714286Y-131749819D01*
X234714286Y-131749819D02*
X234619048Y-131702200D01*
X234619048Y-131702200D02*
X234571429Y-131654580D01*
X192434580Y-60916666D02*
X192482200Y-60964285D01*
X192482200Y-60964285D02*
X192529819Y-61107142D01*
X192529819Y-61107142D02*
X192529819Y-61202380D01*
X192529819Y-61202380D02*
X192482200Y-61345237D01*
X192482200Y-61345237D02*
X192386961Y-61440475D01*
X192386961Y-61440475D02*
X192291723Y-61488094D01*
X192291723Y-61488094D02*
X192101247Y-61535713D01*
X192101247Y-61535713D02*
X191958390Y-61535713D01*
X191958390Y-61535713D02*
X191767914Y-61488094D01*
X191767914Y-61488094D02*
X191672676Y-61440475D01*
X191672676Y-61440475D02*
X191577438Y-61345237D01*
X191577438Y-61345237D02*
X191529819Y-61202380D01*
X191529819Y-61202380D02*
X191529819Y-61107142D01*
X191529819Y-61107142D02*
X191577438Y-60964285D01*
X191577438Y-60964285D02*
X191625057Y-60916666D01*
X191529819Y-60583332D02*
X191529819Y-59916666D01*
X191529819Y-59916666D02*
X192529819Y-60345237D01*
X237818333Y-77679580D02*
X237770714Y-77727200D01*
X237770714Y-77727200D02*
X237627857Y-77774819D01*
X237627857Y-77774819D02*
X237532619Y-77774819D01*
X237532619Y-77774819D02*
X237389762Y-77727200D01*
X237389762Y-77727200D02*
X237294524Y-77631961D01*
X237294524Y-77631961D02*
X237246905Y-77536723D01*
X237246905Y-77536723D02*
X237199286Y-77346247D01*
X237199286Y-77346247D02*
X237199286Y-77203390D01*
X237199286Y-77203390D02*
X237246905Y-77012914D01*
X237246905Y-77012914D02*
X237294524Y-76917676D01*
X237294524Y-76917676D02*
X237389762Y-76822438D01*
X237389762Y-76822438D02*
X237532619Y-76774819D01*
X237532619Y-76774819D02*
X237627857Y-76774819D01*
X237627857Y-76774819D02*
X237770714Y-76822438D01*
X237770714Y-76822438D02*
X237818333Y-76870057D01*
X238199286Y-76870057D02*
X238246905Y-76822438D01*
X238246905Y-76822438D02*
X238342143Y-76774819D01*
X238342143Y-76774819D02*
X238580238Y-76774819D01*
X238580238Y-76774819D02*
X238675476Y-76822438D01*
X238675476Y-76822438D02*
X238723095Y-76870057D01*
X238723095Y-76870057D02*
X238770714Y-76965295D01*
X238770714Y-76965295D02*
X238770714Y-77060533D01*
X238770714Y-77060533D02*
X238723095Y-77203390D01*
X238723095Y-77203390D02*
X238151667Y-77774819D01*
X238151667Y-77774819D02*
X238770714Y-77774819D01*
X249818333Y-83124819D02*
X249485000Y-82648628D01*
X249246905Y-83124819D02*
X249246905Y-82124819D01*
X249246905Y-82124819D02*
X249627857Y-82124819D01*
X249627857Y-82124819D02*
X249723095Y-82172438D01*
X249723095Y-82172438D02*
X249770714Y-82220057D01*
X249770714Y-82220057D02*
X249818333Y-82315295D01*
X249818333Y-82315295D02*
X249818333Y-82458152D01*
X249818333Y-82458152D02*
X249770714Y-82553390D01*
X249770714Y-82553390D02*
X249723095Y-82601009D01*
X249723095Y-82601009D02*
X249627857Y-82648628D01*
X249627857Y-82648628D02*
X249246905Y-82648628D01*
X250151667Y-82124819D02*
X250818333Y-82124819D01*
X250818333Y-82124819D02*
X250389762Y-83124819D01*
X195261905Y-91954819D02*
X195261905Y-92764342D01*
X195261905Y-92764342D02*
X195309524Y-92859580D01*
X195309524Y-92859580D02*
X195357143Y-92907200D01*
X195357143Y-92907200D02*
X195452381Y-92954819D01*
X195452381Y-92954819D02*
X195642857Y-92954819D01*
X195642857Y-92954819D02*
X195738095Y-92907200D01*
X195738095Y-92907200D02*
X195785714Y-92859580D01*
X195785714Y-92859580D02*
X195833333Y-92764342D01*
X195833333Y-92764342D02*
X195833333Y-91954819D01*
X196833333Y-92954819D02*
X196261905Y-92954819D01*
X196547619Y-92954819D02*
X196547619Y-91954819D01*
X196547619Y-91954819D02*
X196452381Y-92097676D01*
X196452381Y-92097676D02*
X196357143Y-92192914D01*
X196357143Y-92192914D02*
X196261905Y-92240533D01*
X197452381Y-91954819D02*
X197547619Y-91954819D01*
X197547619Y-91954819D02*
X197642857Y-92002438D01*
X197642857Y-92002438D02*
X197690476Y-92050057D01*
X197690476Y-92050057D02*
X197738095Y-92145295D01*
X197738095Y-92145295D02*
X197785714Y-92335771D01*
X197785714Y-92335771D02*
X197785714Y-92573866D01*
X197785714Y-92573866D02*
X197738095Y-92764342D01*
X197738095Y-92764342D02*
X197690476Y-92859580D01*
X197690476Y-92859580D02*
X197642857Y-92907200D01*
X197642857Y-92907200D02*
X197547619Y-92954819D01*
X197547619Y-92954819D02*
X197452381Y-92954819D01*
X197452381Y-92954819D02*
X197357143Y-92907200D01*
X197357143Y-92907200D02*
X197309524Y-92859580D01*
X197309524Y-92859580D02*
X197261905Y-92764342D01*
X197261905Y-92764342D02*
X197214286Y-92573866D01*
X197214286Y-92573866D02*
X197214286Y-92335771D01*
X197214286Y-92335771D02*
X197261905Y-92145295D01*
X197261905Y-92145295D02*
X197309524Y-92050057D01*
X197309524Y-92050057D02*
X197357143Y-92002438D01*
X197357143Y-92002438D02*
X197452381Y-91954819D01*
X191833333Y-107774819D02*
X191500000Y-107298628D01*
X191261905Y-107774819D02*
X191261905Y-106774819D01*
X191261905Y-106774819D02*
X191642857Y-106774819D01*
X191642857Y-106774819D02*
X191738095Y-106822438D01*
X191738095Y-106822438D02*
X191785714Y-106870057D01*
X191785714Y-106870057D02*
X191833333Y-106965295D01*
X191833333Y-106965295D02*
X191833333Y-107108152D01*
X191833333Y-107108152D02*
X191785714Y-107203390D01*
X191785714Y-107203390D02*
X191738095Y-107251009D01*
X191738095Y-107251009D02*
X191642857Y-107298628D01*
X191642857Y-107298628D02*
X191261905Y-107298628D01*
X192690476Y-106774819D02*
X192500000Y-106774819D01*
X192500000Y-106774819D02*
X192404762Y-106822438D01*
X192404762Y-106822438D02*
X192357143Y-106870057D01*
X192357143Y-106870057D02*
X192261905Y-107012914D01*
X192261905Y-107012914D02*
X192214286Y-107203390D01*
X192214286Y-107203390D02*
X192214286Y-107584342D01*
X192214286Y-107584342D02*
X192261905Y-107679580D01*
X192261905Y-107679580D02*
X192309524Y-107727200D01*
X192309524Y-107727200D02*
X192404762Y-107774819D01*
X192404762Y-107774819D02*
X192595238Y-107774819D01*
X192595238Y-107774819D02*
X192690476Y-107727200D01*
X192690476Y-107727200D02*
X192738095Y-107679580D01*
X192738095Y-107679580D02*
X192785714Y-107584342D01*
X192785714Y-107584342D02*
X192785714Y-107346247D01*
X192785714Y-107346247D02*
X192738095Y-107251009D01*
X192738095Y-107251009D02*
X192690476Y-107203390D01*
X192690476Y-107203390D02*
X192595238Y-107155771D01*
X192595238Y-107155771D02*
X192404762Y-107155771D01*
X192404762Y-107155771D02*
X192309524Y-107203390D01*
X192309524Y-107203390D02*
X192261905Y-107251009D01*
X192261905Y-107251009D02*
X192214286Y-107346247D01*
X248092142Y-101679580D02*
X248044523Y-101727200D01*
X248044523Y-101727200D02*
X247901666Y-101774819D01*
X247901666Y-101774819D02*
X247806428Y-101774819D01*
X247806428Y-101774819D02*
X247663571Y-101727200D01*
X247663571Y-101727200D02*
X247568333Y-101631961D01*
X247568333Y-101631961D02*
X247520714Y-101536723D01*
X247520714Y-101536723D02*
X247473095Y-101346247D01*
X247473095Y-101346247D02*
X247473095Y-101203390D01*
X247473095Y-101203390D02*
X247520714Y-101012914D01*
X247520714Y-101012914D02*
X247568333Y-100917676D01*
X247568333Y-100917676D02*
X247663571Y-100822438D01*
X247663571Y-100822438D02*
X247806428Y-100774819D01*
X247806428Y-100774819D02*
X247901666Y-100774819D01*
X247901666Y-100774819D02*
X248044523Y-100822438D01*
X248044523Y-100822438D02*
X248092142Y-100870057D01*
X249044523Y-101774819D02*
X248473095Y-101774819D01*
X248758809Y-101774819D02*
X248758809Y-100774819D01*
X248758809Y-100774819D02*
X248663571Y-100917676D01*
X248663571Y-100917676D02*
X248568333Y-101012914D01*
X248568333Y-101012914D02*
X248473095Y-101060533D01*
X249901666Y-101108152D02*
X249901666Y-101774819D01*
X249663571Y-100727200D02*
X249425476Y-101441485D01*
X249425476Y-101441485D02*
X250044523Y-101441485D01*
X248092142Y-114179580D02*
X248044523Y-114227200D01*
X248044523Y-114227200D02*
X247901666Y-114274819D01*
X247901666Y-114274819D02*
X247806428Y-114274819D01*
X247806428Y-114274819D02*
X247663571Y-114227200D01*
X247663571Y-114227200D02*
X247568333Y-114131961D01*
X247568333Y-114131961D02*
X247520714Y-114036723D01*
X247520714Y-114036723D02*
X247473095Y-113846247D01*
X247473095Y-113846247D02*
X247473095Y-113703390D01*
X247473095Y-113703390D02*
X247520714Y-113512914D01*
X247520714Y-113512914D02*
X247568333Y-113417676D01*
X247568333Y-113417676D02*
X247663571Y-113322438D01*
X247663571Y-113322438D02*
X247806428Y-113274819D01*
X247806428Y-113274819D02*
X247901666Y-113274819D01*
X247901666Y-113274819D02*
X248044523Y-113322438D01*
X248044523Y-113322438D02*
X248092142Y-113370057D01*
X249044523Y-114274819D02*
X248473095Y-114274819D01*
X248758809Y-114274819D02*
X248758809Y-113274819D01*
X248758809Y-113274819D02*
X248663571Y-113417676D01*
X248663571Y-113417676D02*
X248568333Y-113512914D01*
X248568333Y-113512914D02*
X248473095Y-113560533D01*
X249901666Y-113274819D02*
X249711190Y-113274819D01*
X249711190Y-113274819D02*
X249615952Y-113322438D01*
X249615952Y-113322438D02*
X249568333Y-113370057D01*
X249568333Y-113370057D02*
X249473095Y-113512914D01*
X249473095Y-113512914D02*
X249425476Y-113703390D01*
X249425476Y-113703390D02*
X249425476Y-114084342D01*
X249425476Y-114084342D02*
X249473095Y-114179580D01*
X249473095Y-114179580D02*
X249520714Y-114227200D01*
X249520714Y-114227200D02*
X249615952Y-114274819D01*
X249615952Y-114274819D02*
X249806428Y-114274819D01*
X249806428Y-114274819D02*
X249901666Y-114227200D01*
X249901666Y-114227200D02*
X249949285Y-114179580D01*
X249949285Y-114179580D02*
X249996904Y-114084342D01*
X249996904Y-114084342D02*
X249996904Y-113846247D01*
X249996904Y-113846247D02*
X249949285Y-113751009D01*
X249949285Y-113751009D02*
X249901666Y-113703390D01*
X249901666Y-113703390D02*
X249806428Y-113655771D01*
X249806428Y-113655771D02*
X249615952Y-113655771D01*
X249615952Y-113655771D02*
X249520714Y-113703390D01*
X249520714Y-113703390D02*
X249473095Y-113751009D01*
X249473095Y-113751009D02*
X249425476Y-113846247D01*
X191704819Y-46392857D02*
X191228628Y-46726190D01*
X191704819Y-46964285D02*
X190704819Y-46964285D01*
X190704819Y-46964285D02*
X190704819Y-46583333D01*
X190704819Y-46583333D02*
X190752438Y-46488095D01*
X190752438Y-46488095D02*
X190800057Y-46440476D01*
X190800057Y-46440476D02*
X190895295Y-46392857D01*
X190895295Y-46392857D02*
X191038152Y-46392857D01*
X191038152Y-46392857D02*
X191133390Y-46440476D01*
X191133390Y-46440476D02*
X191181009Y-46488095D01*
X191181009Y-46488095D02*
X191228628Y-46583333D01*
X191228628Y-46583333D02*
X191228628Y-46964285D01*
X190800057Y-46011904D02*
X190752438Y-45964285D01*
X190752438Y-45964285D02*
X190704819Y-45869047D01*
X190704819Y-45869047D02*
X190704819Y-45630952D01*
X190704819Y-45630952D02*
X190752438Y-45535714D01*
X190752438Y-45535714D02*
X190800057Y-45488095D01*
X190800057Y-45488095D02*
X190895295Y-45440476D01*
X190895295Y-45440476D02*
X190990533Y-45440476D01*
X190990533Y-45440476D02*
X191133390Y-45488095D01*
X191133390Y-45488095D02*
X191704819Y-46059523D01*
X191704819Y-46059523D02*
X191704819Y-45440476D01*
X190704819Y-44535714D02*
X190704819Y-45011904D01*
X190704819Y-45011904D02*
X191181009Y-45059523D01*
X191181009Y-45059523D02*
X191133390Y-45011904D01*
X191133390Y-45011904D02*
X191085771Y-44916666D01*
X191085771Y-44916666D02*
X191085771Y-44678571D01*
X191085771Y-44678571D02*
X191133390Y-44583333D01*
X191133390Y-44583333D02*
X191181009Y-44535714D01*
X191181009Y-44535714D02*
X191276247Y-44488095D01*
X191276247Y-44488095D02*
X191514342Y-44488095D01*
X191514342Y-44488095D02*
X191609580Y-44535714D01*
X191609580Y-44535714D02*
X191657200Y-44583333D01*
X191657200Y-44583333D02*
X191704819Y-44678571D01*
X191704819Y-44678571D02*
X191704819Y-44916666D01*
X191704819Y-44916666D02*
X191657200Y-45011904D01*
X191657200Y-45011904D02*
X191609580Y-45059523D01*
X242973095Y-102954819D02*
X242973095Y-103764342D01*
X242973095Y-103764342D02*
X243020714Y-103859580D01*
X243020714Y-103859580D02*
X243068333Y-103907200D01*
X243068333Y-103907200D02*
X243163571Y-103954819D01*
X243163571Y-103954819D02*
X243354047Y-103954819D01*
X243354047Y-103954819D02*
X243449285Y-103907200D01*
X243449285Y-103907200D02*
X243496904Y-103859580D01*
X243496904Y-103859580D02*
X243544523Y-103764342D01*
X243544523Y-103764342D02*
X243544523Y-102954819D01*
X244163571Y-103383390D02*
X244068333Y-103335771D01*
X244068333Y-103335771D02*
X244020714Y-103288152D01*
X244020714Y-103288152D02*
X243973095Y-103192914D01*
X243973095Y-103192914D02*
X243973095Y-103145295D01*
X243973095Y-103145295D02*
X244020714Y-103050057D01*
X244020714Y-103050057D02*
X244068333Y-103002438D01*
X244068333Y-103002438D02*
X244163571Y-102954819D01*
X244163571Y-102954819D02*
X244354047Y-102954819D01*
X244354047Y-102954819D02*
X244449285Y-103002438D01*
X244449285Y-103002438D02*
X244496904Y-103050057D01*
X244496904Y-103050057D02*
X244544523Y-103145295D01*
X244544523Y-103145295D02*
X244544523Y-103192914D01*
X244544523Y-103192914D02*
X244496904Y-103288152D01*
X244496904Y-103288152D02*
X244449285Y-103335771D01*
X244449285Y-103335771D02*
X244354047Y-103383390D01*
X244354047Y-103383390D02*
X244163571Y-103383390D01*
X244163571Y-103383390D02*
X244068333Y-103431009D01*
X244068333Y-103431009D02*
X244020714Y-103478628D01*
X244020714Y-103478628D02*
X243973095Y-103573866D01*
X243973095Y-103573866D02*
X243973095Y-103764342D01*
X243973095Y-103764342D02*
X244020714Y-103859580D01*
X244020714Y-103859580D02*
X244068333Y-103907200D01*
X244068333Y-103907200D02*
X244163571Y-103954819D01*
X244163571Y-103954819D02*
X244354047Y-103954819D01*
X244354047Y-103954819D02*
X244449285Y-103907200D01*
X244449285Y-103907200D02*
X244496904Y-103859580D01*
X244496904Y-103859580D02*
X244544523Y-103764342D01*
X244544523Y-103764342D02*
X244544523Y-103573866D01*
X244544523Y-103573866D02*
X244496904Y-103478628D01*
X244496904Y-103478628D02*
X244449285Y-103431009D01*
X244449285Y-103431009D02*
X244354047Y-103383390D01*
X249855833Y-71874819D02*
X249522500Y-71398628D01*
X249284405Y-71874819D02*
X249284405Y-70874819D01*
X249284405Y-70874819D02*
X249665357Y-70874819D01*
X249665357Y-70874819D02*
X249760595Y-70922438D01*
X249760595Y-70922438D02*
X249808214Y-70970057D01*
X249808214Y-70970057D02*
X249855833Y-71065295D01*
X249855833Y-71065295D02*
X249855833Y-71208152D01*
X249855833Y-71208152D02*
X249808214Y-71303390D01*
X249808214Y-71303390D02*
X249760595Y-71351009D01*
X249760595Y-71351009D02*
X249665357Y-71398628D01*
X249665357Y-71398628D02*
X249284405Y-71398628D01*
X250427262Y-71303390D02*
X250332024Y-71255771D01*
X250332024Y-71255771D02*
X250284405Y-71208152D01*
X250284405Y-71208152D02*
X250236786Y-71112914D01*
X250236786Y-71112914D02*
X250236786Y-71065295D01*
X250236786Y-71065295D02*
X250284405Y-70970057D01*
X250284405Y-70970057D02*
X250332024Y-70922438D01*
X250332024Y-70922438D02*
X250427262Y-70874819D01*
X250427262Y-70874819D02*
X250617738Y-70874819D01*
X250617738Y-70874819D02*
X250712976Y-70922438D01*
X250712976Y-70922438D02*
X250760595Y-70970057D01*
X250760595Y-70970057D02*
X250808214Y-71065295D01*
X250808214Y-71065295D02*
X250808214Y-71112914D01*
X250808214Y-71112914D02*
X250760595Y-71208152D01*
X250760595Y-71208152D02*
X250712976Y-71255771D01*
X250712976Y-71255771D02*
X250617738Y-71303390D01*
X250617738Y-71303390D02*
X250427262Y-71303390D01*
X250427262Y-71303390D02*
X250332024Y-71351009D01*
X250332024Y-71351009D02*
X250284405Y-71398628D01*
X250284405Y-71398628D02*
X250236786Y-71493866D01*
X250236786Y-71493866D02*
X250236786Y-71684342D01*
X250236786Y-71684342D02*
X250284405Y-71779580D01*
X250284405Y-71779580D02*
X250332024Y-71827200D01*
X250332024Y-71827200D02*
X250427262Y-71874819D01*
X250427262Y-71874819D02*
X250617738Y-71874819D01*
X250617738Y-71874819D02*
X250712976Y-71827200D01*
X250712976Y-71827200D02*
X250760595Y-71779580D01*
X250760595Y-71779580D02*
X250808214Y-71684342D01*
X250808214Y-71684342D02*
X250808214Y-71493866D01*
X250808214Y-71493866D02*
X250760595Y-71398628D01*
X250760595Y-71398628D02*
X250712976Y-71351009D01*
X250712976Y-71351009D02*
X250617738Y-71303390D01*
X250583333Y-90359580D02*
X250535714Y-90407200D01*
X250535714Y-90407200D02*
X250392857Y-90454819D01*
X250392857Y-90454819D02*
X250297619Y-90454819D01*
X250297619Y-90454819D02*
X250154762Y-90407200D01*
X250154762Y-90407200D02*
X250059524Y-90311961D01*
X250059524Y-90311961D02*
X250011905Y-90216723D01*
X250011905Y-90216723D02*
X249964286Y-90026247D01*
X249964286Y-90026247D02*
X249964286Y-89883390D01*
X249964286Y-89883390D02*
X250011905Y-89692914D01*
X250011905Y-89692914D02*
X250059524Y-89597676D01*
X250059524Y-89597676D02*
X250154762Y-89502438D01*
X250154762Y-89502438D02*
X250297619Y-89454819D01*
X250297619Y-89454819D02*
X250392857Y-89454819D01*
X250392857Y-89454819D02*
X250535714Y-89502438D01*
X250535714Y-89502438D02*
X250583333Y-89550057D01*
X251440476Y-89454819D02*
X251250000Y-89454819D01*
X251250000Y-89454819D02*
X251154762Y-89502438D01*
X251154762Y-89502438D02*
X251107143Y-89550057D01*
X251107143Y-89550057D02*
X251011905Y-89692914D01*
X251011905Y-89692914D02*
X250964286Y-89883390D01*
X250964286Y-89883390D02*
X250964286Y-90264342D01*
X250964286Y-90264342D02*
X251011905Y-90359580D01*
X251011905Y-90359580D02*
X251059524Y-90407200D01*
X251059524Y-90407200D02*
X251154762Y-90454819D01*
X251154762Y-90454819D02*
X251345238Y-90454819D01*
X251345238Y-90454819D02*
X251440476Y-90407200D01*
X251440476Y-90407200D02*
X251488095Y-90359580D01*
X251488095Y-90359580D02*
X251535714Y-90264342D01*
X251535714Y-90264342D02*
X251535714Y-90026247D01*
X251535714Y-90026247D02*
X251488095Y-89931009D01*
X251488095Y-89931009D02*
X251440476Y-89883390D01*
X251440476Y-89883390D02*
X251345238Y-89835771D01*
X251345238Y-89835771D02*
X251154762Y-89835771D01*
X251154762Y-89835771D02*
X251059524Y-89883390D01*
X251059524Y-89883390D02*
X251011905Y-89931009D01*
X251011905Y-89931009D02*
X250964286Y-90026247D01*
X222379819Y-105559523D02*
X223094104Y-105559523D01*
X223094104Y-105559523D02*
X223236961Y-105607142D01*
X223236961Y-105607142D02*
X223332200Y-105702380D01*
X223332200Y-105702380D02*
X223379819Y-105845237D01*
X223379819Y-105845237D02*
X223379819Y-105940475D01*
X223379819Y-104559523D02*
X223379819Y-105130951D01*
X223379819Y-104845237D02*
X222379819Y-104845237D01*
X222379819Y-104845237D02*
X222522676Y-104940475D01*
X222522676Y-104940475D02*
X222617914Y-105035713D01*
X222617914Y-105035713D02*
X222665533Y-105130951D01*
X222713152Y-103702380D02*
X223379819Y-103702380D01*
X222332200Y-103940475D02*
X223046485Y-104178570D01*
X223046485Y-104178570D02*
X223046485Y-103559523D01*
X205428571Y-116481009D02*
X205095238Y-116481009D01*
X205095238Y-117004819D02*
X205095238Y-116004819D01*
X205095238Y-116004819D02*
X205571428Y-116004819D01*
X205952381Y-117004819D02*
X205952381Y-116004819D01*
X206428571Y-117004819D02*
X206428571Y-116004819D01*
X206428571Y-116004819D02*
X206666666Y-116004819D01*
X206666666Y-116004819D02*
X206809523Y-116052438D01*
X206809523Y-116052438D02*
X206904761Y-116147676D01*
X206904761Y-116147676D02*
X206952380Y-116242914D01*
X206952380Y-116242914D02*
X206999999Y-116433390D01*
X206999999Y-116433390D02*
X206999999Y-116576247D01*
X206999999Y-116576247D02*
X206952380Y-116766723D01*
X206952380Y-116766723D02*
X206904761Y-116861961D01*
X206904761Y-116861961D02*
X206809523Y-116957200D01*
X206809523Y-116957200D02*
X206666666Y-117004819D01*
X206666666Y-117004819D02*
X206428571Y-117004819D01*
X207857142Y-116004819D02*
X207666666Y-116004819D01*
X207666666Y-116004819D02*
X207571428Y-116052438D01*
X207571428Y-116052438D02*
X207523809Y-116100057D01*
X207523809Y-116100057D02*
X207428571Y-116242914D01*
X207428571Y-116242914D02*
X207380952Y-116433390D01*
X207380952Y-116433390D02*
X207380952Y-116814342D01*
X207380952Y-116814342D02*
X207428571Y-116909580D01*
X207428571Y-116909580D02*
X207476190Y-116957200D01*
X207476190Y-116957200D02*
X207571428Y-117004819D01*
X207571428Y-117004819D02*
X207761904Y-117004819D01*
X207761904Y-117004819D02*
X207857142Y-116957200D01*
X207857142Y-116957200D02*
X207904761Y-116909580D01*
X207904761Y-116909580D02*
X207952380Y-116814342D01*
X207952380Y-116814342D02*
X207952380Y-116576247D01*
X207952380Y-116576247D02*
X207904761Y-116481009D01*
X207904761Y-116481009D02*
X207857142Y-116433390D01*
X207857142Y-116433390D02*
X207761904Y-116385771D01*
X207761904Y-116385771D02*
X207571428Y-116385771D01*
X207571428Y-116385771D02*
X207476190Y-116433390D01*
X207476190Y-116433390D02*
X207428571Y-116481009D01*
X207428571Y-116481009D02*
X207380952Y-116576247D01*
X218014819Y-126734523D02*
X218729104Y-126734523D01*
X218729104Y-126734523D02*
X218871961Y-126782142D01*
X218871961Y-126782142D02*
X218967200Y-126877380D01*
X218967200Y-126877380D02*
X219014819Y-127020237D01*
X219014819Y-127020237D02*
X219014819Y-127115475D01*
X219014819Y-125734523D02*
X219014819Y-126305951D01*
X219014819Y-126020237D02*
X218014819Y-126020237D01*
X218014819Y-126020237D02*
X218157676Y-126115475D01*
X218157676Y-126115475D02*
X218252914Y-126210713D01*
X218252914Y-126210713D02*
X218300533Y-126305951D01*
X218110057Y-125353570D02*
X218062438Y-125305951D01*
X218062438Y-125305951D02*
X218014819Y-125210713D01*
X218014819Y-125210713D02*
X218014819Y-124972618D01*
X218014819Y-124972618D02*
X218062438Y-124877380D01*
X218062438Y-124877380D02*
X218110057Y-124829761D01*
X218110057Y-124829761D02*
X218205295Y-124782142D01*
X218205295Y-124782142D02*
X218300533Y-124782142D01*
X218300533Y-124782142D02*
X218443390Y-124829761D01*
X218443390Y-124829761D02*
X219014819Y-125401189D01*
X219014819Y-125401189D02*
X219014819Y-124782142D01*
X201524819Y-102642857D02*
X201048628Y-102976190D01*
X201524819Y-103214285D02*
X200524819Y-103214285D01*
X200524819Y-103214285D02*
X200524819Y-102833333D01*
X200524819Y-102833333D02*
X200572438Y-102738095D01*
X200572438Y-102738095D02*
X200620057Y-102690476D01*
X200620057Y-102690476D02*
X200715295Y-102642857D01*
X200715295Y-102642857D02*
X200858152Y-102642857D01*
X200858152Y-102642857D02*
X200953390Y-102690476D01*
X200953390Y-102690476D02*
X201001009Y-102738095D01*
X201001009Y-102738095D02*
X201048628Y-102833333D01*
X201048628Y-102833333D02*
X201048628Y-103214285D01*
X201524819Y-101690476D02*
X201524819Y-102261904D01*
X201524819Y-101976190D02*
X200524819Y-101976190D01*
X200524819Y-101976190D02*
X200667676Y-102071428D01*
X200667676Y-102071428D02*
X200762914Y-102166666D01*
X200762914Y-102166666D02*
X200810533Y-102261904D01*
X201524819Y-100738095D02*
X201524819Y-101309523D01*
X201524819Y-101023809D02*
X200524819Y-101023809D01*
X200524819Y-101023809D02*
X200667676Y-101119047D01*
X200667676Y-101119047D02*
X200762914Y-101214285D01*
X200762914Y-101214285D02*
X200810533Y-101309523D01*
X247032142Y-54024819D02*
X246698809Y-53548628D01*
X246460714Y-54024819D02*
X246460714Y-53024819D01*
X246460714Y-53024819D02*
X246841666Y-53024819D01*
X246841666Y-53024819D02*
X246936904Y-53072438D01*
X246936904Y-53072438D02*
X246984523Y-53120057D01*
X246984523Y-53120057D02*
X247032142Y-53215295D01*
X247032142Y-53215295D02*
X247032142Y-53358152D01*
X247032142Y-53358152D02*
X246984523Y-53453390D01*
X246984523Y-53453390D02*
X246936904Y-53501009D01*
X246936904Y-53501009D02*
X246841666Y-53548628D01*
X246841666Y-53548628D02*
X246460714Y-53548628D01*
X247984523Y-54024819D02*
X247413095Y-54024819D01*
X247698809Y-54024819D02*
X247698809Y-53024819D01*
X247698809Y-53024819D02*
X247603571Y-53167676D01*
X247603571Y-53167676D02*
X247508333Y-53262914D01*
X247508333Y-53262914D02*
X247413095Y-53310533D01*
X248555952Y-53453390D02*
X248460714Y-53405771D01*
X248460714Y-53405771D02*
X248413095Y-53358152D01*
X248413095Y-53358152D02*
X248365476Y-53262914D01*
X248365476Y-53262914D02*
X248365476Y-53215295D01*
X248365476Y-53215295D02*
X248413095Y-53120057D01*
X248413095Y-53120057D02*
X248460714Y-53072438D01*
X248460714Y-53072438D02*
X248555952Y-53024819D01*
X248555952Y-53024819D02*
X248746428Y-53024819D01*
X248746428Y-53024819D02*
X248841666Y-53072438D01*
X248841666Y-53072438D02*
X248889285Y-53120057D01*
X248889285Y-53120057D02*
X248936904Y-53215295D01*
X248936904Y-53215295D02*
X248936904Y-53262914D01*
X248936904Y-53262914D02*
X248889285Y-53358152D01*
X248889285Y-53358152D02*
X248841666Y-53405771D01*
X248841666Y-53405771D02*
X248746428Y-53453390D01*
X248746428Y-53453390D02*
X248555952Y-53453390D01*
X248555952Y-53453390D02*
X248460714Y-53501009D01*
X248460714Y-53501009D02*
X248413095Y-53548628D01*
X248413095Y-53548628D02*
X248365476Y-53643866D01*
X248365476Y-53643866D02*
X248365476Y-53834342D01*
X248365476Y-53834342D02*
X248413095Y-53929580D01*
X248413095Y-53929580D02*
X248460714Y-53977200D01*
X248460714Y-53977200D02*
X248555952Y-54024819D01*
X248555952Y-54024819D02*
X248746428Y-54024819D01*
X248746428Y-54024819D02*
X248841666Y-53977200D01*
X248841666Y-53977200D02*
X248889285Y-53929580D01*
X248889285Y-53929580D02*
X248936904Y-53834342D01*
X248936904Y-53834342D02*
X248936904Y-53643866D01*
X248936904Y-53643866D02*
X248889285Y-53548628D01*
X248889285Y-53548628D02*
X248841666Y-53501009D01*
X248841666Y-53501009D02*
X248746428Y-53453390D01*
X195107142Y-50634819D02*
X194773809Y-50158628D01*
X194535714Y-50634819D02*
X194535714Y-49634819D01*
X194535714Y-49634819D02*
X194916666Y-49634819D01*
X194916666Y-49634819D02*
X195011904Y-49682438D01*
X195011904Y-49682438D02*
X195059523Y-49730057D01*
X195059523Y-49730057D02*
X195107142Y-49825295D01*
X195107142Y-49825295D02*
X195107142Y-49968152D01*
X195107142Y-49968152D02*
X195059523Y-50063390D01*
X195059523Y-50063390D02*
X195011904Y-50111009D01*
X195011904Y-50111009D02*
X194916666Y-50158628D01*
X194916666Y-50158628D02*
X194535714Y-50158628D01*
X196059523Y-50634819D02*
X195488095Y-50634819D01*
X195773809Y-50634819D02*
X195773809Y-49634819D01*
X195773809Y-49634819D02*
X195678571Y-49777676D01*
X195678571Y-49777676D02*
X195583333Y-49872914D01*
X195583333Y-49872914D02*
X195488095Y-49920533D01*
X196392857Y-49634819D02*
X197011904Y-49634819D01*
X197011904Y-49634819D02*
X196678571Y-50015771D01*
X196678571Y-50015771D02*
X196821428Y-50015771D01*
X196821428Y-50015771D02*
X196916666Y-50063390D01*
X196916666Y-50063390D02*
X196964285Y-50111009D01*
X196964285Y-50111009D02*
X197011904Y-50206247D01*
X197011904Y-50206247D02*
X197011904Y-50444342D01*
X197011904Y-50444342D02*
X196964285Y-50539580D01*
X196964285Y-50539580D02*
X196916666Y-50587200D01*
X196916666Y-50587200D02*
X196821428Y-50634819D01*
X196821428Y-50634819D02*
X196535714Y-50634819D01*
X196535714Y-50634819D02*
X196440476Y-50587200D01*
X196440476Y-50587200D02*
X196392857Y-50539580D01*
X209490476Y-33704819D02*
X209490476Y-34419104D01*
X209490476Y-34419104D02*
X209442857Y-34561961D01*
X209442857Y-34561961D02*
X209347619Y-34657200D01*
X209347619Y-34657200D02*
X209204762Y-34704819D01*
X209204762Y-34704819D02*
X209109524Y-34704819D01*
X210490476Y-34704819D02*
X209919048Y-34704819D01*
X210204762Y-34704819D02*
X210204762Y-33704819D01*
X210204762Y-33704819D02*
X210109524Y-33847676D01*
X210109524Y-33847676D02*
X210014286Y-33942914D01*
X210014286Y-33942914D02*
X209919048Y-33990533D01*
X211109524Y-33704819D02*
X211204762Y-33704819D01*
X211204762Y-33704819D02*
X211300000Y-33752438D01*
X211300000Y-33752438D02*
X211347619Y-33800057D01*
X211347619Y-33800057D02*
X211395238Y-33895295D01*
X211395238Y-33895295D02*
X211442857Y-34085771D01*
X211442857Y-34085771D02*
X211442857Y-34323866D01*
X211442857Y-34323866D02*
X211395238Y-34514342D01*
X211395238Y-34514342D02*
X211347619Y-34609580D01*
X211347619Y-34609580D02*
X211300000Y-34657200D01*
X211300000Y-34657200D02*
X211204762Y-34704819D01*
X211204762Y-34704819D02*
X211109524Y-34704819D01*
X211109524Y-34704819D02*
X211014286Y-34657200D01*
X211014286Y-34657200D02*
X210966667Y-34609580D01*
X210966667Y-34609580D02*
X210919048Y-34514342D01*
X210919048Y-34514342D02*
X210871429Y-34323866D01*
X210871429Y-34323866D02*
X210871429Y-34085771D01*
X210871429Y-34085771D02*
X210919048Y-33895295D01*
X210919048Y-33895295D02*
X210966667Y-33800057D01*
X210966667Y-33800057D02*
X211014286Y-33752438D01*
X211014286Y-33752438D02*
X211109524Y-33704819D01*
X238164580Y-99392857D02*
X238212200Y-99440476D01*
X238212200Y-99440476D02*
X238259819Y-99583333D01*
X238259819Y-99583333D02*
X238259819Y-99678571D01*
X238259819Y-99678571D02*
X238212200Y-99821428D01*
X238212200Y-99821428D02*
X238116961Y-99916666D01*
X238116961Y-99916666D02*
X238021723Y-99964285D01*
X238021723Y-99964285D02*
X237831247Y-100011904D01*
X237831247Y-100011904D02*
X237688390Y-100011904D01*
X237688390Y-100011904D02*
X237497914Y-99964285D01*
X237497914Y-99964285D02*
X237402676Y-99916666D01*
X237402676Y-99916666D02*
X237307438Y-99821428D01*
X237307438Y-99821428D02*
X237259819Y-99678571D01*
X237259819Y-99678571D02*
X237259819Y-99583333D01*
X237259819Y-99583333D02*
X237307438Y-99440476D01*
X237307438Y-99440476D02*
X237355057Y-99392857D01*
X238259819Y-98440476D02*
X238259819Y-99011904D01*
X238259819Y-98726190D02*
X237259819Y-98726190D01*
X237259819Y-98726190D02*
X237402676Y-98821428D01*
X237402676Y-98821428D02*
X237497914Y-98916666D01*
X237497914Y-98916666D02*
X237545533Y-99011904D01*
X237259819Y-98107142D02*
X237259819Y-97488095D01*
X237259819Y-97488095D02*
X237640771Y-97821428D01*
X237640771Y-97821428D02*
X237640771Y-97678571D01*
X237640771Y-97678571D02*
X237688390Y-97583333D01*
X237688390Y-97583333D02*
X237736009Y-97535714D01*
X237736009Y-97535714D02*
X237831247Y-97488095D01*
X237831247Y-97488095D02*
X238069342Y-97488095D01*
X238069342Y-97488095D02*
X238164580Y-97535714D01*
X238164580Y-97535714D02*
X238212200Y-97583333D01*
X238212200Y-97583333D02*
X238259819Y-97678571D01*
X238259819Y-97678571D02*
X238259819Y-97964285D01*
X238259819Y-97964285D02*
X238212200Y-98059523D01*
X238212200Y-98059523D02*
X238164580Y-98107142D01*
X257454819Y-63833333D02*
X258169104Y-63833333D01*
X258169104Y-63833333D02*
X258311961Y-63880952D01*
X258311961Y-63880952D02*
X258407200Y-63976190D01*
X258407200Y-63976190D02*
X258454819Y-64119047D01*
X258454819Y-64119047D02*
X258454819Y-64214285D01*
X258454819Y-62833333D02*
X258454819Y-63404761D01*
X258454819Y-63119047D02*
X257454819Y-63119047D01*
X257454819Y-63119047D02*
X257597676Y-63214285D01*
X257597676Y-63214285D02*
X257692914Y-63309523D01*
X257692914Y-63309523D02*
X257740533Y-63404761D01*
X218474819Y-98641666D02*
X217998628Y-98974999D01*
X218474819Y-99213094D02*
X217474819Y-99213094D01*
X217474819Y-99213094D02*
X217474819Y-98832142D01*
X217474819Y-98832142D02*
X217522438Y-98736904D01*
X217522438Y-98736904D02*
X217570057Y-98689285D01*
X217570057Y-98689285D02*
X217665295Y-98641666D01*
X217665295Y-98641666D02*
X217808152Y-98641666D01*
X217808152Y-98641666D02*
X217903390Y-98689285D01*
X217903390Y-98689285D02*
X217951009Y-98736904D01*
X217951009Y-98736904D02*
X217998628Y-98832142D01*
X217998628Y-98832142D02*
X217998628Y-99213094D01*
X217570057Y-98260713D02*
X217522438Y-98213094D01*
X217522438Y-98213094D02*
X217474819Y-98117856D01*
X217474819Y-98117856D02*
X217474819Y-97879761D01*
X217474819Y-97879761D02*
X217522438Y-97784523D01*
X217522438Y-97784523D02*
X217570057Y-97736904D01*
X217570057Y-97736904D02*
X217665295Y-97689285D01*
X217665295Y-97689285D02*
X217760533Y-97689285D01*
X217760533Y-97689285D02*
X217903390Y-97736904D01*
X217903390Y-97736904D02*
X218474819Y-98308332D01*
X218474819Y-98308332D02*
X218474819Y-97689285D01*
X211178571Y-48231009D02*
X210845238Y-48231009D01*
X210845238Y-48754819D02*
X210845238Y-47754819D01*
X210845238Y-47754819D02*
X211321428Y-47754819D01*
X211702381Y-48754819D02*
X211702381Y-47754819D01*
X212178571Y-48754819D02*
X212178571Y-47754819D01*
X212178571Y-47754819D02*
X212416666Y-47754819D01*
X212416666Y-47754819D02*
X212559523Y-47802438D01*
X212559523Y-47802438D02*
X212654761Y-47897676D01*
X212654761Y-47897676D02*
X212702380Y-47992914D01*
X212702380Y-47992914D02*
X212749999Y-48183390D01*
X212749999Y-48183390D02*
X212749999Y-48326247D01*
X212749999Y-48326247D02*
X212702380Y-48516723D01*
X212702380Y-48516723D02*
X212654761Y-48611961D01*
X212654761Y-48611961D02*
X212559523Y-48707200D01*
X212559523Y-48707200D02*
X212416666Y-48754819D01*
X212416666Y-48754819D02*
X212178571Y-48754819D01*
X213702380Y-48754819D02*
X213130952Y-48754819D01*
X213416666Y-48754819D02*
X213416666Y-47754819D01*
X213416666Y-47754819D02*
X213321428Y-47897676D01*
X213321428Y-47897676D02*
X213226190Y-47992914D01*
X213226190Y-47992914D02*
X213130952Y-48040533D01*
X198490476Y-33659819D02*
X198490476Y-34374104D01*
X198490476Y-34374104D02*
X198442857Y-34516961D01*
X198442857Y-34516961D02*
X198347619Y-34612200D01*
X198347619Y-34612200D02*
X198204762Y-34659819D01*
X198204762Y-34659819D02*
X198109524Y-34659819D01*
X199490476Y-34659819D02*
X198919048Y-34659819D01*
X199204762Y-34659819D02*
X199204762Y-33659819D01*
X199204762Y-33659819D02*
X199109524Y-33802676D01*
X199109524Y-33802676D02*
X199014286Y-33897914D01*
X199014286Y-33897914D02*
X198919048Y-33945533D01*
X200442857Y-34659819D02*
X199871429Y-34659819D01*
X200157143Y-34659819D02*
X200157143Y-33659819D01*
X200157143Y-33659819D02*
X200061905Y-33802676D01*
X200061905Y-33802676D02*
X199966667Y-33897914D01*
X199966667Y-33897914D02*
X199871429Y-33945533D01*
X240178571Y-82431009D02*
X239845238Y-82431009D01*
X239845238Y-82954819D02*
X239845238Y-81954819D01*
X239845238Y-81954819D02*
X240321428Y-81954819D01*
X240702381Y-82954819D02*
X240702381Y-81954819D01*
X241178571Y-82954819D02*
X241178571Y-81954819D01*
X241178571Y-81954819D02*
X241416666Y-81954819D01*
X241416666Y-81954819D02*
X241559523Y-82002438D01*
X241559523Y-82002438D02*
X241654761Y-82097676D01*
X241654761Y-82097676D02*
X241702380Y-82192914D01*
X241702380Y-82192914D02*
X241749999Y-82383390D01*
X241749999Y-82383390D02*
X241749999Y-82526247D01*
X241749999Y-82526247D02*
X241702380Y-82716723D01*
X241702380Y-82716723D02*
X241654761Y-82811961D01*
X241654761Y-82811961D02*
X241559523Y-82907200D01*
X241559523Y-82907200D02*
X241416666Y-82954819D01*
X241416666Y-82954819D02*
X241178571Y-82954819D01*
X242607142Y-82288152D02*
X242607142Y-82954819D01*
X242369047Y-81907200D02*
X242130952Y-82621485D01*
X242130952Y-82621485D02*
X242749999Y-82621485D01*
X173690476Y-25204819D02*
X173690476Y-25919104D01*
X173690476Y-25919104D02*
X173642857Y-26061961D01*
X173642857Y-26061961D02*
X173547619Y-26157200D01*
X173547619Y-26157200D02*
X173404762Y-26204819D01*
X173404762Y-26204819D02*
X173309524Y-26204819D01*
X174690476Y-26204819D02*
X174119048Y-26204819D01*
X174404762Y-26204819D02*
X174404762Y-25204819D01*
X174404762Y-25204819D02*
X174309524Y-25347676D01*
X174309524Y-25347676D02*
X174214286Y-25442914D01*
X174214286Y-25442914D02*
X174119048Y-25490533D01*
X175023810Y-25204819D02*
X175642857Y-25204819D01*
X175642857Y-25204819D02*
X175309524Y-25585771D01*
X175309524Y-25585771D02*
X175452381Y-25585771D01*
X175452381Y-25585771D02*
X175547619Y-25633390D01*
X175547619Y-25633390D02*
X175595238Y-25681009D01*
X175595238Y-25681009D02*
X175642857Y-25776247D01*
X175642857Y-25776247D02*
X175642857Y-26014342D01*
X175642857Y-26014342D02*
X175595238Y-26109580D01*
X175595238Y-26109580D02*
X175547619Y-26157200D01*
X175547619Y-26157200D02*
X175452381Y-26204819D01*
X175452381Y-26204819D02*
X175166667Y-26204819D01*
X175166667Y-26204819D02*
X175071429Y-26157200D01*
X175071429Y-26157200D02*
X175023810Y-26109580D01*
X195738095Y-81454819D02*
X195738095Y-82264342D01*
X195738095Y-82264342D02*
X195785714Y-82359580D01*
X195785714Y-82359580D02*
X195833333Y-82407200D01*
X195833333Y-82407200D02*
X195928571Y-82454819D01*
X195928571Y-82454819D02*
X196119047Y-82454819D01*
X196119047Y-82454819D02*
X196214285Y-82407200D01*
X196214285Y-82407200D02*
X196261904Y-82359580D01*
X196261904Y-82359580D02*
X196309523Y-82264342D01*
X196309523Y-82264342D02*
X196309523Y-81454819D01*
X196833333Y-82454819D02*
X197023809Y-82454819D01*
X197023809Y-82454819D02*
X197119047Y-82407200D01*
X197119047Y-82407200D02*
X197166666Y-82359580D01*
X197166666Y-82359580D02*
X197261904Y-82216723D01*
X197261904Y-82216723D02*
X197309523Y-82026247D01*
X197309523Y-82026247D02*
X197309523Y-81645295D01*
X197309523Y-81645295D02*
X197261904Y-81550057D01*
X197261904Y-81550057D02*
X197214285Y-81502438D01*
X197214285Y-81502438D02*
X197119047Y-81454819D01*
X197119047Y-81454819D02*
X196928571Y-81454819D01*
X196928571Y-81454819D02*
X196833333Y-81502438D01*
X196833333Y-81502438D02*
X196785714Y-81550057D01*
X196785714Y-81550057D02*
X196738095Y-81645295D01*
X196738095Y-81645295D02*
X196738095Y-81883390D01*
X196738095Y-81883390D02*
X196785714Y-81978628D01*
X196785714Y-81978628D02*
X196833333Y-82026247D01*
X196833333Y-82026247D02*
X196928571Y-82073866D01*
X196928571Y-82073866D02*
X197119047Y-82073866D01*
X197119047Y-82073866D02*
X197214285Y-82026247D01*
X197214285Y-82026247D02*
X197261904Y-81978628D01*
X197261904Y-81978628D02*
X197309523Y-81883390D01*
X212857142Y-120059580D02*
X212809523Y-120107200D01*
X212809523Y-120107200D02*
X212666666Y-120154819D01*
X212666666Y-120154819D02*
X212571428Y-120154819D01*
X212571428Y-120154819D02*
X212428571Y-120107200D01*
X212428571Y-120107200D02*
X212333333Y-120011961D01*
X212333333Y-120011961D02*
X212285714Y-119916723D01*
X212285714Y-119916723D02*
X212238095Y-119726247D01*
X212238095Y-119726247D02*
X212238095Y-119583390D01*
X212238095Y-119583390D02*
X212285714Y-119392914D01*
X212285714Y-119392914D02*
X212333333Y-119297676D01*
X212333333Y-119297676D02*
X212428571Y-119202438D01*
X212428571Y-119202438D02*
X212571428Y-119154819D01*
X212571428Y-119154819D02*
X212666666Y-119154819D01*
X212666666Y-119154819D02*
X212809523Y-119202438D01*
X212809523Y-119202438D02*
X212857142Y-119250057D01*
X213238095Y-119250057D02*
X213285714Y-119202438D01*
X213285714Y-119202438D02*
X213380952Y-119154819D01*
X213380952Y-119154819D02*
X213619047Y-119154819D01*
X213619047Y-119154819D02*
X213714285Y-119202438D01*
X213714285Y-119202438D02*
X213761904Y-119250057D01*
X213761904Y-119250057D02*
X213809523Y-119345295D01*
X213809523Y-119345295D02*
X213809523Y-119440533D01*
X213809523Y-119440533D02*
X213761904Y-119583390D01*
X213761904Y-119583390D02*
X213190476Y-120154819D01*
X213190476Y-120154819D02*
X213809523Y-120154819D01*
X214761904Y-120154819D02*
X214190476Y-120154819D01*
X214476190Y-120154819D02*
X214476190Y-119154819D01*
X214476190Y-119154819D02*
X214380952Y-119297676D01*
X214380952Y-119297676D02*
X214285714Y-119392914D01*
X214285714Y-119392914D02*
X214190476Y-119440533D01*
X213208333Y-65774819D02*
X212875000Y-65298628D01*
X212636905Y-65774819D02*
X212636905Y-64774819D01*
X212636905Y-64774819D02*
X213017857Y-64774819D01*
X213017857Y-64774819D02*
X213113095Y-64822438D01*
X213113095Y-64822438D02*
X213160714Y-64870057D01*
X213160714Y-64870057D02*
X213208333Y-64965295D01*
X213208333Y-64965295D02*
X213208333Y-65108152D01*
X213208333Y-65108152D02*
X213160714Y-65203390D01*
X213160714Y-65203390D02*
X213113095Y-65251009D01*
X213113095Y-65251009D02*
X213017857Y-65298628D01*
X213017857Y-65298628D02*
X212636905Y-65298628D01*
X214160714Y-65774819D02*
X213589286Y-65774819D01*
X213875000Y-65774819D02*
X213875000Y-64774819D01*
X213875000Y-64774819D02*
X213779762Y-64917676D01*
X213779762Y-64917676D02*
X213684524Y-65012914D01*
X213684524Y-65012914D02*
X213589286Y-65060533D01*
X222008333Y-83199819D02*
X221675000Y-82723628D01*
X221436905Y-83199819D02*
X221436905Y-82199819D01*
X221436905Y-82199819D02*
X221817857Y-82199819D01*
X221817857Y-82199819D02*
X221913095Y-82247438D01*
X221913095Y-82247438D02*
X221960714Y-82295057D01*
X221960714Y-82295057D02*
X222008333Y-82390295D01*
X222008333Y-82390295D02*
X222008333Y-82533152D01*
X222008333Y-82533152D02*
X221960714Y-82628390D01*
X221960714Y-82628390D02*
X221913095Y-82676009D01*
X221913095Y-82676009D02*
X221817857Y-82723628D01*
X221817857Y-82723628D02*
X221436905Y-82723628D01*
X222341667Y-82199819D02*
X222960714Y-82199819D01*
X222960714Y-82199819D02*
X222627381Y-82580771D01*
X222627381Y-82580771D02*
X222770238Y-82580771D01*
X222770238Y-82580771D02*
X222865476Y-82628390D01*
X222865476Y-82628390D02*
X222913095Y-82676009D01*
X222913095Y-82676009D02*
X222960714Y-82771247D01*
X222960714Y-82771247D02*
X222960714Y-83009342D01*
X222960714Y-83009342D02*
X222913095Y-83104580D01*
X222913095Y-83104580D02*
X222865476Y-83152200D01*
X222865476Y-83152200D02*
X222770238Y-83199819D01*
X222770238Y-83199819D02*
X222484524Y-83199819D01*
X222484524Y-83199819D02*
X222389286Y-83152200D01*
X222389286Y-83152200D02*
X222341667Y-83104580D01*
X250833333Y-79359580D02*
X250785714Y-79407200D01*
X250785714Y-79407200D02*
X250642857Y-79454819D01*
X250642857Y-79454819D02*
X250547619Y-79454819D01*
X250547619Y-79454819D02*
X250404762Y-79407200D01*
X250404762Y-79407200D02*
X250309524Y-79311961D01*
X250309524Y-79311961D02*
X250261905Y-79216723D01*
X250261905Y-79216723D02*
X250214286Y-79026247D01*
X250214286Y-79026247D02*
X250214286Y-78883390D01*
X250214286Y-78883390D02*
X250261905Y-78692914D01*
X250261905Y-78692914D02*
X250309524Y-78597676D01*
X250309524Y-78597676D02*
X250404762Y-78502438D01*
X250404762Y-78502438D02*
X250547619Y-78454819D01*
X250547619Y-78454819D02*
X250642857Y-78454819D01*
X250642857Y-78454819D02*
X250785714Y-78502438D01*
X250785714Y-78502438D02*
X250833333Y-78550057D01*
X251738095Y-78454819D02*
X251261905Y-78454819D01*
X251261905Y-78454819D02*
X251214286Y-78931009D01*
X251214286Y-78931009D02*
X251261905Y-78883390D01*
X251261905Y-78883390D02*
X251357143Y-78835771D01*
X251357143Y-78835771D02*
X251595238Y-78835771D01*
X251595238Y-78835771D02*
X251690476Y-78883390D01*
X251690476Y-78883390D02*
X251738095Y-78931009D01*
X251738095Y-78931009D02*
X251785714Y-79026247D01*
X251785714Y-79026247D02*
X251785714Y-79264342D01*
X251785714Y-79264342D02*
X251738095Y-79359580D01*
X251738095Y-79359580D02*
X251690476Y-79407200D01*
X251690476Y-79407200D02*
X251595238Y-79454819D01*
X251595238Y-79454819D02*
X251357143Y-79454819D01*
X251357143Y-79454819D02*
X251261905Y-79407200D01*
X251261905Y-79407200D02*
X251214286Y-79359580D01*
X237914580Y-75416666D02*
X237962200Y-75464285D01*
X237962200Y-75464285D02*
X238009819Y-75607142D01*
X238009819Y-75607142D02*
X238009819Y-75702380D01*
X238009819Y-75702380D02*
X237962200Y-75845237D01*
X237962200Y-75845237D02*
X237866961Y-75940475D01*
X237866961Y-75940475D02*
X237771723Y-75988094D01*
X237771723Y-75988094D02*
X237581247Y-76035713D01*
X237581247Y-76035713D02*
X237438390Y-76035713D01*
X237438390Y-76035713D02*
X237247914Y-75988094D01*
X237247914Y-75988094D02*
X237152676Y-75940475D01*
X237152676Y-75940475D02*
X237057438Y-75845237D01*
X237057438Y-75845237D02*
X237009819Y-75702380D01*
X237009819Y-75702380D02*
X237009819Y-75607142D01*
X237009819Y-75607142D02*
X237057438Y-75464285D01*
X237057438Y-75464285D02*
X237105057Y-75416666D01*
X237009819Y-75083332D02*
X237009819Y-74464285D01*
X237009819Y-74464285D02*
X237390771Y-74797618D01*
X237390771Y-74797618D02*
X237390771Y-74654761D01*
X237390771Y-74654761D02*
X237438390Y-74559523D01*
X237438390Y-74559523D02*
X237486009Y-74511904D01*
X237486009Y-74511904D02*
X237581247Y-74464285D01*
X237581247Y-74464285D02*
X237819342Y-74464285D01*
X237819342Y-74464285D02*
X237914580Y-74511904D01*
X237914580Y-74511904D02*
X237962200Y-74559523D01*
X237962200Y-74559523D02*
X238009819Y-74654761D01*
X238009819Y-74654761D02*
X238009819Y-74940475D01*
X238009819Y-74940475D02*
X237962200Y-75035713D01*
X237962200Y-75035713D02*
X237914580Y-75083332D01*
X240988095Y-70954819D02*
X240988095Y-71764342D01*
X240988095Y-71764342D02*
X241035714Y-71859580D01*
X241035714Y-71859580D02*
X241083333Y-71907200D01*
X241083333Y-71907200D02*
X241178571Y-71954819D01*
X241178571Y-71954819D02*
X241369047Y-71954819D01*
X241369047Y-71954819D02*
X241464285Y-71907200D01*
X241464285Y-71907200D02*
X241511904Y-71859580D01*
X241511904Y-71859580D02*
X241559523Y-71764342D01*
X241559523Y-71764342D02*
X241559523Y-70954819D01*
X241988095Y-71050057D02*
X242035714Y-71002438D01*
X242035714Y-71002438D02*
X242130952Y-70954819D01*
X242130952Y-70954819D02*
X242369047Y-70954819D01*
X242369047Y-70954819D02*
X242464285Y-71002438D01*
X242464285Y-71002438D02*
X242511904Y-71050057D01*
X242511904Y-71050057D02*
X242559523Y-71145295D01*
X242559523Y-71145295D02*
X242559523Y-71240533D01*
X242559523Y-71240533D02*
X242511904Y-71383390D01*
X242511904Y-71383390D02*
X241940476Y-71954819D01*
X241940476Y-71954819D02*
X242559523Y-71954819D01*
X252916666Y-33659819D02*
X252916666Y-34374104D01*
X252916666Y-34374104D02*
X252869047Y-34516961D01*
X252869047Y-34516961D02*
X252773809Y-34612200D01*
X252773809Y-34612200D02*
X252630952Y-34659819D01*
X252630952Y-34659819D02*
X252535714Y-34659819D01*
X253297619Y-33659819D02*
X253916666Y-33659819D01*
X253916666Y-33659819D02*
X253583333Y-34040771D01*
X253583333Y-34040771D02*
X253726190Y-34040771D01*
X253726190Y-34040771D02*
X253821428Y-34088390D01*
X253821428Y-34088390D02*
X253869047Y-34136009D01*
X253869047Y-34136009D02*
X253916666Y-34231247D01*
X253916666Y-34231247D02*
X253916666Y-34469342D01*
X253916666Y-34469342D02*
X253869047Y-34564580D01*
X253869047Y-34564580D02*
X253821428Y-34612200D01*
X253821428Y-34612200D02*
X253726190Y-34659819D01*
X253726190Y-34659819D02*
X253440476Y-34659819D01*
X253440476Y-34659819D02*
X253345238Y-34612200D01*
X253345238Y-34612200D02*
X253297619Y-34564580D01*
X242723095Y-86754819D02*
X242723095Y-87564342D01*
X242723095Y-87564342D02*
X242770714Y-87659580D01*
X242770714Y-87659580D02*
X242818333Y-87707200D01*
X242818333Y-87707200D02*
X242913571Y-87754819D01*
X242913571Y-87754819D02*
X243104047Y-87754819D01*
X243104047Y-87754819D02*
X243199285Y-87707200D01*
X243199285Y-87707200D02*
X243246904Y-87659580D01*
X243246904Y-87659580D02*
X243294523Y-87564342D01*
X243294523Y-87564342D02*
X243294523Y-86754819D01*
X244199285Y-86754819D02*
X244008809Y-86754819D01*
X244008809Y-86754819D02*
X243913571Y-86802438D01*
X243913571Y-86802438D02*
X243865952Y-86850057D01*
X243865952Y-86850057D02*
X243770714Y-86992914D01*
X243770714Y-86992914D02*
X243723095Y-87183390D01*
X243723095Y-87183390D02*
X243723095Y-87564342D01*
X243723095Y-87564342D02*
X243770714Y-87659580D01*
X243770714Y-87659580D02*
X243818333Y-87707200D01*
X243818333Y-87707200D02*
X243913571Y-87754819D01*
X243913571Y-87754819D02*
X244104047Y-87754819D01*
X244104047Y-87754819D02*
X244199285Y-87707200D01*
X244199285Y-87707200D02*
X244246904Y-87659580D01*
X244246904Y-87659580D02*
X244294523Y-87564342D01*
X244294523Y-87564342D02*
X244294523Y-87326247D01*
X244294523Y-87326247D02*
X244246904Y-87231009D01*
X244246904Y-87231009D02*
X244199285Y-87183390D01*
X244199285Y-87183390D02*
X244104047Y-87135771D01*
X244104047Y-87135771D02*
X243913571Y-87135771D01*
X243913571Y-87135771D02*
X243818333Y-87183390D01*
X243818333Y-87183390D02*
X243770714Y-87231009D01*
X243770714Y-87231009D02*
X243723095Y-87326247D01*
X204428571Y-91231009D02*
X204095238Y-91231009D01*
X204095238Y-91754819D02*
X204095238Y-90754819D01*
X204095238Y-90754819D02*
X204571428Y-90754819D01*
X204952381Y-91754819D02*
X204952381Y-90754819D01*
X205428571Y-91754819D02*
X205428571Y-90754819D01*
X205428571Y-90754819D02*
X205666666Y-90754819D01*
X205666666Y-90754819D02*
X205809523Y-90802438D01*
X205809523Y-90802438D02*
X205904761Y-90897676D01*
X205904761Y-90897676D02*
X205952380Y-90992914D01*
X205952380Y-90992914D02*
X205999999Y-91183390D01*
X205999999Y-91183390D02*
X205999999Y-91326247D01*
X205999999Y-91326247D02*
X205952380Y-91516723D01*
X205952380Y-91516723D02*
X205904761Y-91611961D01*
X205904761Y-91611961D02*
X205809523Y-91707200D01*
X205809523Y-91707200D02*
X205666666Y-91754819D01*
X205666666Y-91754819D02*
X205428571Y-91754819D01*
X206380952Y-90850057D02*
X206428571Y-90802438D01*
X206428571Y-90802438D02*
X206523809Y-90754819D01*
X206523809Y-90754819D02*
X206761904Y-90754819D01*
X206761904Y-90754819D02*
X206857142Y-90802438D01*
X206857142Y-90802438D02*
X206904761Y-90850057D01*
X206904761Y-90850057D02*
X206952380Y-90945295D01*
X206952380Y-90945295D02*
X206952380Y-91040533D01*
X206952380Y-91040533D02*
X206904761Y-91183390D01*
X206904761Y-91183390D02*
X206333333Y-91754819D01*
X206333333Y-91754819D02*
X206952380Y-91754819D01*
X251428571Y-102981009D02*
X251095238Y-102981009D01*
X251095238Y-103504819D02*
X251095238Y-102504819D01*
X251095238Y-102504819D02*
X251571428Y-102504819D01*
X251952381Y-103504819D02*
X251952381Y-102504819D01*
X252428571Y-103504819D02*
X252428571Y-102504819D01*
X252428571Y-102504819D02*
X252666666Y-102504819D01*
X252666666Y-102504819D02*
X252809523Y-102552438D01*
X252809523Y-102552438D02*
X252904761Y-102647676D01*
X252904761Y-102647676D02*
X252952380Y-102742914D01*
X252952380Y-102742914D02*
X252999999Y-102933390D01*
X252999999Y-102933390D02*
X252999999Y-103076247D01*
X252999999Y-103076247D02*
X252952380Y-103266723D01*
X252952380Y-103266723D02*
X252904761Y-103361961D01*
X252904761Y-103361961D02*
X252809523Y-103457200D01*
X252809523Y-103457200D02*
X252666666Y-103504819D01*
X252666666Y-103504819D02*
X252428571Y-103504819D01*
X253904761Y-102504819D02*
X253428571Y-102504819D01*
X253428571Y-102504819D02*
X253380952Y-102981009D01*
X253380952Y-102981009D02*
X253428571Y-102933390D01*
X253428571Y-102933390D02*
X253523809Y-102885771D01*
X253523809Y-102885771D02*
X253761904Y-102885771D01*
X253761904Y-102885771D02*
X253857142Y-102933390D01*
X253857142Y-102933390D02*
X253904761Y-102981009D01*
X253904761Y-102981009D02*
X253952380Y-103076247D01*
X253952380Y-103076247D02*
X253952380Y-103314342D01*
X253952380Y-103314342D02*
X253904761Y-103409580D01*
X253904761Y-103409580D02*
X253857142Y-103457200D01*
X253857142Y-103457200D02*
X253761904Y-103504819D01*
X253761904Y-103504819D02*
X253523809Y-103504819D01*
X253523809Y-103504819D02*
X253428571Y-103457200D01*
X253428571Y-103457200D02*
X253380952Y-103409580D01*
X213304580Y-59416666D02*
X213352200Y-59464285D01*
X213352200Y-59464285D02*
X213399819Y-59607142D01*
X213399819Y-59607142D02*
X213399819Y-59702380D01*
X213399819Y-59702380D02*
X213352200Y-59845237D01*
X213352200Y-59845237D02*
X213256961Y-59940475D01*
X213256961Y-59940475D02*
X213161723Y-59988094D01*
X213161723Y-59988094D02*
X212971247Y-60035713D01*
X212971247Y-60035713D02*
X212828390Y-60035713D01*
X212828390Y-60035713D02*
X212637914Y-59988094D01*
X212637914Y-59988094D02*
X212542676Y-59940475D01*
X212542676Y-59940475D02*
X212447438Y-59845237D01*
X212447438Y-59845237D02*
X212399819Y-59702380D01*
X212399819Y-59702380D02*
X212399819Y-59607142D01*
X212399819Y-59607142D02*
X212447438Y-59464285D01*
X212447438Y-59464285D02*
X212495057Y-59416666D01*
X213399819Y-58940475D02*
X213399819Y-58749999D01*
X213399819Y-58749999D02*
X213352200Y-58654761D01*
X213352200Y-58654761D02*
X213304580Y-58607142D01*
X213304580Y-58607142D02*
X213161723Y-58511904D01*
X213161723Y-58511904D02*
X212971247Y-58464285D01*
X212971247Y-58464285D02*
X212590295Y-58464285D01*
X212590295Y-58464285D02*
X212495057Y-58511904D01*
X212495057Y-58511904D02*
X212447438Y-58559523D01*
X212447438Y-58559523D02*
X212399819Y-58654761D01*
X212399819Y-58654761D02*
X212399819Y-58845237D01*
X212399819Y-58845237D02*
X212447438Y-58940475D01*
X212447438Y-58940475D02*
X212495057Y-58988094D01*
X212495057Y-58988094D02*
X212590295Y-59035713D01*
X212590295Y-59035713D02*
X212828390Y-59035713D01*
X212828390Y-59035713D02*
X212923628Y-58988094D01*
X212923628Y-58988094D02*
X212971247Y-58940475D01*
X212971247Y-58940475D02*
X213018866Y-58845237D01*
X213018866Y-58845237D02*
X213018866Y-58654761D01*
X213018866Y-58654761D02*
X212971247Y-58559523D01*
X212971247Y-58559523D02*
X212923628Y-58511904D01*
X212923628Y-58511904D02*
X212828390Y-58464285D01*
X223183333Y-84329819D02*
X222850000Y-83853628D01*
X222611905Y-84329819D02*
X222611905Y-83329819D01*
X222611905Y-83329819D02*
X222992857Y-83329819D01*
X222992857Y-83329819D02*
X223088095Y-83377438D01*
X223088095Y-83377438D02*
X223135714Y-83425057D01*
X223135714Y-83425057D02*
X223183333Y-83520295D01*
X223183333Y-83520295D02*
X223183333Y-83663152D01*
X223183333Y-83663152D02*
X223135714Y-83758390D01*
X223135714Y-83758390D02*
X223088095Y-83806009D01*
X223088095Y-83806009D02*
X222992857Y-83853628D01*
X222992857Y-83853628D02*
X222611905Y-83853628D01*
X224040476Y-83663152D02*
X224040476Y-84329819D01*
X223802381Y-83282200D02*
X223564286Y-83996485D01*
X223564286Y-83996485D02*
X224183333Y-83996485D01*
X221016666Y-33659819D02*
X221016666Y-34374104D01*
X221016666Y-34374104D02*
X220969047Y-34516961D01*
X220969047Y-34516961D02*
X220873809Y-34612200D01*
X220873809Y-34612200D02*
X220730952Y-34659819D01*
X220730952Y-34659819D02*
X220635714Y-34659819D01*
X221635714Y-34088390D02*
X221540476Y-34040771D01*
X221540476Y-34040771D02*
X221492857Y-33993152D01*
X221492857Y-33993152D02*
X221445238Y-33897914D01*
X221445238Y-33897914D02*
X221445238Y-33850295D01*
X221445238Y-33850295D02*
X221492857Y-33755057D01*
X221492857Y-33755057D02*
X221540476Y-33707438D01*
X221540476Y-33707438D02*
X221635714Y-33659819D01*
X221635714Y-33659819D02*
X221826190Y-33659819D01*
X221826190Y-33659819D02*
X221921428Y-33707438D01*
X221921428Y-33707438D02*
X221969047Y-33755057D01*
X221969047Y-33755057D02*
X222016666Y-33850295D01*
X222016666Y-33850295D02*
X222016666Y-33897914D01*
X222016666Y-33897914D02*
X221969047Y-33993152D01*
X221969047Y-33993152D02*
X221921428Y-34040771D01*
X221921428Y-34040771D02*
X221826190Y-34088390D01*
X221826190Y-34088390D02*
X221635714Y-34088390D01*
X221635714Y-34088390D02*
X221540476Y-34136009D01*
X221540476Y-34136009D02*
X221492857Y-34183628D01*
X221492857Y-34183628D02*
X221445238Y-34278866D01*
X221445238Y-34278866D02*
X221445238Y-34469342D01*
X221445238Y-34469342D02*
X221492857Y-34564580D01*
X221492857Y-34564580D02*
X221540476Y-34612200D01*
X221540476Y-34612200D02*
X221635714Y-34659819D01*
X221635714Y-34659819D02*
X221826190Y-34659819D01*
X221826190Y-34659819D02*
X221921428Y-34612200D01*
X221921428Y-34612200D02*
X221969047Y-34564580D01*
X221969047Y-34564580D02*
X222016666Y-34469342D01*
X222016666Y-34469342D02*
X222016666Y-34278866D01*
X222016666Y-34278866D02*
X221969047Y-34183628D01*
X221969047Y-34183628D02*
X221921428Y-34136009D01*
X221921428Y-34136009D02*
X221826190Y-34088390D01*
X237818333Y-89429580D02*
X237770714Y-89477200D01*
X237770714Y-89477200D02*
X237627857Y-89524819D01*
X237627857Y-89524819D02*
X237532619Y-89524819D01*
X237532619Y-89524819D02*
X237389762Y-89477200D01*
X237389762Y-89477200D02*
X237294524Y-89381961D01*
X237294524Y-89381961D02*
X237246905Y-89286723D01*
X237246905Y-89286723D02*
X237199286Y-89096247D01*
X237199286Y-89096247D02*
X237199286Y-88953390D01*
X237199286Y-88953390D02*
X237246905Y-88762914D01*
X237246905Y-88762914D02*
X237294524Y-88667676D01*
X237294524Y-88667676D02*
X237389762Y-88572438D01*
X237389762Y-88572438D02*
X237532619Y-88524819D01*
X237532619Y-88524819D02*
X237627857Y-88524819D01*
X237627857Y-88524819D02*
X237770714Y-88572438D01*
X237770714Y-88572438D02*
X237818333Y-88620057D01*
X238770714Y-89524819D02*
X238199286Y-89524819D01*
X238485000Y-89524819D02*
X238485000Y-88524819D01*
X238485000Y-88524819D02*
X238389762Y-88667676D01*
X238389762Y-88667676D02*
X238294524Y-88762914D01*
X238294524Y-88762914D02*
X238199286Y-88810533D01*
X249629642Y-113204819D02*
X249296309Y-112728628D01*
X249058214Y-113204819D02*
X249058214Y-112204819D01*
X249058214Y-112204819D02*
X249439166Y-112204819D01*
X249439166Y-112204819D02*
X249534404Y-112252438D01*
X249534404Y-112252438D02*
X249582023Y-112300057D01*
X249582023Y-112300057D02*
X249629642Y-112395295D01*
X249629642Y-112395295D02*
X249629642Y-112538152D01*
X249629642Y-112538152D02*
X249582023Y-112633390D01*
X249582023Y-112633390D02*
X249534404Y-112681009D01*
X249534404Y-112681009D02*
X249439166Y-112728628D01*
X249439166Y-112728628D02*
X249058214Y-112728628D01*
X250010595Y-112300057D02*
X250058214Y-112252438D01*
X250058214Y-112252438D02*
X250153452Y-112204819D01*
X250153452Y-112204819D02*
X250391547Y-112204819D01*
X250391547Y-112204819D02*
X250486785Y-112252438D01*
X250486785Y-112252438D02*
X250534404Y-112300057D01*
X250534404Y-112300057D02*
X250582023Y-112395295D01*
X250582023Y-112395295D02*
X250582023Y-112490533D01*
X250582023Y-112490533D02*
X250534404Y-112633390D01*
X250534404Y-112633390D02*
X249962976Y-113204819D01*
X249962976Y-113204819D02*
X250582023Y-113204819D01*
X250962976Y-112300057D02*
X251010595Y-112252438D01*
X251010595Y-112252438D02*
X251105833Y-112204819D01*
X251105833Y-112204819D02*
X251343928Y-112204819D01*
X251343928Y-112204819D02*
X251439166Y-112252438D01*
X251439166Y-112252438D02*
X251486785Y-112300057D01*
X251486785Y-112300057D02*
X251534404Y-112395295D01*
X251534404Y-112395295D02*
X251534404Y-112490533D01*
X251534404Y-112490533D02*
X251486785Y-112633390D01*
X251486785Y-112633390D02*
X250915357Y-113204819D01*
X250915357Y-113204819D02*
X251534404Y-113204819D01*
X180190476Y-123454819D02*
X180190476Y-124169104D01*
X180190476Y-124169104D02*
X180142857Y-124311961D01*
X180142857Y-124311961D02*
X180047619Y-124407200D01*
X180047619Y-124407200D02*
X179904762Y-124454819D01*
X179904762Y-124454819D02*
X179809524Y-124454819D01*
X181190476Y-124454819D02*
X180619048Y-124454819D01*
X180904762Y-124454819D02*
X180904762Y-123454819D01*
X180904762Y-123454819D02*
X180809524Y-123597676D01*
X180809524Y-123597676D02*
X180714286Y-123692914D01*
X180714286Y-123692914D02*
X180619048Y-123740533D01*
X181523810Y-123454819D02*
X182190476Y-123454819D01*
X182190476Y-123454819D02*
X181761905Y-124454819D01*
X210333333Y-89524819D02*
X210000000Y-89048628D01*
X209761905Y-89524819D02*
X209761905Y-88524819D01*
X209761905Y-88524819D02*
X210142857Y-88524819D01*
X210142857Y-88524819D02*
X210238095Y-88572438D01*
X210238095Y-88572438D02*
X210285714Y-88620057D01*
X210285714Y-88620057D02*
X210333333Y-88715295D01*
X210333333Y-88715295D02*
X210333333Y-88858152D01*
X210333333Y-88858152D02*
X210285714Y-88953390D01*
X210285714Y-88953390D02*
X210238095Y-89001009D01*
X210238095Y-89001009D02*
X210142857Y-89048628D01*
X210142857Y-89048628D02*
X209761905Y-89048628D01*
X211238095Y-88524819D02*
X210761905Y-88524819D01*
X210761905Y-88524819D02*
X210714286Y-89001009D01*
X210714286Y-89001009D02*
X210761905Y-88953390D01*
X210761905Y-88953390D02*
X210857143Y-88905771D01*
X210857143Y-88905771D02*
X211095238Y-88905771D01*
X211095238Y-88905771D02*
X211190476Y-88953390D01*
X211190476Y-88953390D02*
X211238095Y-89001009D01*
X211238095Y-89001009D02*
X211285714Y-89096247D01*
X211285714Y-89096247D02*
X211285714Y-89334342D01*
X211285714Y-89334342D02*
X211238095Y-89429580D01*
X211238095Y-89429580D02*
X211190476Y-89477200D01*
X211190476Y-89477200D02*
X211095238Y-89524819D01*
X211095238Y-89524819D02*
X210857143Y-89524819D01*
X210857143Y-89524819D02*
X210761905Y-89477200D01*
X210761905Y-89477200D02*
X210714286Y-89429580D01*
X188857142Y-82384819D02*
X188523809Y-81908628D01*
X188285714Y-82384819D02*
X188285714Y-81384819D01*
X188285714Y-81384819D02*
X188666666Y-81384819D01*
X188666666Y-81384819D02*
X188761904Y-81432438D01*
X188761904Y-81432438D02*
X188809523Y-81480057D01*
X188809523Y-81480057D02*
X188857142Y-81575295D01*
X188857142Y-81575295D02*
X188857142Y-81718152D01*
X188857142Y-81718152D02*
X188809523Y-81813390D01*
X188809523Y-81813390D02*
X188761904Y-81861009D01*
X188761904Y-81861009D02*
X188666666Y-81908628D01*
X188666666Y-81908628D02*
X188285714Y-81908628D01*
X189238095Y-81480057D02*
X189285714Y-81432438D01*
X189285714Y-81432438D02*
X189380952Y-81384819D01*
X189380952Y-81384819D02*
X189619047Y-81384819D01*
X189619047Y-81384819D02*
X189714285Y-81432438D01*
X189714285Y-81432438D02*
X189761904Y-81480057D01*
X189761904Y-81480057D02*
X189809523Y-81575295D01*
X189809523Y-81575295D02*
X189809523Y-81670533D01*
X189809523Y-81670533D02*
X189761904Y-81813390D01*
X189761904Y-81813390D02*
X189190476Y-82384819D01*
X189190476Y-82384819D02*
X189809523Y-82384819D01*
X190428571Y-81384819D02*
X190523809Y-81384819D01*
X190523809Y-81384819D02*
X190619047Y-81432438D01*
X190619047Y-81432438D02*
X190666666Y-81480057D01*
X190666666Y-81480057D02*
X190714285Y-81575295D01*
X190714285Y-81575295D02*
X190761904Y-81765771D01*
X190761904Y-81765771D02*
X190761904Y-82003866D01*
X190761904Y-82003866D02*
X190714285Y-82194342D01*
X190714285Y-82194342D02*
X190666666Y-82289580D01*
X190666666Y-82289580D02*
X190619047Y-82337200D01*
X190619047Y-82337200D02*
X190523809Y-82384819D01*
X190523809Y-82384819D02*
X190428571Y-82384819D01*
X190428571Y-82384819D02*
X190333333Y-82337200D01*
X190333333Y-82337200D02*
X190285714Y-82289580D01*
X190285714Y-82289580D02*
X190238095Y-82194342D01*
X190238095Y-82194342D02*
X190190476Y-82003866D01*
X190190476Y-82003866D02*
X190190476Y-81765771D01*
X190190476Y-81765771D02*
X190238095Y-81575295D01*
X190238095Y-81575295D02*
X190285714Y-81480057D01*
X190285714Y-81480057D02*
X190333333Y-81432438D01*
X190333333Y-81432438D02*
X190428571Y-81384819D01*
X200357142Y-41704819D02*
X200023809Y-41228628D01*
X199785714Y-41704819D02*
X199785714Y-40704819D01*
X199785714Y-40704819D02*
X200166666Y-40704819D01*
X200166666Y-40704819D02*
X200261904Y-40752438D01*
X200261904Y-40752438D02*
X200309523Y-40800057D01*
X200309523Y-40800057D02*
X200357142Y-40895295D01*
X200357142Y-40895295D02*
X200357142Y-41038152D01*
X200357142Y-41038152D02*
X200309523Y-41133390D01*
X200309523Y-41133390D02*
X200261904Y-41181009D01*
X200261904Y-41181009D02*
X200166666Y-41228628D01*
X200166666Y-41228628D02*
X199785714Y-41228628D01*
X200738095Y-40800057D02*
X200785714Y-40752438D01*
X200785714Y-40752438D02*
X200880952Y-40704819D01*
X200880952Y-40704819D02*
X201119047Y-40704819D01*
X201119047Y-40704819D02*
X201214285Y-40752438D01*
X201214285Y-40752438D02*
X201261904Y-40800057D01*
X201261904Y-40800057D02*
X201309523Y-40895295D01*
X201309523Y-40895295D02*
X201309523Y-40990533D01*
X201309523Y-40990533D02*
X201261904Y-41133390D01*
X201261904Y-41133390D02*
X200690476Y-41704819D01*
X200690476Y-41704819D02*
X201309523Y-41704819D01*
X202166666Y-41038152D02*
X202166666Y-41704819D01*
X201928571Y-40657200D02*
X201690476Y-41371485D01*
X201690476Y-41371485D02*
X202309523Y-41371485D01*
X257454819Y-91983333D02*
X258169104Y-91983333D01*
X258169104Y-91983333D02*
X258311961Y-92030952D01*
X258311961Y-92030952D02*
X258407200Y-92126190D01*
X258407200Y-92126190D02*
X258454819Y-92269047D01*
X258454819Y-92269047D02*
X258454819Y-92364285D01*
X257788152Y-91078571D02*
X258454819Y-91078571D01*
X257407200Y-91316666D02*
X258121485Y-91554761D01*
X258121485Y-91554761D02*
X258121485Y-90935714D01*
X198357142Y-112429580D02*
X198309523Y-112477200D01*
X198309523Y-112477200D02*
X198166666Y-112524819D01*
X198166666Y-112524819D02*
X198071428Y-112524819D01*
X198071428Y-112524819D02*
X197928571Y-112477200D01*
X197928571Y-112477200D02*
X197833333Y-112381961D01*
X197833333Y-112381961D02*
X197785714Y-112286723D01*
X197785714Y-112286723D02*
X197738095Y-112096247D01*
X197738095Y-112096247D02*
X197738095Y-111953390D01*
X197738095Y-111953390D02*
X197785714Y-111762914D01*
X197785714Y-111762914D02*
X197833333Y-111667676D01*
X197833333Y-111667676D02*
X197928571Y-111572438D01*
X197928571Y-111572438D02*
X198071428Y-111524819D01*
X198071428Y-111524819D02*
X198166666Y-111524819D01*
X198166666Y-111524819D02*
X198309523Y-111572438D01*
X198309523Y-111572438D02*
X198357142Y-111620057D01*
X199309523Y-112524819D02*
X198738095Y-112524819D01*
X199023809Y-112524819D02*
X199023809Y-111524819D01*
X199023809Y-111524819D02*
X198928571Y-111667676D01*
X198928571Y-111667676D02*
X198833333Y-111762914D01*
X198833333Y-111762914D02*
X198738095Y-111810533D01*
X199642857Y-111524819D02*
X200309523Y-111524819D01*
X200309523Y-111524819D02*
X199880952Y-112524819D01*
X234876905Y-57484819D02*
X234876905Y-56484819D01*
X234876905Y-56484819D02*
X235115000Y-56484819D01*
X235115000Y-56484819D02*
X235257857Y-56532438D01*
X235257857Y-56532438D02*
X235353095Y-56627676D01*
X235353095Y-56627676D02*
X235400714Y-56722914D01*
X235400714Y-56722914D02*
X235448333Y-56913390D01*
X235448333Y-56913390D02*
X235448333Y-57056247D01*
X235448333Y-57056247D02*
X235400714Y-57246723D01*
X235400714Y-57246723D02*
X235353095Y-57341961D01*
X235353095Y-57341961D02*
X235257857Y-57437200D01*
X235257857Y-57437200D02*
X235115000Y-57484819D01*
X235115000Y-57484819D02*
X234876905Y-57484819D01*
X236305476Y-56818152D02*
X236305476Y-57484819D01*
X236067381Y-56437200D02*
X235829286Y-57151485D01*
X235829286Y-57151485D02*
X236448333Y-57151485D01*
X227733095Y-58604819D02*
X227733095Y-57604819D01*
X228304523Y-58604819D02*
X227875952Y-58033390D01*
X228304523Y-57604819D02*
X227733095Y-58176247D01*
X249592142Y-107874819D02*
X249258809Y-107398628D01*
X249020714Y-107874819D02*
X249020714Y-106874819D01*
X249020714Y-106874819D02*
X249401666Y-106874819D01*
X249401666Y-106874819D02*
X249496904Y-106922438D01*
X249496904Y-106922438D02*
X249544523Y-106970057D01*
X249544523Y-106970057D02*
X249592142Y-107065295D01*
X249592142Y-107065295D02*
X249592142Y-107208152D01*
X249592142Y-107208152D02*
X249544523Y-107303390D01*
X249544523Y-107303390D02*
X249496904Y-107351009D01*
X249496904Y-107351009D02*
X249401666Y-107398628D01*
X249401666Y-107398628D02*
X249020714Y-107398628D01*
X250544523Y-107874819D02*
X249973095Y-107874819D01*
X250258809Y-107874819D02*
X250258809Y-106874819D01*
X250258809Y-106874819D02*
X250163571Y-107017676D01*
X250163571Y-107017676D02*
X250068333Y-107112914D01*
X250068333Y-107112914D02*
X249973095Y-107160533D01*
X251401666Y-107208152D02*
X251401666Y-107874819D01*
X251163571Y-106827200D02*
X250925476Y-107541485D01*
X250925476Y-107541485D02*
X251544523Y-107541485D01*
X219428571Y-73481009D02*
X219095238Y-73481009D01*
X219095238Y-74004819D02*
X219095238Y-73004819D01*
X219095238Y-73004819D02*
X219571428Y-73004819D01*
X219952381Y-74004819D02*
X219952381Y-73004819D01*
X220428571Y-74004819D02*
X220428571Y-73004819D01*
X220428571Y-73004819D02*
X220666666Y-73004819D01*
X220666666Y-73004819D02*
X220809523Y-73052438D01*
X220809523Y-73052438D02*
X220904761Y-73147676D01*
X220904761Y-73147676D02*
X220952380Y-73242914D01*
X220952380Y-73242914D02*
X220999999Y-73433390D01*
X220999999Y-73433390D02*
X220999999Y-73576247D01*
X220999999Y-73576247D02*
X220952380Y-73766723D01*
X220952380Y-73766723D02*
X220904761Y-73861961D01*
X220904761Y-73861961D02*
X220809523Y-73957200D01*
X220809523Y-73957200D02*
X220666666Y-74004819D01*
X220666666Y-74004819D02*
X220428571Y-74004819D01*
X221571428Y-73433390D02*
X221476190Y-73385771D01*
X221476190Y-73385771D02*
X221428571Y-73338152D01*
X221428571Y-73338152D02*
X221380952Y-73242914D01*
X221380952Y-73242914D02*
X221380952Y-73195295D01*
X221380952Y-73195295D02*
X221428571Y-73100057D01*
X221428571Y-73100057D02*
X221476190Y-73052438D01*
X221476190Y-73052438D02*
X221571428Y-73004819D01*
X221571428Y-73004819D02*
X221761904Y-73004819D01*
X221761904Y-73004819D02*
X221857142Y-73052438D01*
X221857142Y-73052438D02*
X221904761Y-73100057D01*
X221904761Y-73100057D02*
X221952380Y-73195295D01*
X221952380Y-73195295D02*
X221952380Y-73242914D01*
X221952380Y-73242914D02*
X221904761Y-73338152D01*
X221904761Y-73338152D02*
X221857142Y-73385771D01*
X221857142Y-73385771D02*
X221761904Y-73433390D01*
X221761904Y-73433390D02*
X221571428Y-73433390D01*
X221571428Y-73433390D02*
X221476190Y-73481009D01*
X221476190Y-73481009D02*
X221428571Y-73528628D01*
X221428571Y-73528628D02*
X221380952Y-73623866D01*
X221380952Y-73623866D02*
X221380952Y-73814342D01*
X221380952Y-73814342D02*
X221428571Y-73909580D01*
X221428571Y-73909580D02*
X221476190Y-73957200D01*
X221476190Y-73957200D02*
X221571428Y-74004819D01*
X221571428Y-74004819D02*
X221761904Y-74004819D01*
X221761904Y-74004819D02*
X221857142Y-73957200D01*
X221857142Y-73957200D02*
X221904761Y-73909580D01*
X221904761Y-73909580D02*
X221952380Y-73814342D01*
X221952380Y-73814342D02*
X221952380Y-73623866D01*
X221952380Y-73623866D02*
X221904761Y-73528628D01*
X221904761Y-73528628D02*
X221857142Y-73481009D01*
X221857142Y-73481009D02*
X221761904Y-73433390D01*
X204384819Y-99142857D02*
X203908628Y-99476190D01*
X204384819Y-99714285D02*
X203384819Y-99714285D01*
X203384819Y-99714285D02*
X203384819Y-99333333D01*
X203384819Y-99333333D02*
X203432438Y-99238095D01*
X203432438Y-99238095D02*
X203480057Y-99190476D01*
X203480057Y-99190476D02*
X203575295Y-99142857D01*
X203575295Y-99142857D02*
X203718152Y-99142857D01*
X203718152Y-99142857D02*
X203813390Y-99190476D01*
X203813390Y-99190476D02*
X203861009Y-99238095D01*
X203861009Y-99238095D02*
X203908628Y-99333333D01*
X203908628Y-99333333D02*
X203908628Y-99714285D01*
X204384819Y-98190476D02*
X204384819Y-98761904D01*
X204384819Y-98476190D02*
X203384819Y-98476190D01*
X203384819Y-98476190D02*
X203527676Y-98571428D01*
X203527676Y-98571428D02*
X203622914Y-98666666D01*
X203622914Y-98666666D02*
X203670533Y-98761904D01*
X203480057Y-97809523D02*
X203432438Y-97761904D01*
X203432438Y-97761904D02*
X203384819Y-97666666D01*
X203384819Y-97666666D02*
X203384819Y-97428571D01*
X203384819Y-97428571D02*
X203432438Y-97333333D01*
X203432438Y-97333333D02*
X203480057Y-97285714D01*
X203480057Y-97285714D02*
X203575295Y-97238095D01*
X203575295Y-97238095D02*
X203670533Y-97238095D01*
X203670533Y-97238095D02*
X203813390Y-97285714D01*
X203813390Y-97285714D02*
X204384819Y-97857142D01*
X204384819Y-97857142D02*
X204384819Y-97238095D01*
X226807142Y-85049819D02*
X226473809Y-84573628D01*
X226235714Y-85049819D02*
X226235714Y-84049819D01*
X226235714Y-84049819D02*
X226616666Y-84049819D01*
X226616666Y-84049819D02*
X226711904Y-84097438D01*
X226711904Y-84097438D02*
X226759523Y-84145057D01*
X226759523Y-84145057D02*
X226807142Y-84240295D01*
X226807142Y-84240295D02*
X226807142Y-84383152D01*
X226807142Y-84383152D02*
X226759523Y-84478390D01*
X226759523Y-84478390D02*
X226711904Y-84526009D01*
X226711904Y-84526009D02*
X226616666Y-84573628D01*
X226616666Y-84573628D02*
X226235714Y-84573628D01*
X227759523Y-85049819D02*
X227188095Y-85049819D01*
X227473809Y-85049819D02*
X227473809Y-84049819D01*
X227473809Y-84049819D02*
X227378571Y-84192676D01*
X227378571Y-84192676D02*
X227283333Y-84287914D01*
X227283333Y-84287914D02*
X227188095Y-84335533D01*
X228378571Y-84049819D02*
X228473809Y-84049819D01*
X228473809Y-84049819D02*
X228569047Y-84097438D01*
X228569047Y-84097438D02*
X228616666Y-84145057D01*
X228616666Y-84145057D02*
X228664285Y-84240295D01*
X228664285Y-84240295D02*
X228711904Y-84430771D01*
X228711904Y-84430771D02*
X228711904Y-84668866D01*
X228711904Y-84668866D02*
X228664285Y-84859342D01*
X228664285Y-84859342D02*
X228616666Y-84954580D01*
X228616666Y-84954580D02*
X228569047Y-85002200D01*
X228569047Y-85002200D02*
X228473809Y-85049819D01*
X228473809Y-85049819D02*
X228378571Y-85049819D01*
X228378571Y-85049819D02*
X228283333Y-85002200D01*
X228283333Y-85002200D02*
X228235714Y-84954580D01*
X228235714Y-84954580D02*
X228188095Y-84859342D01*
X228188095Y-84859342D02*
X228140476Y-84668866D01*
X228140476Y-84668866D02*
X228140476Y-84430771D01*
X228140476Y-84430771D02*
X228188095Y-84240295D01*
X228188095Y-84240295D02*
X228235714Y-84145057D01*
X228235714Y-84145057D02*
X228283333Y-84097438D01*
X228283333Y-84097438D02*
X228378571Y-84049819D01*
X215988095Y-93454819D02*
X215988095Y-94264342D01*
X215988095Y-94264342D02*
X216035714Y-94359580D01*
X216035714Y-94359580D02*
X216083333Y-94407200D01*
X216083333Y-94407200D02*
X216178571Y-94454819D01*
X216178571Y-94454819D02*
X216369047Y-94454819D01*
X216369047Y-94454819D02*
X216464285Y-94407200D01*
X216464285Y-94407200D02*
X216511904Y-94359580D01*
X216511904Y-94359580D02*
X216559523Y-94264342D01*
X216559523Y-94264342D02*
X216559523Y-93454819D01*
X217559523Y-94454819D02*
X216988095Y-94454819D01*
X217273809Y-94454819D02*
X217273809Y-93454819D01*
X217273809Y-93454819D02*
X217178571Y-93597676D01*
X217178571Y-93597676D02*
X217083333Y-93692914D01*
X217083333Y-93692914D02*
X216988095Y-93740533D01*
X196124819Y-47015713D02*
X196124819Y-46444285D01*
X197124819Y-46729999D02*
X196124819Y-46729999D01*
X197124819Y-46110951D02*
X196124819Y-46110951D01*
X196601009Y-46110951D02*
X196601009Y-45539523D01*
X197124819Y-45539523D02*
X196124819Y-45539523D01*
X197124819Y-44539523D02*
X197124819Y-45110951D01*
X197124819Y-44825237D02*
X196124819Y-44825237D01*
X196124819Y-44825237D02*
X196267676Y-44920475D01*
X196267676Y-44920475D02*
X196362914Y-45015713D01*
X196362914Y-45015713D02*
X196410533Y-45110951D01*
X213304580Y-63392857D02*
X213352200Y-63440476D01*
X213352200Y-63440476D02*
X213399819Y-63583333D01*
X213399819Y-63583333D02*
X213399819Y-63678571D01*
X213399819Y-63678571D02*
X213352200Y-63821428D01*
X213352200Y-63821428D02*
X213256961Y-63916666D01*
X213256961Y-63916666D02*
X213161723Y-63964285D01*
X213161723Y-63964285D02*
X212971247Y-64011904D01*
X212971247Y-64011904D02*
X212828390Y-64011904D01*
X212828390Y-64011904D02*
X212637914Y-63964285D01*
X212637914Y-63964285D02*
X212542676Y-63916666D01*
X212542676Y-63916666D02*
X212447438Y-63821428D01*
X212447438Y-63821428D02*
X212399819Y-63678571D01*
X212399819Y-63678571D02*
X212399819Y-63583333D01*
X212399819Y-63583333D02*
X212447438Y-63440476D01*
X212447438Y-63440476D02*
X212495057Y-63392857D01*
X213399819Y-62440476D02*
X213399819Y-63011904D01*
X213399819Y-62726190D02*
X212399819Y-62726190D01*
X212399819Y-62726190D02*
X212542676Y-62821428D01*
X212542676Y-62821428D02*
X212637914Y-62916666D01*
X212637914Y-62916666D02*
X212685533Y-63011904D01*
X212399819Y-61821428D02*
X212399819Y-61726190D01*
X212399819Y-61726190D02*
X212447438Y-61630952D01*
X212447438Y-61630952D02*
X212495057Y-61583333D01*
X212495057Y-61583333D02*
X212590295Y-61535714D01*
X212590295Y-61535714D02*
X212780771Y-61488095D01*
X212780771Y-61488095D02*
X213018866Y-61488095D01*
X213018866Y-61488095D02*
X213209342Y-61535714D01*
X213209342Y-61535714D02*
X213304580Y-61583333D01*
X213304580Y-61583333D02*
X213352200Y-61630952D01*
X213352200Y-61630952D02*
X213399819Y-61726190D01*
X213399819Y-61726190D02*
X213399819Y-61821428D01*
X213399819Y-61821428D02*
X213352200Y-61916666D01*
X213352200Y-61916666D02*
X213304580Y-61964285D01*
X213304580Y-61964285D02*
X213209342Y-62011904D01*
X213209342Y-62011904D02*
X213018866Y-62059523D01*
X213018866Y-62059523D02*
X212780771Y-62059523D01*
X212780771Y-62059523D02*
X212590295Y-62011904D01*
X212590295Y-62011904D02*
X212495057Y-61964285D01*
X212495057Y-61964285D02*
X212447438Y-61916666D01*
X212447438Y-61916666D02*
X212399819Y-61821428D01*
X249592142Y-98874819D02*
X249258809Y-98398628D01*
X249020714Y-98874819D02*
X249020714Y-97874819D01*
X249020714Y-97874819D02*
X249401666Y-97874819D01*
X249401666Y-97874819D02*
X249496904Y-97922438D01*
X249496904Y-97922438D02*
X249544523Y-97970057D01*
X249544523Y-97970057D02*
X249592142Y-98065295D01*
X249592142Y-98065295D02*
X249592142Y-98208152D01*
X249592142Y-98208152D02*
X249544523Y-98303390D01*
X249544523Y-98303390D02*
X249496904Y-98351009D01*
X249496904Y-98351009D02*
X249401666Y-98398628D01*
X249401666Y-98398628D02*
X249020714Y-98398628D01*
X249973095Y-97970057D02*
X250020714Y-97922438D01*
X250020714Y-97922438D02*
X250115952Y-97874819D01*
X250115952Y-97874819D02*
X250354047Y-97874819D01*
X250354047Y-97874819D02*
X250449285Y-97922438D01*
X250449285Y-97922438D02*
X250496904Y-97970057D01*
X250496904Y-97970057D02*
X250544523Y-98065295D01*
X250544523Y-98065295D02*
X250544523Y-98160533D01*
X250544523Y-98160533D02*
X250496904Y-98303390D01*
X250496904Y-98303390D02*
X249925476Y-98874819D01*
X249925476Y-98874819D02*
X250544523Y-98874819D01*
X250877857Y-97874819D02*
X251496904Y-97874819D01*
X251496904Y-97874819D02*
X251163571Y-98255771D01*
X251163571Y-98255771D02*
X251306428Y-98255771D01*
X251306428Y-98255771D02*
X251401666Y-98303390D01*
X251401666Y-98303390D02*
X251449285Y-98351009D01*
X251449285Y-98351009D02*
X251496904Y-98446247D01*
X251496904Y-98446247D02*
X251496904Y-98684342D01*
X251496904Y-98684342D02*
X251449285Y-98779580D01*
X251449285Y-98779580D02*
X251401666Y-98827200D01*
X251401666Y-98827200D02*
X251306428Y-98874819D01*
X251306428Y-98874819D02*
X251020714Y-98874819D01*
X251020714Y-98874819D02*
X250925476Y-98827200D01*
X250925476Y-98827200D02*
X250877857Y-98779580D01*
X257522319Y-118773333D02*
X258236604Y-118773333D01*
X258236604Y-118773333D02*
X258379461Y-118820952D01*
X258379461Y-118820952D02*
X258474700Y-118916190D01*
X258474700Y-118916190D02*
X258522319Y-119059047D01*
X258522319Y-119059047D02*
X258522319Y-119154285D01*
X257522319Y-117868571D02*
X257522319Y-118059047D01*
X257522319Y-118059047D02*
X257569938Y-118154285D01*
X257569938Y-118154285D02*
X257617557Y-118201904D01*
X257617557Y-118201904D02*
X257760414Y-118297142D01*
X257760414Y-118297142D02*
X257950890Y-118344761D01*
X257950890Y-118344761D02*
X258331842Y-118344761D01*
X258331842Y-118344761D02*
X258427080Y-118297142D01*
X258427080Y-118297142D02*
X258474700Y-118249523D01*
X258474700Y-118249523D02*
X258522319Y-118154285D01*
X258522319Y-118154285D02*
X258522319Y-117963809D01*
X258522319Y-117963809D02*
X258474700Y-117868571D01*
X258474700Y-117868571D02*
X258427080Y-117820952D01*
X258427080Y-117820952D02*
X258331842Y-117773333D01*
X258331842Y-117773333D02*
X258093747Y-117773333D01*
X258093747Y-117773333D02*
X257998509Y-117820952D01*
X257998509Y-117820952D02*
X257950890Y-117868571D01*
X257950890Y-117868571D02*
X257903271Y-117963809D01*
X257903271Y-117963809D02*
X257903271Y-118154285D01*
X257903271Y-118154285D02*
X257950890Y-118249523D01*
X257950890Y-118249523D02*
X257998509Y-118297142D01*
X257998509Y-118297142D02*
X258093747Y-118344761D01*
X221333333Y-69659580D02*
X221285714Y-69707200D01*
X221285714Y-69707200D02*
X221142857Y-69754819D01*
X221142857Y-69754819D02*
X221047619Y-69754819D01*
X221047619Y-69754819D02*
X220904762Y-69707200D01*
X220904762Y-69707200D02*
X220809524Y-69611961D01*
X220809524Y-69611961D02*
X220761905Y-69516723D01*
X220761905Y-69516723D02*
X220714286Y-69326247D01*
X220714286Y-69326247D02*
X220714286Y-69183390D01*
X220714286Y-69183390D02*
X220761905Y-68992914D01*
X220761905Y-68992914D02*
X220809524Y-68897676D01*
X220809524Y-68897676D02*
X220904762Y-68802438D01*
X220904762Y-68802438D02*
X221047619Y-68754819D01*
X221047619Y-68754819D02*
X221142857Y-68754819D01*
X221142857Y-68754819D02*
X221285714Y-68802438D01*
X221285714Y-68802438D02*
X221333333Y-68850057D01*
X221904762Y-69183390D02*
X221809524Y-69135771D01*
X221809524Y-69135771D02*
X221761905Y-69088152D01*
X221761905Y-69088152D02*
X221714286Y-68992914D01*
X221714286Y-68992914D02*
X221714286Y-68945295D01*
X221714286Y-68945295D02*
X221761905Y-68850057D01*
X221761905Y-68850057D02*
X221809524Y-68802438D01*
X221809524Y-68802438D02*
X221904762Y-68754819D01*
X221904762Y-68754819D02*
X222095238Y-68754819D01*
X222095238Y-68754819D02*
X222190476Y-68802438D01*
X222190476Y-68802438D02*
X222238095Y-68850057D01*
X222238095Y-68850057D02*
X222285714Y-68945295D01*
X222285714Y-68945295D02*
X222285714Y-68992914D01*
X222285714Y-68992914D02*
X222238095Y-69088152D01*
X222238095Y-69088152D02*
X222190476Y-69135771D01*
X222190476Y-69135771D02*
X222095238Y-69183390D01*
X222095238Y-69183390D02*
X221904762Y-69183390D01*
X221904762Y-69183390D02*
X221809524Y-69231009D01*
X221809524Y-69231009D02*
X221761905Y-69278628D01*
X221761905Y-69278628D02*
X221714286Y-69373866D01*
X221714286Y-69373866D02*
X221714286Y-69564342D01*
X221714286Y-69564342D02*
X221761905Y-69659580D01*
X221761905Y-69659580D02*
X221809524Y-69707200D01*
X221809524Y-69707200D02*
X221904762Y-69754819D01*
X221904762Y-69754819D02*
X222095238Y-69754819D01*
X222095238Y-69754819D02*
X222190476Y-69707200D01*
X222190476Y-69707200D02*
X222238095Y-69659580D01*
X222238095Y-69659580D02*
X222285714Y-69564342D01*
X222285714Y-69564342D02*
X222285714Y-69373866D01*
X222285714Y-69373866D02*
X222238095Y-69278628D01*
X222238095Y-69278628D02*
X222190476Y-69231009D01*
X222190476Y-69231009D02*
X222095238Y-69183390D01*
X237592142Y-114179580D02*
X237544523Y-114227200D01*
X237544523Y-114227200D02*
X237401666Y-114274819D01*
X237401666Y-114274819D02*
X237306428Y-114274819D01*
X237306428Y-114274819D02*
X237163571Y-114227200D01*
X237163571Y-114227200D02*
X237068333Y-114131961D01*
X237068333Y-114131961D02*
X237020714Y-114036723D01*
X237020714Y-114036723D02*
X236973095Y-113846247D01*
X236973095Y-113846247D02*
X236973095Y-113703390D01*
X236973095Y-113703390D02*
X237020714Y-113512914D01*
X237020714Y-113512914D02*
X237068333Y-113417676D01*
X237068333Y-113417676D02*
X237163571Y-113322438D01*
X237163571Y-113322438D02*
X237306428Y-113274819D01*
X237306428Y-113274819D02*
X237401666Y-113274819D01*
X237401666Y-113274819D02*
X237544523Y-113322438D01*
X237544523Y-113322438D02*
X237592142Y-113370057D01*
X238544523Y-114274819D02*
X237973095Y-114274819D01*
X238258809Y-114274819D02*
X238258809Y-113274819D01*
X238258809Y-113274819D02*
X238163571Y-113417676D01*
X238163571Y-113417676D02*
X238068333Y-113512914D01*
X238068333Y-113512914D02*
X237973095Y-113560533D01*
X238925476Y-113370057D02*
X238973095Y-113322438D01*
X238973095Y-113322438D02*
X239068333Y-113274819D01*
X239068333Y-113274819D02*
X239306428Y-113274819D01*
X239306428Y-113274819D02*
X239401666Y-113322438D01*
X239401666Y-113322438D02*
X239449285Y-113370057D01*
X239449285Y-113370057D02*
X239496904Y-113465295D01*
X239496904Y-113465295D02*
X239496904Y-113560533D01*
X239496904Y-113560533D02*
X239449285Y-113703390D01*
X239449285Y-113703390D02*
X238877857Y-114274819D01*
X238877857Y-114274819D02*
X239496904Y-114274819D01*
X227859580Y-70642857D02*
X227907200Y-70690476D01*
X227907200Y-70690476D02*
X227954819Y-70833333D01*
X227954819Y-70833333D02*
X227954819Y-70928571D01*
X227954819Y-70928571D02*
X227907200Y-71071428D01*
X227907200Y-71071428D02*
X227811961Y-71166666D01*
X227811961Y-71166666D02*
X227716723Y-71214285D01*
X227716723Y-71214285D02*
X227526247Y-71261904D01*
X227526247Y-71261904D02*
X227383390Y-71261904D01*
X227383390Y-71261904D02*
X227192914Y-71214285D01*
X227192914Y-71214285D02*
X227097676Y-71166666D01*
X227097676Y-71166666D02*
X227002438Y-71071428D01*
X227002438Y-71071428D02*
X226954819Y-70928571D01*
X226954819Y-70928571D02*
X226954819Y-70833333D01*
X226954819Y-70833333D02*
X227002438Y-70690476D01*
X227002438Y-70690476D02*
X227050057Y-70642857D01*
X227954819Y-69690476D02*
X227954819Y-70261904D01*
X227954819Y-69976190D02*
X226954819Y-69976190D01*
X226954819Y-69976190D02*
X227097676Y-70071428D01*
X227097676Y-70071428D02*
X227192914Y-70166666D01*
X227192914Y-70166666D02*
X227240533Y-70261904D01*
X227954819Y-69214285D02*
X227954819Y-69023809D01*
X227954819Y-69023809D02*
X227907200Y-68928571D01*
X227907200Y-68928571D02*
X227859580Y-68880952D01*
X227859580Y-68880952D02*
X227716723Y-68785714D01*
X227716723Y-68785714D02*
X227526247Y-68738095D01*
X227526247Y-68738095D02*
X227145295Y-68738095D01*
X227145295Y-68738095D02*
X227050057Y-68785714D01*
X227050057Y-68785714D02*
X227002438Y-68833333D01*
X227002438Y-68833333D02*
X226954819Y-68928571D01*
X226954819Y-68928571D02*
X226954819Y-69119047D01*
X226954819Y-69119047D02*
X227002438Y-69214285D01*
X227002438Y-69214285D02*
X227050057Y-69261904D01*
X227050057Y-69261904D02*
X227145295Y-69309523D01*
X227145295Y-69309523D02*
X227383390Y-69309523D01*
X227383390Y-69309523D02*
X227478628Y-69261904D01*
X227478628Y-69261904D02*
X227526247Y-69214285D01*
X227526247Y-69214285D02*
X227573866Y-69119047D01*
X227573866Y-69119047D02*
X227573866Y-68928571D01*
X227573866Y-68928571D02*
X227526247Y-68833333D01*
X227526247Y-68833333D02*
X227478628Y-68785714D01*
X227478628Y-68785714D02*
X227383390Y-68738095D01*
X233928571Y-91731009D02*
X233595238Y-91731009D01*
X233595238Y-92254819D02*
X233595238Y-91254819D01*
X233595238Y-91254819D02*
X234071428Y-91254819D01*
X234452381Y-92254819D02*
X234452381Y-91254819D01*
X234928571Y-92254819D02*
X234928571Y-91254819D01*
X234928571Y-91254819D02*
X235166666Y-91254819D01*
X235166666Y-91254819D02*
X235309523Y-91302438D01*
X235309523Y-91302438D02*
X235404761Y-91397676D01*
X235404761Y-91397676D02*
X235452380Y-91492914D01*
X235452380Y-91492914D02*
X235499999Y-91683390D01*
X235499999Y-91683390D02*
X235499999Y-91826247D01*
X235499999Y-91826247D02*
X235452380Y-92016723D01*
X235452380Y-92016723D02*
X235404761Y-92111961D01*
X235404761Y-92111961D02*
X235309523Y-92207200D01*
X235309523Y-92207200D02*
X235166666Y-92254819D01*
X235166666Y-92254819D02*
X234928571Y-92254819D01*
X235833333Y-91254819D02*
X236499999Y-91254819D01*
X236499999Y-91254819D02*
X236071428Y-92254819D01*
X237914580Y-86666666D02*
X237962200Y-86714285D01*
X237962200Y-86714285D02*
X238009819Y-86857142D01*
X238009819Y-86857142D02*
X238009819Y-86952380D01*
X238009819Y-86952380D02*
X237962200Y-87095237D01*
X237962200Y-87095237D02*
X237866961Y-87190475D01*
X237866961Y-87190475D02*
X237771723Y-87238094D01*
X237771723Y-87238094D02*
X237581247Y-87285713D01*
X237581247Y-87285713D02*
X237438390Y-87285713D01*
X237438390Y-87285713D02*
X237247914Y-87238094D01*
X237247914Y-87238094D02*
X237152676Y-87190475D01*
X237152676Y-87190475D02*
X237057438Y-87095237D01*
X237057438Y-87095237D02*
X237009819Y-86952380D01*
X237009819Y-86952380D02*
X237009819Y-86857142D01*
X237009819Y-86857142D02*
X237057438Y-86714285D01*
X237057438Y-86714285D02*
X237105057Y-86666666D01*
X237343152Y-85809523D02*
X238009819Y-85809523D01*
X236962200Y-86047618D02*
X237676485Y-86285713D01*
X237676485Y-86285713D02*
X237676485Y-85666666D01*
X242723095Y-82154819D02*
X242723095Y-82964342D01*
X242723095Y-82964342D02*
X242770714Y-83059580D01*
X242770714Y-83059580D02*
X242818333Y-83107200D01*
X242818333Y-83107200D02*
X242913571Y-83154819D01*
X242913571Y-83154819D02*
X243104047Y-83154819D01*
X243104047Y-83154819D02*
X243199285Y-83107200D01*
X243199285Y-83107200D02*
X243246904Y-83059580D01*
X243246904Y-83059580D02*
X243294523Y-82964342D01*
X243294523Y-82964342D02*
X243294523Y-82154819D01*
X243675476Y-82154819D02*
X244294523Y-82154819D01*
X244294523Y-82154819D02*
X243961190Y-82535771D01*
X243961190Y-82535771D02*
X244104047Y-82535771D01*
X244104047Y-82535771D02*
X244199285Y-82583390D01*
X244199285Y-82583390D02*
X244246904Y-82631009D01*
X244246904Y-82631009D02*
X244294523Y-82726247D01*
X244294523Y-82726247D02*
X244294523Y-82964342D01*
X244294523Y-82964342D02*
X244246904Y-83059580D01*
X244246904Y-83059580D02*
X244199285Y-83107200D01*
X244199285Y-83107200D02*
X244104047Y-83154819D01*
X244104047Y-83154819D02*
X243818333Y-83154819D01*
X243818333Y-83154819D02*
X243723095Y-83107200D01*
X243723095Y-83107200D02*
X243675476Y-83059580D01*
X218261905Y-108954819D02*
X218261905Y-107954819D01*
X218261905Y-107954819D02*
X218500000Y-107954819D01*
X218500000Y-107954819D02*
X218642857Y-108002438D01*
X218642857Y-108002438D02*
X218738095Y-108097676D01*
X218738095Y-108097676D02*
X218785714Y-108192914D01*
X218785714Y-108192914D02*
X218833333Y-108383390D01*
X218833333Y-108383390D02*
X218833333Y-108526247D01*
X218833333Y-108526247D02*
X218785714Y-108716723D01*
X218785714Y-108716723D02*
X218738095Y-108811961D01*
X218738095Y-108811961D02*
X218642857Y-108907200D01*
X218642857Y-108907200D02*
X218500000Y-108954819D01*
X218500000Y-108954819D02*
X218261905Y-108954819D01*
X219214286Y-108050057D02*
X219261905Y-108002438D01*
X219261905Y-108002438D02*
X219357143Y-107954819D01*
X219357143Y-107954819D02*
X219595238Y-107954819D01*
X219595238Y-107954819D02*
X219690476Y-108002438D01*
X219690476Y-108002438D02*
X219738095Y-108050057D01*
X219738095Y-108050057D02*
X219785714Y-108145295D01*
X219785714Y-108145295D02*
X219785714Y-108240533D01*
X219785714Y-108240533D02*
X219738095Y-108383390D01*
X219738095Y-108383390D02*
X219166667Y-108954819D01*
X219166667Y-108954819D02*
X219785714Y-108954819D01*
X205429580Y-48392857D02*
X205477200Y-48440476D01*
X205477200Y-48440476D02*
X205524819Y-48583333D01*
X205524819Y-48583333D02*
X205524819Y-48678571D01*
X205524819Y-48678571D02*
X205477200Y-48821428D01*
X205477200Y-48821428D02*
X205381961Y-48916666D01*
X205381961Y-48916666D02*
X205286723Y-48964285D01*
X205286723Y-48964285D02*
X205096247Y-49011904D01*
X205096247Y-49011904D02*
X204953390Y-49011904D01*
X204953390Y-49011904D02*
X204762914Y-48964285D01*
X204762914Y-48964285D02*
X204667676Y-48916666D01*
X204667676Y-48916666D02*
X204572438Y-48821428D01*
X204572438Y-48821428D02*
X204524819Y-48678571D01*
X204524819Y-48678571D02*
X204524819Y-48583333D01*
X204524819Y-48583333D02*
X204572438Y-48440476D01*
X204572438Y-48440476D02*
X204620057Y-48392857D01*
X205524819Y-47440476D02*
X205524819Y-48011904D01*
X205524819Y-47726190D02*
X204524819Y-47726190D01*
X204524819Y-47726190D02*
X204667676Y-47821428D01*
X204667676Y-47821428D02*
X204762914Y-47916666D01*
X204762914Y-47916666D02*
X204810533Y-48011904D01*
X204953390Y-46869047D02*
X204905771Y-46964285D01*
X204905771Y-46964285D02*
X204858152Y-47011904D01*
X204858152Y-47011904D02*
X204762914Y-47059523D01*
X204762914Y-47059523D02*
X204715295Y-47059523D01*
X204715295Y-47059523D02*
X204620057Y-47011904D01*
X204620057Y-47011904D02*
X204572438Y-46964285D01*
X204572438Y-46964285D02*
X204524819Y-46869047D01*
X204524819Y-46869047D02*
X204524819Y-46678571D01*
X204524819Y-46678571D02*
X204572438Y-46583333D01*
X204572438Y-46583333D02*
X204620057Y-46535714D01*
X204620057Y-46535714D02*
X204715295Y-46488095D01*
X204715295Y-46488095D02*
X204762914Y-46488095D01*
X204762914Y-46488095D02*
X204858152Y-46535714D01*
X204858152Y-46535714D02*
X204905771Y-46583333D01*
X204905771Y-46583333D02*
X204953390Y-46678571D01*
X204953390Y-46678571D02*
X204953390Y-46869047D01*
X204953390Y-46869047D02*
X205001009Y-46964285D01*
X205001009Y-46964285D02*
X205048628Y-47011904D01*
X205048628Y-47011904D02*
X205143866Y-47059523D01*
X205143866Y-47059523D02*
X205334342Y-47059523D01*
X205334342Y-47059523D02*
X205429580Y-47011904D01*
X205429580Y-47011904D02*
X205477200Y-46964285D01*
X205477200Y-46964285D02*
X205524819Y-46869047D01*
X205524819Y-46869047D02*
X205524819Y-46678571D01*
X205524819Y-46678571D02*
X205477200Y-46583333D01*
X205477200Y-46583333D02*
X205429580Y-46535714D01*
X205429580Y-46535714D02*
X205334342Y-46488095D01*
X205334342Y-46488095D02*
X205143866Y-46488095D01*
X205143866Y-46488095D02*
X205048628Y-46535714D01*
X205048628Y-46535714D02*
X205001009Y-46583333D01*
X205001009Y-46583333D02*
X204953390Y-46678571D01*
X194359580Y-124642857D02*
X194407200Y-124690476D01*
X194407200Y-124690476D02*
X194454819Y-124833333D01*
X194454819Y-124833333D02*
X194454819Y-124928571D01*
X194454819Y-124928571D02*
X194407200Y-125071428D01*
X194407200Y-125071428D02*
X194311961Y-125166666D01*
X194311961Y-125166666D02*
X194216723Y-125214285D01*
X194216723Y-125214285D02*
X194026247Y-125261904D01*
X194026247Y-125261904D02*
X193883390Y-125261904D01*
X193883390Y-125261904D02*
X193692914Y-125214285D01*
X193692914Y-125214285D02*
X193597676Y-125166666D01*
X193597676Y-125166666D02*
X193502438Y-125071428D01*
X193502438Y-125071428D02*
X193454819Y-124928571D01*
X193454819Y-124928571D02*
X193454819Y-124833333D01*
X193454819Y-124833333D02*
X193502438Y-124690476D01*
X193502438Y-124690476D02*
X193550057Y-124642857D01*
X193550057Y-124261904D02*
X193502438Y-124214285D01*
X193502438Y-124214285D02*
X193454819Y-124119047D01*
X193454819Y-124119047D02*
X193454819Y-123880952D01*
X193454819Y-123880952D02*
X193502438Y-123785714D01*
X193502438Y-123785714D02*
X193550057Y-123738095D01*
X193550057Y-123738095D02*
X193645295Y-123690476D01*
X193645295Y-123690476D02*
X193740533Y-123690476D01*
X193740533Y-123690476D02*
X193883390Y-123738095D01*
X193883390Y-123738095D02*
X194454819Y-124309523D01*
X194454819Y-124309523D02*
X194454819Y-123690476D01*
X193454819Y-123071428D02*
X193454819Y-122976190D01*
X193454819Y-122976190D02*
X193502438Y-122880952D01*
X193502438Y-122880952D02*
X193550057Y-122833333D01*
X193550057Y-122833333D02*
X193645295Y-122785714D01*
X193645295Y-122785714D02*
X193835771Y-122738095D01*
X193835771Y-122738095D02*
X194073866Y-122738095D01*
X194073866Y-122738095D02*
X194264342Y-122785714D01*
X194264342Y-122785714D02*
X194359580Y-122833333D01*
X194359580Y-122833333D02*
X194407200Y-122880952D01*
X194407200Y-122880952D02*
X194454819Y-122976190D01*
X194454819Y-122976190D02*
X194454819Y-123071428D01*
X194454819Y-123071428D02*
X194407200Y-123166666D01*
X194407200Y-123166666D02*
X194359580Y-123214285D01*
X194359580Y-123214285D02*
X194264342Y-123261904D01*
X194264342Y-123261904D02*
X194073866Y-123309523D01*
X194073866Y-123309523D02*
X193835771Y-123309523D01*
X193835771Y-123309523D02*
X193645295Y-123261904D01*
X193645295Y-123261904D02*
X193550057Y-123214285D01*
X193550057Y-123214285D02*
X193502438Y-123166666D01*
X193502438Y-123166666D02*
X193454819Y-123071428D01*
X243166666Y-33659819D02*
X243166666Y-34374104D01*
X243166666Y-34374104D02*
X243119047Y-34516961D01*
X243119047Y-34516961D02*
X243023809Y-34612200D01*
X243023809Y-34612200D02*
X242880952Y-34659819D01*
X242880952Y-34659819D02*
X242785714Y-34659819D01*
X244119047Y-33659819D02*
X243642857Y-33659819D01*
X243642857Y-33659819D02*
X243595238Y-34136009D01*
X243595238Y-34136009D02*
X243642857Y-34088390D01*
X243642857Y-34088390D02*
X243738095Y-34040771D01*
X243738095Y-34040771D02*
X243976190Y-34040771D01*
X243976190Y-34040771D02*
X244071428Y-34088390D01*
X244071428Y-34088390D02*
X244119047Y-34136009D01*
X244119047Y-34136009D02*
X244166666Y-34231247D01*
X244166666Y-34231247D02*
X244166666Y-34469342D01*
X244166666Y-34469342D02*
X244119047Y-34564580D01*
X244119047Y-34564580D02*
X244071428Y-34612200D01*
X244071428Y-34612200D02*
X243976190Y-34659819D01*
X243976190Y-34659819D02*
X243738095Y-34659819D01*
X243738095Y-34659819D02*
X243642857Y-34612200D01*
X243642857Y-34612200D02*
X243595238Y-34564580D01*
X312810057Y-232485238D02*
X312762438Y-232580476D01*
X312762438Y-232580476D02*
X312667200Y-232675714D01*
X312667200Y-232675714D02*
X312524342Y-232818571D01*
X312524342Y-232818571D02*
X312476723Y-232913809D01*
X312476723Y-232913809D02*
X312476723Y-233009047D01*
X312714819Y-232961428D02*
X312667200Y-233056666D01*
X312667200Y-233056666D02*
X312571961Y-233151904D01*
X312571961Y-233151904D02*
X312381485Y-233199523D01*
X312381485Y-233199523D02*
X312048152Y-233199523D01*
X312048152Y-233199523D02*
X311857676Y-233151904D01*
X311857676Y-233151904D02*
X311762438Y-233056666D01*
X311762438Y-233056666D02*
X311714819Y-232961428D01*
X311714819Y-232961428D02*
X311714819Y-232770952D01*
X311714819Y-232770952D02*
X311762438Y-232675714D01*
X311762438Y-232675714D02*
X311857676Y-232580476D01*
X311857676Y-232580476D02*
X312048152Y-232532857D01*
X312048152Y-232532857D02*
X312381485Y-232532857D01*
X312381485Y-232532857D02*
X312571961Y-232580476D01*
X312571961Y-232580476D02*
X312667200Y-232675714D01*
X312667200Y-232675714D02*
X312714819Y-232770952D01*
X312714819Y-232770952D02*
X312714819Y-232961428D01*
X311714819Y-232199523D02*
X311714819Y-231580476D01*
X311714819Y-231580476D02*
X312095771Y-231913809D01*
X312095771Y-231913809D02*
X312095771Y-231770952D01*
X312095771Y-231770952D02*
X312143390Y-231675714D01*
X312143390Y-231675714D02*
X312191009Y-231628095D01*
X312191009Y-231628095D02*
X312286247Y-231580476D01*
X312286247Y-231580476D02*
X312524342Y-231580476D01*
X312524342Y-231580476D02*
X312619580Y-231628095D01*
X312619580Y-231628095D02*
X312667200Y-231675714D01*
X312667200Y-231675714D02*
X312714819Y-231770952D01*
X312714819Y-231770952D02*
X312714819Y-232056666D01*
X312714819Y-232056666D02*
X312667200Y-232151904D01*
X312667200Y-232151904D02*
X312619580Y-232199523D01*
D11*
%TO.C,R17*%
X249257936Y-75340000D02*
X250712064Y-75340000D01*
X249257936Y-77160000D02*
X250712064Y-77160000D01*
%TO.C,R16*%
X249295436Y-86590000D02*
X250749564Y-86590000D01*
X249295436Y-88410000D02*
X250749564Y-88410000D01*
%TO.C,J7*%
X227440000Y-21385000D02*
X227440000Y-33105000D01*
X227440000Y-33105000D02*
X228860000Y-33105000D01*
X228860000Y-28605000D02*
X232500000Y-28605000D01*
X228860000Y-33105000D02*
X228860000Y-28605000D01*
X229750000Y-21995000D02*
X229750000Y-27495000D01*
X229750000Y-27495000D02*
X230250000Y-27495000D01*
X230250000Y-21995000D02*
X229750000Y-21995000D01*
X230250000Y-27495000D02*
X230250000Y-21995000D01*
X232250000Y-21995000D02*
X232250000Y-27495000D01*
X232250000Y-27495000D02*
X232750000Y-27495000D01*
X232500000Y-21385000D02*
X227440000Y-21385000D01*
X232500000Y-21385000D02*
X237560000Y-21385000D01*
X232750000Y-21995000D02*
X232250000Y-21995000D01*
X232750000Y-27495000D02*
X232750000Y-21995000D01*
X234700000Y-32795000D02*
X235000000Y-32195000D01*
X234750000Y-21995000D02*
X234750000Y-27495000D01*
X234750000Y-27495000D02*
X235250000Y-27495000D01*
X235000000Y-32195000D02*
X235300000Y-32795000D01*
X235250000Y-21995000D02*
X234750000Y-21995000D01*
X235250000Y-27495000D02*
X235250000Y-21995000D01*
X235300000Y-32795000D02*
X234700000Y-32795000D01*
X236140000Y-28605000D02*
X232500000Y-28605000D01*
X236140000Y-33105000D02*
X236140000Y-28605000D01*
X237560000Y-21385000D02*
X237560000Y-33105000D01*
X237560000Y-33105000D02*
X236140000Y-33105000D01*
%TO.C,R21*%
X196262742Y-87977500D02*
X196737258Y-87977500D01*
X196262742Y-89022500D02*
X196737258Y-89022500D01*
%TO.C,R19*%
X250512742Y-54477500D02*
X250987258Y-54477500D01*
X250512742Y-55522500D02*
X250987258Y-55522500D01*
%TO.C,L1*%
X209050000Y-68800000D02*
X216450000Y-68800000D01*
X209050000Y-71100000D02*
X209050000Y-68800000D01*
X209050000Y-76200000D02*
X209050000Y-73900000D01*
X216450000Y-68800000D02*
X216450000Y-71100000D01*
X216450000Y-73900000D02*
X216450000Y-76200000D01*
X216450000Y-76200000D02*
X209050000Y-76200000D01*
%TO.C,J9*%
X254690000Y-132395000D02*
X256110000Y-132395000D01*
X254690000Y-144115000D02*
X254690000Y-132395000D01*
X256110000Y-132395000D02*
X256110000Y-136895000D01*
X256110000Y-136895000D02*
X259750000Y-136895000D01*
X256950000Y-132705000D02*
X257550000Y-132705000D01*
X257000000Y-138005000D02*
X257000000Y-143505000D01*
X257000000Y-143505000D02*
X257500000Y-143505000D01*
X257250000Y-133305000D02*
X256950000Y-132705000D01*
X257500000Y-138005000D02*
X257000000Y-138005000D01*
X257500000Y-143505000D02*
X257500000Y-138005000D01*
X257550000Y-132705000D02*
X257250000Y-133305000D01*
X259500000Y-138005000D02*
X259500000Y-143505000D01*
X259500000Y-143505000D02*
X260000000Y-143505000D01*
X259750000Y-144115000D02*
X254690000Y-144115000D01*
X259750000Y-144115000D02*
X264810000Y-144115000D01*
X260000000Y-138005000D02*
X259500000Y-138005000D01*
X260000000Y-143505000D02*
X260000000Y-138005000D01*
X262000000Y-138005000D02*
X262000000Y-143505000D01*
X262000000Y-143505000D02*
X262500000Y-143505000D01*
X262500000Y-138005000D02*
X262000000Y-138005000D01*
X262500000Y-143505000D02*
X262500000Y-138005000D01*
X263390000Y-132395000D02*
X263390000Y-136895000D01*
X263390000Y-136895000D02*
X259750000Y-136895000D01*
X264810000Y-132395000D02*
X263390000Y-132395000D01*
X264810000Y-144115000D02*
X264810000Y-132395000D01*
D12*
%TO.C,kibuzzard-69317C43*%
G36*
X181963014Y-103821918D02*
G01*
X181689041Y-103821918D01*
X181976712Y-103342466D01*
X182387671Y-103342466D01*
X181963014Y-103821918D01*
G37*
G36*
X187708219Y-105438356D02*
G01*
X187269863Y-105438356D01*
X187269863Y-104972603D01*
X187708219Y-104972603D01*
X187708219Y-105438356D01*
G37*
G36*
X187730137Y-100273973D02*
G01*
X187368493Y-100273973D01*
X187368493Y-99931507D01*
X187730137Y-99931507D01*
X187730137Y-100273973D01*
G37*
G36*
X190447945Y-105438356D02*
G01*
X190009589Y-105438356D01*
X190009589Y-104972603D01*
X190447945Y-104972603D01*
X190447945Y-105438356D01*
G37*
G36*
X191283562Y-98698630D02*
G01*
X191020548Y-98698630D01*
X191900000Y-96589041D01*
X192163014Y-96589041D01*
X191283562Y-98698630D01*
G37*
G36*
X180516438Y-105200000D02*
G01*
X181154795Y-105200000D01*
X181154795Y-105438356D01*
X180209589Y-105438356D01*
X180209589Y-103438356D01*
X180516438Y-103438356D01*
X180516438Y-105200000D01*
G37*
G36*
X185995890Y-101775342D02*
G01*
X186634247Y-101775342D01*
X186634247Y-102013699D01*
X185689041Y-102013699D01*
X185689041Y-100013699D01*
X185995890Y-100013699D01*
X185995890Y-101775342D01*
G37*
G36*
X187730137Y-102013699D02*
G01*
X187423288Y-102013699D01*
X187423288Y-100810959D01*
X187058904Y-100810959D01*
X187058904Y-100589041D01*
X187730137Y-100589041D01*
X187730137Y-102013699D01*
G37*
G36*
X170236986Y-96827397D02*
G01*
X169828767Y-96827397D01*
X169828767Y-98589041D01*
X169521918Y-98589041D01*
X169521918Y-96827397D01*
X169113699Y-96827397D01*
X169113699Y-96589041D01*
X170236986Y-96589041D01*
X170236986Y-96827397D01*
G37*
G36*
X172412329Y-99717808D02*
G01*
X172417808Y-99717808D01*
X172609589Y-99369863D01*
X172963014Y-99369863D01*
X172620548Y-99849315D01*
X172209589Y-99849315D01*
X171867123Y-99369863D01*
X172220548Y-99369863D01*
X172412329Y-99717808D01*
G37*
G36*
X175152055Y-103690411D02*
G01*
X175157534Y-103690411D01*
X175349315Y-103342466D01*
X175702740Y-103342466D01*
X175360274Y-103821918D01*
X174949315Y-103821918D01*
X174606849Y-103342466D01*
X174960274Y-103342466D01*
X175152055Y-103690411D01*
G37*
G36*
X180636986Y-101739726D02*
G01*
X180639726Y-101739726D01*
X180952055Y-100013699D01*
X181256164Y-100013699D01*
X180809589Y-102013699D01*
X180453425Y-102013699D01*
X180009589Y-100013699D01*
X180324658Y-100013699D01*
X180636986Y-101739726D01*
G37*
G36*
X183371233Y-99717808D02*
G01*
X183376712Y-99717808D01*
X183568493Y-99369863D01*
X183921918Y-99369863D01*
X183579452Y-99849315D01*
X183168493Y-99849315D01*
X182826027Y-99369863D01*
X183179452Y-99369863D01*
X183371233Y-99717808D01*
G37*
G36*
X175639726Y-100252055D02*
G01*
X174987671Y-100252055D01*
X174987671Y-100821918D01*
X175612329Y-100821918D01*
X175612329Y-101054795D01*
X174987671Y-101054795D01*
X174987671Y-101775342D01*
X175639726Y-101775342D01*
X175639726Y-102013699D01*
X174680822Y-102013699D01*
X174680822Y-100013699D01*
X175639726Y-100013699D01*
X175639726Y-100252055D01*
G37*
G36*
X179749315Y-97364384D02*
G01*
X179539574Y-97373212D01*
X179337747Y-97399696D01*
X179143836Y-97443836D01*
X179146575Y-98589041D01*
X178845205Y-98589041D01*
X178845205Y-97279452D01*
X179019890Y-97228164D01*
X179197644Y-97188274D01*
X179378466Y-97159781D01*
X179562356Y-97142685D01*
X179749315Y-97136986D01*
X179749315Y-97364384D01*
G37*
G36*
X183858904Y-97364384D02*
G01*
X183649163Y-97373212D01*
X183447336Y-97399696D01*
X183253425Y-97443836D01*
X183256164Y-98589041D01*
X182954795Y-98589041D01*
X182954795Y-97279452D01*
X183129479Y-97228164D01*
X183307233Y-97188274D01*
X183488055Y-97159781D01*
X183671945Y-97142685D01*
X183858904Y-97136986D01*
X183858904Y-97364384D01*
G37*
G36*
X192078082Y-100789041D02*
G01*
X191868341Y-100797869D01*
X191666514Y-100824353D01*
X191472603Y-100868493D01*
X191475342Y-102013699D01*
X191173973Y-102013699D01*
X191173973Y-100704110D01*
X191348658Y-100652822D01*
X191526411Y-100612932D01*
X191707233Y-100584438D01*
X191891123Y-100567342D01*
X192078082Y-100561644D01*
X192078082Y-100789041D01*
G37*
G36*
X172572298Y-103997565D02*
G01*
X172721613Y-104031355D01*
X172821918Y-104087671D01*
X172907192Y-104236301D01*
X172935616Y-104479452D01*
X172935616Y-105438356D01*
X172639726Y-105438356D01*
X172639726Y-104465753D01*
X172584932Y-104265753D01*
X172382192Y-104210959D01*
X172195890Y-104271233D01*
X172195890Y-105438356D01*
X171894521Y-105438356D01*
X171894521Y-104101370D01*
X172037900Y-104037443D01*
X172197717Y-103999087D01*
X172373973Y-103986301D01*
X172572298Y-103997565D01*
G37*
G36*
X173579452Y-97219178D02*
G01*
X173733562Y-97157534D01*
X173894521Y-97136986D01*
X174086301Y-97166096D01*
X174217808Y-97253425D01*
X174293836Y-97407192D01*
X174319178Y-97635616D01*
X174319178Y-98589041D01*
X174026027Y-98589041D01*
X174028767Y-97712329D01*
X174017808Y-97534932D01*
X173984932Y-97430137D01*
X173817808Y-97361644D01*
X173691096Y-97389041D01*
X173579452Y-97471233D01*
X173579452Y-98589041D01*
X173278082Y-98589041D01*
X173278082Y-96534247D01*
X173579452Y-96534247D01*
X173579452Y-97219178D01*
G37*
G36*
X176571233Y-97219178D02*
G01*
X177031507Y-97219178D01*
X177031507Y-97441096D01*
X176571233Y-97441096D01*
X176571233Y-98123288D01*
X176606849Y-98330137D01*
X176771233Y-98375342D01*
X176886986Y-98365068D01*
X177004110Y-98334247D01*
X177004110Y-98583562D01*
X176867808Y-98608219D01*
X176716438Y-98616438D01*
X176505137Y-98593151D01*
X176369863Y-98523288D01*
X176296918Y-98390411D01*
X176272603Y-98178082D01*
X176272603Y-97441096D01*
X175990411Y-97441096D01*
X175990411Y-97219178D01*
X176272603Y-97219178D01*
X176272603Y-96698630D01*
X176571233Y-96698630D01*
X176571233Y-97219178D01*
G37*
G36*
X180680822Y-97219178D02*
G01*
X181141096Y-97219178D01*
X181141096Y-97441096D01*
X180680822Y-97441096D01*
X180680822Y-98123288D01*
X180716438Y-98330137D01*
X180880822Y-98375342D01*
X180996575Y-98365068D01*
X181113699Y-98334247D01*
X181113699Y-98583562D01*
X180977397Y-98608219D01*
X180826027Y-98616438D01*
X180614726Y-98593151D01*
X180479452Y-98523288D01*
X180406507Y-98390411D01*
X180382192Y-98178082D01*
X180382192Y-97441096D01*
X180100000Y-97441096D01*
X180100000Y-97219178D01*
X180382192Y-97219178D01*
X180382192Y-96698630D01*
X180680822Y-96698630D01*
X180680822Y-97219178D01*
G37*
G36*
X183420548Y-104068493D02*
G01*
X183880822Y-104068493D01*
X183880822Y-104290411D01*
X183420548Y-104290411D01*
X183420548Y-104972603D01*
X183456164Y-105179452D01*
X183620548Y-105224658D01*
X183736301Y-105214384D01*
X183853425Y-105183562D01*
X183853425Y-105432877D01*
X183717123Y-105457534D01*
X183565753Y-105465753D01*
X183354452Y-105442466D01*
X183219178Y-105372603D01*
X183146233Y-105239726D01*
X183121918Y-105027397D01*
X183121918Y-104290411D01*
X182839726Y-104290411D01*
X182839726Y-104068493D01*
X183121918Y-104068493D01*
X183121918Y-103547945D01*
X183420548Y-103547945D01*
X183420548Y-104068493D01*
G37*
G36*
X171195282Y-100003805D02*
G01*
X171355099Y-100056317D01*
X171475342Y-100143836D01*
X171559056Y-100270624D01*
X171609285Y-100440944D01*
X171626027Y-100654795D01*
X171608828Y-100872451D01*
X171557230Y-101046880D01*
X171471233Y-101178082D01*
X171349619Y-101269406D01*
X171191172Y-101324201D01*
X170995890Y-101342466D01*
X170836986Y-101328767D01*
X170836986Y-102013699D01*
X170530137Y-102013699D01*
X170530137Y-100246575D01*
X170836986Y-100246575D01*
X170836986Y-101087671D01*
X170995890Y-101106849D01*
X171143493Y-101081164D01*
X171246575Y-101004110D01*
X171307192Y-100865411D01*
X171327397Y-100654795D01*
X171307192Y-100458904D01*
X171246575Y-100326027D01*
X171143493Y-100250000D01*
X170995890Y-100224658D01*
X170836986Y-100246575D01*
X170530137Y-100246575D01*
X170530137Y-100041096D01*
X170682953Y-100010654D01*
X170838204Y-99992390D01*
X170995890Y-99986301D01*
X171195282Y-100003805D01*
G37*
G36*
X172717808Y-97150685D02*
G01*
X172886301Y-97191781D01*
X172886301Y-97684932D01*
X172598630Y-97684932D01*
X172598630Y-97369863D01*
X172524658Y-97361644D01*
X172385616Y-97394178D01*
X172280822Y-97491781D01*
X172215068Y-97653082D01*
X172193151Y-97876712D01*
X172218493Y-98106849D01*
X172294521Y-98271233D01*
X172414384Y-98369863D01*
X172571233Y-98402740D01*
X172719178Y-98382877D01*
X172872603Y-98323288D01*
X172872603Y-98547945D01*
X172707534Y-98599315D01*
X172535616Y-98616438D01*
X172344749Y-98595738D01*
X172184932Y-98533638D01*
X172056164Y-98430137D01*
X171961796Y-98285845D01*
X171905175Y-98101370D01*
X171886301Y-97876712D01*
X171899441Y-97680458D01*
X171938859Y-97514398D01*
X172004557Y-97378529D01*
X172096533Y-97272854D01*
X172214789Y-97197372D01*
X172359323Y-97152083D01*
X172530137Y-97136986D01*
X172717808Y-97150685D01*
G37*
G36*
X194635616Y-100575342D02*
G01*
X194804110Y-100616438D01*
X194804110Y-101109589D01*
X194516438Y-101109589D01*
X194516438Y-100794521D01*
X194442466Y-100786301D01*
X194303425Y-100818836D01*
X194198630Y-100916438D01*
X194132877Y-101077740D01*
X194110959Y-101301370D01*
X194136301Y-101531507D01*
X194212329Y-101695890D01*
X194332192Y-101794521D01*
X194489041Y-101827397D01*
X194636986Y-101807534D01*
X194790411Y-101747945D01*
X194790411Y-101972603D01*
X194625342Y-102023973D01*
X194453425Y-102041096D01*
X194262557Y-102020396D01*
X194102740Y-101958295D01*
X193973973Y-101854795D01*
X193879604Y-101710502D01*
X193822983Y-101526027D01*
X193804110Y-101301370D01*
X193817249Y-101105116D01*
X193856668Y-100939055D01*
X193922365Y-100803187D01*
X194014342Y-100697512D01*
X194132597Y-100622030D01*
X194277132Y-100576740D01*
X194447945Y-100561644D01*
X194635616Y-100575342D01*
G37*
G36*
X186316096Y-96595548D02*
G01*
X186468493Y-96697260D01*
X186561986Y-96864726D01*
X186593151Y-97095890D01*
X186575951Y-97269406D01*
X186524353Y-97453881D01*
X186438356Y-97649315D01*
X186349058Y-97805822D01*
X186235959Y-97973973D01*
X186099058Y-98153767D01*
X185938356Y-98345205D01*
X185938356Y-98350685D01*
X186606849Y-98350685D01*
X186606849Y-98589041D01*
X185620548Y-98589041D01*
X185620548Y-98350685D01*
X185796450Y-98146212D01*
X185945289Y-97950797D01*
X186067067Y-97764439D01*
X186161784Y-97587140D01*
X186229438Y-97418899D01*
X186270031Y-97259715D01*
X186283562Y-97109589D01*
X186268836Y-96969863D01*
X186224658Y-96873973D01*
X186045205Y-96800000D01*
X185916438Y-96817960D01*
X185774886Y-96871842D01*
X185620548Y-96961644D01*
X185620548Y-96704110D01*
X185772146Y-96624962D01*
X185934703Y-96577473D01*
X186108219Y-96561644D01*
X186316096Y-96595548D01*
G37*
G36*
X189055822Y-96595548D02*
G01*
X189208219Y-96697260D01*
X189301712Y-96864726D01*
X189332877Y-97095890D01*
X189315677Y-97269406D01*
X189264079Y-97453881D01*
X189178082Y-97649315D01*
X189088784Y-97805822D01*
X188975685Y-97973973D01*
X188838784Y-98153767D01*
X188678082Y-98345205D01*
X188678082Y-98350685D01*
X189346575Y-98350685D01*
X189346575Y-98589041D01*
X188360274Y-98589041D01*
X188360274Y-98350685D01*
X188536176Y-98146212D01*
X188685015Y-97950797D01*
X188806793Y-97764439D01*
X188901510Y-97587140D01*
X188969164Y-97418899D01*
X189009757Y-97259715D01*
X189023288Y-97109589D01*
X189008562Y-96969863D01*
X188964384Y-96873973D01*
X188784932Y-96800000D01*
X188656164Y-96817960D01*
X188514612Y-96871842D01*
X188360274Y-96961644D01*
X188360274Y-96704110D01*
X188511872Y-96624962D01*
X188674429Y-96577473D01*
X188847945Y-96561644D01*
X189055822Y-96595548D01*
G37*
G36*
X193165411Y-96595548D02*
G01*
X193317808Y-96697260D01*
X193411301Y-96864726D01*
X193442466Y-97095890D01*
X193425266Y-97269406D01*
X193373668Y-97453881D01*
X193287671Y-97649315D01*
X193198373Y-97805822D01*
X193085274Y-97973973D01*
X192948373Y-98153767D01*
X192787671Y-98345205D01*
X192787671Y-98350685D01*
X193456164Y-98350685D01*
X193456164Y-98589041D01*
X192469863Y-98589041D01*
X192469863Y-98350685D01*
X192645765Y-98146212D01*
X192794604Y-97950797D01*
X192916382Y-97764439D01*
X193011099Y-97587140D01*
X193078753Y-97418899D01*
X193119346Y-97259715D01*
X193132877Y-97109589D01*
X193118151Y-96969863D01*
X193073973Y-96873973D01*
X192894521Y-96800000D01*
X192765753Y-96817960D01*
X192624201Y-96871842D01*
X192469863Y-96961644D01*
X192469863Y-96704110D01*
X192621461Y-96624962D01*
X192784018Y-96577473D01*
X192957534Y-96561644D01*
X193165411Y-96595548D01*
G37*
G36*
X190680822Y-96824658D02*
G01*
X190069863Y-96824658D01*
X190050685Y-97378082D01*
X190056164Y-97378082D01*
X190167123Y-97326712D01*
X190297260Y-97309589D01*
X190455068Y-97335342D01*
X190577808Y-97412603D01*
X190665479Y-97541370D01*
X190718082Y-97721644D01*
X190735616Y-97953425D01*
X190719787Y-98168341D01*
X190672298Y-98338204D01*
X190593151Y-98463014D01*
X190479604Y-98548250D01*
X190328919Y-98599391D01*
X190141096Y-98616438D01*
X189937671Y-98595890D01*
X189749315Y-98534247D01*
X189749315Y-98273973D01*
X189936301Y-98352055D01*
X190119178Y-98378082D01*
X190258904Y-98354452D01*
X190354795Y-98283562D01*
X190410274Y-98153767D01*
X190428767Y-97953425D01*
X190415753Y-97763356D01*
X190376712Y-97636986D01*
X190215068Y-97542466D01*
X190110274Y-97569863D01*
X190015068Y-97652055D01*
X189763014Y-97652055D01*
X189790411Y-96589041D01*
X190680822Y-96589041D01*
X190680822Y-96824658D01*
G37*
G36*
X188647945Y-100621918D02*
G01*
X188774658Y-100576712D01*
X188908219Y-100561644D01*
X189065145Y-100580822D01*
X189192542Y-100638356D01*
X189290411Y-100734247D01*
X189359665Y-100873973D01*
X189401218Y-101063014D01*
X189415068Y-101301370D01*
X189398935Y-101543836D01*
X189350533Y-101734247D01*
X189269863Y-101872603D01*
X189154490Y-101966210D01*
X189001979Y-102022374D01*
X188826027Y-102039744D01*
X188812329Y-102041096D01*
X188642466Y-102031355D01*
X188487215Y-102002131D01*
X188346575Y-101953425D01*
X188346575Y-100879452D01*
X188647945Y-100879452D01*
X188647945Y-101791781D01*
X188826027Y-101827397D01*
X188952740Y-101797945D01*
X189042466Y-101709589D01*
X189095890Y-101548630D01*
X189113699Y-101301370D01*
X189098973Y-101060616D01*
X189054795Y-100902740D01*
X188980479Y-100815411D01*
X188875342Y-100786301D01*
X188747260Y-100809589D01*
X188647945Y-100879452D01*
X188346575Y-100879452D01*
X188346575Y-99958904D01*
X188647945Y-99958904D01*
X188647945Y-100621918D01*
G37*
G36*
X175327093Y-103992998D02*
G01*
X175477778Y-104013090D01*
X175620548Y-104046575D01*
X175620548Y-104273973D01*
X175402055Y-104222603D01*
X175195890Y-104205479D01*
X175015068Y-104250000D01*
X174954795Y-104383562D01*
X175002740Y-104506849D01*
X175168493Y-104583562D01*
X175412671Y-104660274D01*
X175564384Y-104753425D01*
X175643493Y-104879452D01*
X175669863Y-105054795D01*
X175635274Y-105229452D01*
X175531507Y-105358904D01*
X175364726Y-105439041D01*
X175141096Y-105465753D01*
X174971537Y-105456012D01*
X174813546Y-105426788D01*
X174667123Y-105378082D01*
X174667123Y-105136986D01*
X174886301Y-105217123D01*
X175094521Y-105243836D01*
X175302740Y-105198630D01*
X175365753Y-105054795D01*
X175315068Y-104917808D01*
X175132877Y-104835616D01*
X174910616Y-104759932D01*
X174764384Y-104664384D01*
X174683219Y-104541438D01*
X174656164Y-104383562D01*
X174688356Y-104214041D01*
X174784932Y-104089041D01*
X174945205Y-104011986D01*
X175168493Y-103986301D01*
X175327093Y-103992998D01*
G37*
G36*
X189024505Y-103992998D02*
G01*
X189176104Y-104013090D01*
X189319178Y-104046575D01*
X189319178Y-104273973D01*
X189100000Y-104222603D01*
X188891781Y-104205479D01*
X188713014Y-104250000D01*
X188653425Y-104383562D01*
X188701370Y-104506849D01*
X188864384Y-104583562D01*
X189108562Y-104660274D01*
X189260274Y-104753425D01*
X189339384Y-104879452D01*
X189365753Y-105054795D01*
X189331164Y-105229452D01*
X189227397Y-105358904D01*
X189060616Y-105439041D01*
X188836986Y-105465753D01*
X188668950Y-105456012D01*
X188511872Y-105426788D01*
X188365753Y-105378082D01*
X188365753Y-105136986D01*
X188584247Y-105217123D01*
X188790411Y-105243836D01*
X188998630Y-105198630D01*
X189061644Y-105054795D01*
X189012329Y-104917808D01*
X188831507Y-104835616D01*
X188608904Y-104759932D01*
X188461644Y-104664384D01*
X188379452Y-104541438D01*
X188352055Y-104383562D01*
X188384247Y-104214041D01*
X188480822Y-104089041D01*
X188641096Y-104011986D01*
X188864384Y-103986301D01*
X189024505Y-103992998D01*
G37*
G36*
X182183714Y-97156317D02*
G01*
X182314307Y-97214307D01*
X182415068Y-97310959D01*
X182486606Y-97450533D01*
X182529528Y-97637291D01*
X182543836Y-97871233D01*
X182538356Y-97980822D01*
X181760274Y-97980822D01*
X181792123Y-98172945D01*
X181860274Y-98300000D01*
X181966781Y-98370890D01*
X182113699Y-98394521D01*
X182282192Y-98376027D01*
X182469863Y-98320548D01*
X182469863Y-98547945D01*
X182269178Y-98599315D01*
X182078082Y-98616438D01*
X181885540Y-98595890D01*
X181728006Y-98534247D01*
X181605479Y-98431507D01*
X181517960Y-98287671D01*
X181465449Y-98102740D01*
X181447945Y-97876712D01*
X181455694Y-97767123D01*
X181760274Y-97767123D01*
X182247945Y-97767123D01*
X182231507Y-97575000D01*
X182187671Y-97447945D01*
X182015068Y-97353425D01*
X181907534Y-97376027D01*
X181831507Y-97443836D01*
X181783562Y-97569863D01*
X181760274Y-97767123D01*
X181455694Y-97767123D01*
X181463927Y-97650685D01*
X181511872Y-97465753D01*
X181591781Y-97321918D01*
X181703653Y-97219178D01*
X181847489Y-97157534D01*
X182023288Y-97136986D01*
X182183714Y-97156317D01*
G37*
G36*
X171224810Y-97156317D02*
G01*
X171355403Y-97214307D01*
X171456164Y-97310959D01*
X171527702Y-97450533D01*
X171570624Y-97637291D01*
X171584932Y-97871233D01*
X171579452Y-97980822D01*
X170801370Y-97980822D01*
X170833219Y-98172945D01*
X170901370Y-98300000D01*
X171007877Y-98370890D01*
X171154795Y-98394521D01*
X171323288Y-98376027D01*
X171510959Y-98320548D01*
X171510959Y-98547945D01*
X171310274Y-98599315D01*
X171119178Y-98616438D01*
X170951999Y-98601342D01*
X170810540Y-98556053D01*
X170694800Y-98480570D01*
X170604781Y-98374895D01*
X170540481Y-98239027D01*
X170501901Y-98072966D01*
X170489041Y-97876712D01*
X170496790Y-97767123D01*
X170801370Y-97767123D01*
X171289041Y-97767123D01*
X171272603Y-97575000D01*
X171228767Y-97447945D01*
X171056164Y-97353425D01*
X170948630Y-97376027D01*
X170872603Y-97443836D01*
X170824658Y-97569863D01*
X170801370Y-97767123D01*
X170496790Y-97767123D01*
X170505023Y-97650685D01*
X170552968Y-97465753D01*
X170632877Y-97321918D01*
X170744749Y-97219178D01*
X170888584Y-97157534D01*
X171064384Y-97136986D01*
X171224810Y-97156317D01*
G37*
G36*
X171224810Y-104005632D02*
G01*
X171355403Y-104063623D01*
X171456164Y-104160274D01*
X171527702Y-104299848D01*
X171570624Y-104486606D01*
X171584932Y-104720548D01*
X171579452Y-104830137D01*
X170801370Y-104830137D01*
X170833219Y-105022260D01*
X170901370Y-105149315D01*
X171007877Y-105220205D01*
X171154795Y-105243836D01*
X171323288Y-105225342D01*
X171510959Y-105169863D01*
X171510959Y-105397260D01*
X171310274Y-105448630D01*
X171119178Y-105465753D01*
X170951999Y-105450657D01*
X170810540Y-105405368D01*
X170694800Y-105329885D01*
X170604781Y-105224210D01*
X170540481Y-105088342D01*
X170501901Y-104922281D01*
X170489041Y-104726027D01*
X170496790Y-104616438D01*
X170801370Y-104616438D01*
X171289041Y-104616438D01*
X171272603Y-104424315D01*
X171228767Y-104297260D01*
X171056164Y-104202740D01*
X170948630Y-104225342D01*
X170872603Y-104293151D01*
X170824658Y-104419178D01*
X170801370Y-104616438D01*
X170496790Y-104616438D01*
X170505023Y-104500000D01*
X170552968Y-104315068D01*
X170632877Y-104171233D01*
X170744749Y-104068493D01*
X170888584Y-104006849D01*
X171064384Y-103986301D01*
X171224810Y-104005632D01*
G37*
G36*
X173964536Y-104005632D02*
G01*
X174095129Y-104063623D01*
X174195890Y-104160274D01*
X174267428Y-104299848D01*
X174310350Y-104486606D01*
X174324658Y-104720548D01*
X174319178Y-104830137D01*
X173541096Y-104830137D01*
X173572945Y-105022260D01*
X173641096Y-105149315D01*
X173747603Y-105220205D01*
X173894521Y-105243836D01*
X174063014Y-105225342D01*
X174250685Y-105169863D01*
X174250685Y-105397260D01*
X174050000Y-105448630D01*
X173858904Y-105465753D01*
X173691725Y-105450657D01*
X173550266Y-105405368D01*
X173434526Y-105329885D01*
X173344507Y-105224210D01*
X173280207Y-105088342D01*
X173241627Y-104922281D01*
X173228767Y-104726027D01*
X173236516Y-104616438D01*
X173541096Y-104616438D01*
X174028767Y-104616438D01*
X174012329Y-104424315D01*
X173968493Y-104297260D01*
X173795890Y-104202740D01*
X173688356Y-104225342D01*
X173612329Y-104293151D01*
X173564384Y-104419178D01*
X173541096Y-104616438D01*
X173236516Y-104616438D01*
X173244749Y-104500000D01*
X173292694Y-104315068D01*
X173372603Y-104171233D01*
X173484475Y-104068493D01*
X173628311Y-104006849D01*
X173804110Y-103986301D01*
X173964536Y-104005632D01*
G37*
G36*
X190402892Y-100580974D02*
G01*
X190533486Y-100638965D01*
X190634247Y-100735616D01*
X190705784Y-100875190D01*
X190748706Y-101061948D01*
X190763014Y-101295890D01*
X190757534Y-101405479D01*
X189979452Y-101405479D01*
X190011301Y-101597603D01*
X190079452Y-101724658D01*
X190185959Y-101795548D01*
X190332877Y-101819178D01*
X190501370Y-101800685D01*
X190689041Y-101745205D01*
X190689041Y-101972603D01*
X190488356Y-102023973D01*
X190297260Y-102041096D01*
X190130081Y-102025999D01*
X189988622Y-101980710D01*
X189872882Y-101905228D01*
X189782863Y-101799553D01*
X189718563Y-101663685D01*
X189679983Y-101497624D01*
X189667123Y-101301370D01*
X189674872Y-101191781D01*
X189979452Y-101191781D01*
X190467123Y-101191781D01*
X190450685Y-100999658D01*
X190406849Y-100872603D01*
X190234247Y-100778082D01*
X190126712Y-100800685D01*
X190050685Y-100868493D01*
X190002740Y-100994521D01*
X189979452Y-101191781D01*
X189674872Y-101191781D01*
X189683105Y-101075342D01*
X189731050Y-100890411D01*
X189810959Y-100746575D01*
X189922831Y-100643836D01*
X190066667Y-100582192D01*
X190242466Y-100561644D01*
X190402892Y-100580974D01*
G37*
G36*
X193142618Y-100580974D02*
G01*
X193273212Y-100638965D01*
X193373973Y-100735616D01*
X193445510Y-100875190D01*
X193488432Y-101061948D01*
X193502740Y-101295890D01*
X193497260Y-101405479D01*
X192719178Y-101405479D01*
X192751027Y-101597603D01*
X192819178Y-101724658D01*
X192925685Y-101795548D01*
X193072603Y-101819178D01*
X193241096Y-101800685D01*
X193428767Y-101745205D01*
X193428767Y-101972603D01*
X193228082Y-102023973D01*
X193036986Y-102041096D01*
X192869807Y-102025999D01*
X192728348Y-101980710D01*
X192612608Y-101905228D01*
X192522589Y-101799553D01*
X192458289Y-101663685D01*
X192419709Y-101497624D01*
X192406849Y-101301370D01*
X192414598Y-101191781D01*
X192719178Y-101191781D01*
X193206849Y-101191781D01*
X193190411Y-100999658D01*
X193146575Y-100872603D01*
X192973973Y-100778082D01*
X192866438Y-100800685D01*
X192790411Y-100868493D01*
X192742466Y-100994521D01*
X192719178Y-101191781D01*
X192414598Y-101191781D01*
X192422831Y-101075342D01*
X192470776Y-100890411D01*
X192550685Y-100746575D01*
X192662557Y-100643836D01*
X192806393Y-100582192D01*
X192982192Y-100561644D01*
X193142618Y-100580974D01*
G37*
G36*
X178141438Y-97164384D02*
G01*
X178295890Y-97246575D01*
X178354490Y-97343379D01*
X178389650Y-97487671D01*
X178401370Y-97679452D01*
X178401370Y-98528767D01*
X178248250Y-98577473D01*
X178088432Y-98606697D01*
X177921918Y-98616438D01*
X177756469Y-98603044D01*
X177618113Y-98562861D01*
X177506849Y-98495890D01*
X177396918Y-98350685D01*
X177360274Y-98156164D01*
X177650685Y-98156164D01*
X177721918Y-98338356D01*
X177921918Y-98402740D01*
X178102740Y-98367123D01*
X178102740Y-97876712D01*
X178026027Y-97876712D01*
X177855822Y-97893836D01*
X177739726Y-97945205D01*
X177672945Y-98032192D01*
X177650685Y-98156164D01*
X177360274Y-98156164D01*
X177401712Y-97948288D01*
X177526027Y-97795890D01*
X177655251Y-97726636D01*
X177821918Y-97685084D01*
X178026027Y-97671233D01*
X178102740Y-97671233D01*
X178102740Y-97624658D01*
X178060274Y-97412329D01*
X177872603Y-97361644D01*
X177735616Y-97372603D01*
X177587671Y-97405479D01*
X177428767Y-97460274D01*
X177428767Y-97224658D01*
X177588280Y-97175951D01*
X177741705Y-97146728D01*
X177889041Y-97136986D01*
X178141438Y-97164384D01*
G37*
G36*
X178141438Y-100589041D02*
G01*
X178295890Y-100671233D01*
X178354490Y-100768037D01*
X178389650Y-100912329D01*
X178401370Y-101104110D01*
X178401370Y-101953425D01*
X178248250Y-102002131D01*
X178088432Y-102031355D01*
X177921918Y-102041096D01*
X177756469Y-102027702D01*
X177618113Y-101987519D01*
X177506849Y-101920548D01*
X177396918Y-101775342D01*
X177360274Y-101580822D01*
X177650685Y-101580822D01*
X177721918Y-101763014D01*
X177921918Y-101827397D01*
X178102740Y-101791781D01*
X178102740Y-101301370D01*
X178026027Y-101301370D01*
X177855822Y-101318493D01*
X177739726Y-101369863D01*
X177672945Y-101456849D01*
X177650685Y-101580822D01*
X177360274Y-101580822D01*
X177401712Y-101372945D01*
X177526027Y-101220548D01*
X177655251Y-101151294D01*
X177821918Y-101109741D01*
X178026027Y-101095890D01*
X178102740Y-101095890D01*
X178102740Y-101049315D01*
X178060274Y-100836986D01*
X177872603Y-100786301D01*
X177735616Y-100797260D01*
X177587671Y-100830137D01*
X177428767Y-100884932D01*
X177428767Y-100649315D01*
X177588280Y-100600609D01*
X177741705Y-100571385D01*
X177889041Y-100561644D01*
X178141438Y-100589041D01*
G37*
G36*
X178141438Y-104013699D02*
G01*
X178295890Y-104095890D01*
X178354490Y-104192694D01*
X178389650Y-104336986D01*
X178401370Y-104528767D01*
X178401370Y-105378082D01*
X178248250Y-105426788D01*
X178088432Y-105456012D01*
X177921918Y-105465753D01*
X177756469Y-105452359D01*
X177618113Y-105412177D01*
X177506849Y-105345205D01*
X177396918Y-105200000D01*
X177360274Y-105005479D01*
X177650685Y-105005479D01*
X177721918Y-105187671D01*
X177921918Y-105252055D01*
X178102740Y-105216438D01*
X178102740Y-104726027D01*
X178026027Y-104726027D01*
X177855822Y-104743151D01*
X177739726Y-104794521D01*
X177672945Y-104881507D01*
X177650685Y-105005479D01*
X177360274Y-105005479D01*
X177401712Y-104797603D01*
X177526027Y-104645205D01*
X177655251Y-104575951D01*
X177821918Y-104534399D01*
X178026027Y-104520548D01*
X178102740Y-104520548D01*
X178102740Y-104473973D01*
X178060274Y-104261644D01*
X177872603Y-104210959D01*
X177735616Y-104221918D01*
X177587671Y-104254795D01*
X177428767Y-104309589D01*
X177428767Y-104073973D01*
X177588280Y-104025266D01*
X177741705Y-103996043D01*
X177889041Y-103986301D01*
X178141438Y-104013699D01*
G37*
G36*
X182251027Y-104013699D02*
G01*
X182405479Y-104095890D01*
X182464079Y-104192694D01*
X182499239Y-104336986D01*
X182510959Y-104528767D01*
X182510959Y-105378082D01*
X182357839Y-105426788D01*
X182198021Y-105456012D01*
X182031507Y-105465753D01*
X181866058Y-105452359D01*
X181727702Y-105412177D01*
X181616438Y-105345205D01*
X181506507Y-105200000D01*
X181469863Y-105005479D01*
X181760274Y-105005479D01*
X181831507Y-105186301D01*
X182031507Y-105249315D01*
X182212329Y-105216438D01*
X182212329Y-104726027D01*
X182135616Y-104726027D01*
X181965411Y-104743151D01*
X181849315Y-104794521D01*
X181782534Y-104881507D01*
X181760274Y-105005479D01*
X181469863Y-105005479D01*
X181511301Y-104797603D01*
X181635616Y-104645205D01*
X181764840Y-104575951D01*
X181931507Y-104534399D01*
X182135616Y-104520548D01*
X182212329Y-104520548D01*
X182212329Y-104473973D01*
X182169863Y-104261644D01*
X181982192Y-104210959D01*
X181845205Y-104221918D01*
X181697260Y-104254795D01*
X181538356Y-104309589D01*
X181538356Y-104073973D01*
X181697869Y-104025266D01*
X181851294Y-103996043D01*
X181998630Y-103986301D01*
X182251027Y-104013699D01*
G37*
G36*
X186360616Y-104013699D02*
G01*
X186515068Y-104095890D01*
X186573668Y-104192694D01*
X186608828Y-104336986D01*
X186620548Y-104528767D01*
X186620548Y-105378082D01*
X186467428Y-105426788D01*
X186307610Y-105456012D01*
X186141096Y-105465753D01*
X185975647Y-105452359D01*
X185837291Y-105412177D01*
X185726027Y-105345205D01*
X185616096Y-105200000D01*
X185579452Y-105005479D01*
X185869863Y-105005479D01*
X185941096Y-105187671D01*
X186141096Y-105252055D01*
X186321918Y-105216438D01*
X186321918Y-104726027D01*
X186245205Y-104726027D01*
X186075000Y-104743151D01*
X185958904Y-104794521D01*
X185892123Y-104881507D01*
X185869863Y-105005479D01*
X185579452Y-105005479D01*
X185620890Y-104797603D01*
X185745205Y-104645205D01*
X185874429Y-104575951D01*
X186041096Y-104534399D01*
X186245205Y-104520548D01*
X186321918Y-104520548D01*
X186321918Y-104473973D01*
X186279452Y-104261644D01*
X186091781Y-104210959D01*
X185954795Y-104221918D01*
X185806849Y-104254795D01*
X185647945Y-104309589D01*
X185647945Y-104073973D01*
X185807458Y-104025266D01*
X185960883Y-103996043D01*
X186108219Y-103986301D01*
X186360616Y-104013699D01*
G37*
G36*
X169867732Y-99995434D02*
G01*
X170021157Y-100022831D01*
X170168493Y-100068493D01*
X170168493Y-100342466D01*
X169956849Y-100254110D01*
X169743836Y-100224658D01*
X169623973Y-100242466D01*
X169532877Y-100295890D01*
X169475342Y-100380822D01*
X169456164Y-100493151D01*
X169480518Y-100632268D01*
X169553577Y-100742770D01*
X169675342Y-100824658D01*
X169861948Y-100918721D01*
X170005327Y-101014612D01*
X170105479Y-101112329D01*
X170193836Y-101281507D01*
X170223288Y-101493151D01*
X170199726Y-101690411D01*
X170129041Y-101843836D01*
X170011233Y-101953425D01*
X169846301Y-102019178D01*
X169634247Y-102041096D01*
X169464384Y-102026484D01*
X169309132Y-101982648D01*
X169168493Y-101909589D01*
X169168493Y-101624658D01*
X169313090Y-101723592D01*
X169465601Y-101782953D01*
X169626027Y-101802740D01*
X169747945Y-101783904D01*
X169839726Y-101727397D01*
X169897260Y-101634589D01*
X169916438Y-101506849D01*
X169901712Y-101384932D01*
X169857534Y-101287671D01*
X169779110Y-101207534D01*
X169661644Y-101136986D01*
X169493760Y-101049315D01*
X169362709Y-100957991D01*
X169268493Y-100863014D01*
X169183219Y-100701370D01*
X169154795Y-100506849D01*
X169190753Y-100287671D01*
X169298630Y-100123288D01*
X169408067Y-100047184D01*
X169544597Y-100001522D01*
X169708219Y-99986301D01*
X169867732Y-99995434D01*
G37*
G36*
X172607458Y-99995434D02*
G01*
X172760883Y-100022831D01*
X172908219Y-100068493D01*
X172908219Y-100342466D01*
X172696575Y-100254110D01*
X172483562Y-100224658D01*
X172363699Y-100242466D01*
X172272603Y-100295890D01*
X172215068Y-100380822D01*
X172195890Y-100493151D01*
X172220244Y-100632268D01*
X172293303Y-100742770D01*
X172415068Y-100824658D01*
X172601674Y-100918721D01*
X172745053Y-101014612D01*
X172845205Y-101112329D01*
X172933562Y-101281507D01*
X172963014Y-101493151D01*
X172939452Y-101690411D01*
X172868767Y-101843836D01*
X172750959Y-101953425D01*
X172586027Y-102019178D01*
X172373973Y-102041096D01*
X172204110Y-102026484D01*
X172048858Y-101982648D01*
X171908219Y-101909589D01*
X171908219Y-101627397D01*
X172051598Y-101724810D01*
X172204110Y-101783257D01*
X172365753Y-101802740D01*
X172487671Y-101783904D01*
X172579452Y-101727397D01*
X172636986Y-101634589D01*
X172656164Y-101506849D01*
X172641438Y-101384932D01*
X172597260Y-101287671D01*
X172518836Y-101207534D01*
X172401370Y-101136986D01*
X172233486Y-101049315D01*
X172102435Y-100957991D01*
X172008219Y-100863014D01*
X171922945Y-100701370D01*
X171894521Y-100506849D01*
X171930479Y-100287671D01*
X172038356Y-100123288D01*
X172147793Y-100047184D01*
X172284323Y-100001522D01*
X172447945Y-99986301D01*
X172607458Y-99995434D01*
G37*
G36*
X173977321Y-99995434D02*
G01*
X174130746Y-100022831D01*
X174278082Y-100068493D01*
X174278082Y-100342466D01*
X174066438Y-100254110D01*
X173853425Y-100224658D01*
X173733562Y-100242466D01*
X173642466Y-100295890D01*
X173584932Y-100380822D01*
X173565753Y-100493151D01*
X173590107Y-100632268D01*
X173663166Y-100742770D01*
X173784932Y-100824658D01*
X173971537Y-100918721D01*
X174114916Y-101014612D01*
X174215068Y-101112329D01*
X174303425Y-101281507D01*
X174332877Y-101493151D01*
X174309315Y-101690411D01*
X174238630Y-101843836D01*
X174120822Y-101953425D01*
X173955890Y-102019178D01*
X173743836Y-102041096D01*
X173573973Y-102026484D01*
X173418721Y-101982648D01*
X173278082Y-101909589D01*
X173278082Y-101624658D01*
X173422679Y-101723592D01*
X173575190Y-101782953D01*
X173735616Y-101802740D01*
X173857534Y-101783904D01*
X173949315Y-101727397D01*
X174006849Y-101634589D01*
X174026027Y-101506849D01*
X174011301Y-101384932D01*
X173967123Y-101287671D01*
X173888699Y-101207534D01*
X173771233Y-101136986D01*
X173603349Y-101049315D01*
X173472298Y-100957991D01*
X173378082Y-100863014D01*
X173292808Y-100701370D01*
X173264384Y-100506849D01*
X173300342Y-100287671D01*
X173408219Y-100123288D01*
X173517656Y-100047184D01*
X173654186Y-100001522D01*
X173817808Y-99986301D01*
X173977321Y-99995434D01*
G37*
G36*
X175347184Y-96570776D02*
G01*
X175500609Y-96598174D01*
X175647945Y-96643836D01*
X175647945Y-96917808D01*
X175436301Y-96829452D01*
X175223288Y-96800000D01*
X175103425Y-96817808D01*
X175012329Y-96871233D01*
X174954795Y-96956164D01*
X174935616Y-97068493D01*
X174959970Y-97207610D01*
X175033029Y-97318113D01*
X175154795Y-97400000D01*
X175341400Y-97494064D01*
X175484779Y-97589954D01*
X175584932Y-97687671D01*
X175673288Y-97856849D01*
X175702740Y-98068493D01*
X175679178Y-98265753D01*
X175608493Y-98419178D01*
X175490685Y-98528767D01*
X175325753Y-98594521D01*
X175113699Y-98616438D01*
X174943836Y-98601826D01*
X174788584Y-98557991D01*
X174647945Y-98484932D01*
X174647945Y-98200000D01*
X174792542Y-98298935D01*
X174945053Y-98358295D01*
X175105479Y-98378082D01*
X175227397Y-98359247D01*
X175319178Y-98302740D01*
X175376712Y-98209932D01*
X175395890Y-98082192D01*
X175381164Y-97960274D01*
X175336986Y-97863014D01*
X175258562Y-97782877D01*
X175141096Y-97712329D01*
X174973212Y-97624658D01*
X174842161Y-97533333D01*
X174747945Y-97438356D01*
X174662671Y-97276712D01*
X174634247Y-97082192D01*
X174670205Y-96863014D01*
X174778082Y-96698630D01*
X174887519Y-96622527D01*
X175024049Y-96576865D01*
X175187671Y-96561644D01*
X175347184Y-96570776D01*
G37*
G36*
X183566362Y-99995434D02*
G01*
X183719787Y-100022831D01*
X183867123Y-100068493D01*
X183867123Y-100342466D01*
X183655479Y-100254110D01*
X183442466Y-100224658D01*
X183322603Y-100242466D01*
X183231507Y-100295890D01*
X183173973Y-100380822D01*
X183154795Y-100493151D01*
X183179148Y-100632268D01*
X183252207Y-100742770D01*
X183373973Y-100824658D01*
X183560578Y-100918721D01*
X183703957Y-101014612D01*
X183804110Y-101112329D01*
X183892466Y-101281507D01*
X183921918Y-101493151D01*
X183898356Y-101690411D01*
X183827671Y-101843836D01*
X183709863Y-101953425D01*
X183544932Y-102019178D01*
X183332877Y-102041096D01*
X183163014Y-102026484D01*
X183007763Y-101982648D01*
X182867123Y-101909589D01*
X182867123Y-101627397D01*
X183010502Y-101724810D01*
X183163014Y-101783257D01*
X183324658Y-101802740D01*
X183446575Y-101783904D01*
X183538356Y-101727397D01*
X183595890Y-101634589D01*
X183615068Y-101506849D01*
X183600342Y-101384932D01*
X183556164Y-101287671D01*
X183477740Y-101207534D01*
X183360274Y-101136986D01*
X183192390Y-101049315D01*
X183061339Y-100957991D01*
X182967123Y-100863014D01*
X182881849Y-100701370D01*
X182853425Y-100506849D01*
X182889384Y-100287671D01*
X182997260Y-100123288D01*
X183106697Y-100047184D01*
X183243227Y-100001522D01*
X183406849Y-99986301D01*
X183566362Y-99995434D01*
G37*
G36*
X182194521Y-100009589D02*
G01*
X182343836Y-100079452D01*
X182457192Y-100206164D01*
X182539726Y-100400000D01*
X182577017Y-100569254D01*
X182599391Y-100773820D01*
X182606849Y-101013699D01*
X182599391Y-101253577D01*
X182577017Y-101458143D01*
X182539726Y-101627397D01*
X182457192Y-101821233D01*
X182343836Y-101947945D01*
X182194521Y-102017808D01*
X182004110Y-102041096D01*
X181813699Y-102017808D01*
X181664384Y-101947945D01*
X181551027Y-101821233D01*
X181468493Y-101627397D01*
X181431202Y-101458143D01*
X181408828Y-101253577D01*
X181401370Y-101013699D01*
X181691781Y-101013699D01*
X181700000Y-101283562D01*
X181724658Y-101490411D01*
X181765753Y-101634247D01*
X181862329Y-101760616D01*
X182004110Y-101802740D01*
X182145890Y-101760616D01*
X182242466Y-101634247D01*
X182283562Y-101490411D01*
X182308219Y-101283562D01*
X182316438Y-101013699D01*
X182308219Y-100743836D01*
X182283562Y-100536986D01*
X182242466Y-100393151D01*
X182145890Y-100266781D01*
X182004110Y-100224658D01*
X181862329Y-100266781D01*
X181765753Y-100393151D01*
X181724658Y-100536986D01*
X181700000Y-100743836D01*
X181691781Y-101013699D01*
X181401370Y-101013699D01*
X181408828Y-100773820D01*
X181431202Y-100569254D01*
X181468493Y-100400000D01*
X181551027Y-100206164D01*
X181664384Y-100079452D01*
X181813699Y-100009589D01*
X182004110Y-99986301D01*
X182194521Y-100009589D01*
G37*
G36*
X169819123Y-103430904D02*
G01*
X169986356Y-103490740D01*
X170105808Y-103590466D01*
X170177479Y-103730082D01*
X170201370Y-103909589D01*
X170179795Y-104064384D01*
X170115068Y-104194521D01*
X170014726Y-104291781D01*
X169886301Y-104347945D01*
X169886301Y-104350685D01*
X170031849Y-104408904D01*
X170150685Y-104523288D01*
X170229795Y-104679452D01*
X170256164Y-104863014D01*
X170238508Y-105047184D01*
X170185540Y-105197869D01*
X170097260Y-105315068D01*
X169973668Y-105398782D01*
X169814764Y-105449011D01*
X169620548Y-105465753D01*
X169467123Y-105459760D01*
X169464688Y-105459665D01*
X169311263Y-105441400D01*
X169160274Y-105410959D01*
X169160274Y-105208219D01*
X169467123Y-105208219D01*
X169620548Y-105230137D01*
X169768836Y-105207877D01*
X169873973Y-105141096D01*
X169936644Y-105025685D01*
X169957534Y-104857534D01*
X169934932Y-104686986D01*
X169867123Y-104569863D01*
X169750685Y-104502055D01*
X169582192Y-104479452D01*
X169467123Y-104479452D01*
X169467123Y-105208219D01*
X169160274Y-105208219D01*
X169160274Y-103668493D01*
X169467123Y-103668493D01*
X169467123Y-104246575D01*
X169546575Y-104246575D01*
X169708219Y-104227740D01*
X169820548Y-104171233D01*
X169886301Y-104072945D01*
X169908219Y-103928767D01*
X169874429Y-103771994D01*
X169773059Y-103677930D01*
X169604110Y-103646575D01*
X169467123Y-103668493D01*
X169160274Y-103668493D01*
X169160274Y-103465753D01*
X169378082Y-103424658D01*
X169604110Y-103410959D01*
X169819123Y-103430904D01*
G37*
G36*
X187654110Y-96583904D02*
G01*
X187787671Y-96650685D01*
X187890068Y-96774658D01*
X187967123Y-96968493D01*
X188002892Y-97139117D01*
X188024353Y-97345967D01*
X188031507Y-97589041D01*
X188024353Y-97832116D01*
X188002892Y-98038965D01*
X187967123Y-98209589D01*
X187890068Y-98403425D01*
X187787671Y-98527397D01*
X187654110Y-98594178D01*
X187483562Y-98616438D01*
X187313014Y-98594178D01*
X187226027Y-98550685D01*
X187179452Y-98527397D01*
X187077055Y-98403425D01*
X187000000Y-98209589D01*
X186984780Y-98136986D01*
X187261644Y-98136986D01*
X187346575Y-98330137D01*
X187483562Y-98386301D01*
X187627397Y-98323288D01*
X187675685Y-98231507D01*
X187713699Y-98082192D01*
X187731963Y-97948250D01*
X187742922Y-97783866D01*
X187746575Y-97589041D01*
X187744521Y-97440411D01*
X187738356Y-97312329D01*
X187261644Y-98136986D01*
X186984780Y-98136986D01*
X186964231Y-98038965D01*
X186942770Y-97832116D01*
X186935616Y-97589041D01*
X187220548Y-97589041D01*
X187226027Y-97816438D01*
X187694521Y-97002740D01*
X187612329Y-96839726D01*
X187483562Y-96791781D01*
X187339726Y-96854795D01*
X187291438Y-96946575D01*
X187253425Y-97095890D01*
X187235160Y-97229833D01*
X187224201Y-97394216D01*
X187220548Y-97589041D01*
X186935616Y-97589041D01*
X186942770Y-97345967D01*
X186964231Y-97139117D01*
X187000000Y-96968493D01*
X187077055Y-96774658D01*
X187179452Y-96650685D01*
X187313014Y-96583904D01*
X187483562Y-96561644D01*
X187654110Y-96583904D01*
G37*
G36*
X194595205Y-96575342D02*
G01*
X194763014Y-96616438D01*
X194763014Y-96876712D01*
X194611644Y-96819178D01*
X194453425Y-96800000D01*
X194303082Y-96829452D01*
X194202740Y-96917808D01*
X194159361Y-97020396D01*
X194129680Y-97171081D01*
X194113699Y-97369863D01*
X194119178Y-97369863D01*
X194260274Y-97281507D01*
X194415068Y-97252055D01*
X194628082Y-97289726D01*
X194773973Y-97402740D01*
X194836377Y-97526027D01*
X194873820Y-97694977D01*
X194886301Y-97909589D01*
X194871537Y-98139269D01*
X194827245Y-98320548D01*
X194753425Y-98453425D01*
X194648858Y-98543988D01*
X194512329Y-98598326D01*
X194343836Y-98616438D01*
X194171575Y-98597260D01*
X194038356Y-98539726D01*
X193938014Y-98432192D01*
X193864384Y-98263014D01*
X193830898Y-98112938D01*
X193810807Y-97929376D01*
X193809858Y-97898630D01*
X194110959Y-97898630D01*
X194125000Y-98128425D01*
X194167123Y-98275342D01*
X194239384Y-98354452D01*
X194343836Y-98380822D01*
X194454452Y-98356507D01*
X194528767Y-98283562D01*
X194570890Y-98141438D01*
X194584932Y-97909589D01*
X194572260Y-97702740D01*
X194534247Y-97575342D01*
X194360274Y-97487671D01*
X194250342Y-97511301D01*
X194172603Y-97582192D01*
X194126370Y-97708562D01*
X194110959Y-97898630D01*
X193809858Y-97898630D01*
X193804110Y-97712329D01*
X193808390Y-97504623D01*
X193821233Y-97319863D01*
X193842637Y-97158048D01*
X193872603Y-97019178D01*
X193956849Y-96802740D01*
X194072603Y-96663014D01*
X194225342Y-96586986D01*
X194420548Y-96561644D01*
X194595205Y-96575342D01*
G37*
D11*
%TO.C,J18*%
X241190000Y-132395000D02*
X242610000Y-132395000D01*
X241190000Y-144115000D02*
X241190000Y-132395000D01*
X242610000Y-132395000D02*
X242610000Y-136895000D01*
X242610000Y-136895000D02*
X247500000Y-136895000D01*
X243450000Y-132705000D02*
X244050000Y-132705000D01*
X243500000Y-138005000D02*
X243500000Y-143505000D01*
X243500000Y-143505000D02*
X244000000Y-143505000D01*
X243750000Y-133305000D02*
X243450000Y-132705000D01*
X244000000Y-138005000D02*
X243500000Y-138005000D01*
X244000000Y-143505000D02*
X244000000Y-138005000D01*
X244050000Y-132705000D02*
X243750000Y-133305000D01*
X246000000Y-138005000D02*
X246000000Y-143505000D01*
X246000000Y-143505000D02*
X246500000Y-143505000D01*
X246500000Y-138005000D02*
X246000000Y-138005000D01*
X246500000Y-143505000D02*
X246500000Y-138005000D01*
X247500000Y-144115000D02*
X241190000Y-144115000D01*
X247500000Y-144115000D02*
X253810000Y-144115000D01*
X248500000Y-138005000D02*
X248500000Y-143505000D01*
X248500000Y-143505000D02*
X249000000Y-143505000D01*
X249000000Y-138005000D02*
X248500000Y-138005000D01*
X249000000Y-143505000D02*
X249000000Y-138005000D01*
X251000000Y-138005000D02*
X251000000Y-143505000D01*
X251000000Y-143505000D02*
X251500000Y-143505000D01*
X251500000Y-138005000D02*
X251000000Y-138005000D01*
X251500000Y-143505000D02*
X251500000Y-138005000D01*
X252390000Y-132395000D02*
X252390000Y-136895000D01*
X252390000Y-136895000D02*
X247500000Y-136895000D01*
X253810000Y-132395000D02*
X252390000Y-132395000D01*
X253810000Y-144115000D02*
X253810000Y-132395000D01*
%TO.C,C11*%
X238094420Y-102240000D02*
X238375580Y-102240000D01*
X238094420Y-103260000D02*
X238375580Y-103260000D01*
%TO.C,R9*%
X221887742Y-88552500D02*
X222362258Y-88552500D01*
X221887742Y-89597500D02*
X222362258Y-89597500D01*
%TO.C,C15*%
X238725000Y-111665580D02*
X238725000Y-111384420D01*
X239745000Y-111665580D02*
X239745000Y-111384420D01*
%TO.C,R15*%
X249507936Y-96340000D02*
X250962064Y-96340000D01*
X249507936Y-98160000D02*
X250962064Y-98160000D01*
%TO.C,J16*%
X183830000Y-21322500D02*
X183830000Y-30742500D01*
X183830000Y-30742500D02*
X185490000Y-30742500D01*
X189300000Y-30742500D02*
X187590000Y-30742500D01*
X190050000Y-32032500D02*
X190350000Y-31432500D01*
X190350000Y-31432500D02*
X190650000Y-32032500D01*
X190650000Y-32032500D02*
X190050000Y-32032500D01*
X193060000Y-21322500D02*
X183830000Y-21322500D01*
X193060000Y-24632500D02*
X183830000Y-24632500D01*
X193060000Y-30742500D02*
X191400000Y-30742500D01*
X193060000Y-30742500D02*
X193060000Y-21322500D01*
%TO.C,U11*%
X183590000Y-112090000D02*
X184850000Y-112090000D01*
X183590000Y-115850000D02*
X183590000Y-112090000D01*
X190410000Y-112090000D02*
X189150000Y-112090000D01*
X190410000Y-115850000D02*
X190410000Y-112090000D01*
X183690000Y-117130000D02*
X183360000Y-117370000D01*
X183360000Y-116890000D01*
X183690000Y-117130000D01*
G36*
X183690000Y-117130000D02*
G01*
X183360000Y-117370000D01*
X183360000Y-116890000D01*
X183690000Y-117130000D01*
G37*
%TO.C,J2*%
X258467500Y-43360000D02*
X259067500Y-43660000D01*
X258467500Y-43960000D02*
X258467500Y-43360000D01*
X259067500Y-43660000D02*
X258467500Y-43960000D01*
X259757500Y-25020000D02*
X259757500Y-31180000D01*
X259757500Y-29820000D02*
X269177500Y-29820000D01*
X259757500Y-34990000D02*
X259757500Y-33280000D01*
X259757500Y-38800000D02*
X259757500Y-37090000D01*
X259757500Y-42610000D02*
X259757500Y-40900000D01*
X259757500Y-46070000D02*
X269177500Y-46070000D01*
X259757500Y-50870000D02*
X259757500Y-44710000D01*
X259757500Y-50870000D02*
X269177500Y-50870000D01*
X265867500Y-46070000D02*
X265867500Y-29820000D01*
X269177500Y-25020000D02*
X259757500Y-25020000D01*
X269177500Y-50870000D02*
X269177500Y-25020000D01*
%TO.C,D1*%
X197760000Y-68000000D02*
X198780000Y-68000000D01*
X199560000Y-66530000D02*
X199560000Y-69470000D01*
X199680000Y-66530000D02*
X199680000Y-69470000D01*
X199800000Y-66530000D02*
X199800000Y-69470000D01*
X205240000Y-68000000D02*
X204220000Y-68000000D01*
X198780000Y-66530000D02*
X204220000Y-66530000D01*
X204220000Y-69470000D01*
X198780000Y-69470000D01*
X198780000Y-66530000D01*
%TO.C,U5*%
X208940000Y-84440000D02*
X213060000Y-84440000D01*
X208940000Y-84560000D02*
X208940000Y-84440000D01*
X208940000Y-89560000D02*
X208940000Y-89440000D01*
X213060000Y-84440000D02*
X213060000Y-84560000D01*
X213060000Y-89440000D02*
X213060000Y-89560000D01*
X213060000Y-89560000D02*
X208940000Y-89560000D01*
X208340000Y-84550000D02*
X208100000Y-84220000D01*
X208580000Y-84220000D01*
X208340000Y-84550000D01*
G36*
X208340000Y-84550000D02*
G01*
X208100000Y-84220000D01*
X208580000Y-84220000D01*
X208340000Y-84550000D01*
G37*
%TO.C,U12*%
X201050000Y-43640000D02*
X199100000Y-43640000D01*
X201050000Y-43640000D02*
X203000000Y-43640000D01*
X201050000Y-48760000D02*
X199100000Y-48760000D01*
X201050000Y-48760000D02*
X203000000Y-48760000D01*
X198350000Y-43735000D02*
X198110000Y-43405000D01*
X198590000Y-43405000D01*
X198350000Y-43735000D01*
G36*
X198350000Y-43735000D02*
G01*
X198110000Y-43405000D01*
X198590000Y-43405000D01*
X198350000Y-43735000D01*
G37*
%TO.C,J15*%
X227690000Y-132395000D02*
X229110000Y-132395000D01*
X227690000Y-144115000D02*
X227690000Y-132395000D01*
X229110000Y-132395000D02*
X229110000Y-136895000D01*
X229110000Y-136895000D02*
X234000000Y-136895000D01*
X229950000Y-132705000D02*
X230550000Y-132705000D01*
X230000000Y-138005000D02*
X230000000Y-143505000D01*
X230000000Y-143505000D02*
X230500000Y-143505000D01*
X230250000Y-133305000D02*
X229950000Y-132705000D01*
X230500000Y-138005000D02*
X230000000Y-138005000D01*
X230500000Y-143505000D02*
X230500000Y-138005000D01*
X230550000Y-132705000D02*
X230250000Y-133305000D01*
X232500000Y-138005000D02*
X232500000Y-143505000D01*
X232500000Y-143505000D02*
X233000000Y-143505000D01*
X233000000Y-138005000D02*
X232500000Y-138005000D01*
X233000000Y-143505000D02*
X233000000Y-138005000D01*
X234000000Y-144115000D02*
X227690000Y-144115000D01*
X234000000Y-144115000D02*
X240310000Y-144115000D01*
X235000000Y-138005000D02*
X235000000Y-143505000D01*
X235000000Y-143505000D02*
X235500000Y-143505000D01*
X235500000Y-138005000D02*
X235000000Y-138005000D01*
X235500000Y-143505000D02*
X235500000Y-138005000D01*
X237500000Y-138005000D02*
X237500000Y-143505000D01*
X237500000Y-143505000D02*
X238000000Y-143505000D01*
X238000000Y-138005000D02*
X237500000Y-138005000D01*
X238000000Y-143505000D02*
X238000000Y-138005000D01*
X238890000Y-132395000D02*
X238890000Y-136895000D01*
X238890000Y-136895000D02*
X234000000Y-136895000D01*
X240310000Y-132395000D02*
X238890000Y-132395000D01*
X240310000Y-144115000D02*
X240310000Y-132395000D01*
%TO.C,C7*%
X180615000Y-56554437D02*
X180615000Y-66010000D01*
X180615000Y-66010000D02*
X184565000Y-66010000D01*
X181679437Y-55490000D02*
X180615000Y-56554437D01*
X181679437Y-55490000D02*
X184565000Y-55490000D01*
X190070563Y-55490000D02*
X187185000Y-55490000D01*
X190070563Y-55490000D02*
X191135000Y-56554437D01*
X191135000Y-56554437D02*
X191135000Y-66010000D01*
X191135000Y-66010000D02*
X187185000Y-66010000D01*
%TO.C,C2*%
X237844420Y-78240000D02*
X238125580Y-78240000D01*
X237844420Y-79260000D02*
X238125580Y-79260000D01*
%TO.C,R7*%
X249257936Y-83590000D02*
X250712064Y-83590000D01*
X249257936Y-85410000D02*
X250712064Y-85410000D01*
%TO.C,U10*%
X193845000Y-89905000D02*
X193845000Y-95105000D01*
X193845000Y-95105000D02*
X195495000Y-95105000D01*
X197495000Y-95105000D02*
X199145000Y-95105000D01*
X199145000Y-89905000D02*
X193845000Y-89905000D01*
X199145000Y-95105000D02*
X199145000Y-89905000D01*
X195495000Y-95105000D02*
G75*
G02*
X197495000Y-95105000I1000000J0D01*
G01*
%TO.C,R6*%
X191762742Y-108227500D02*
X192237258Y-108227500D01*
X191762742Y-109272500D02*
X192237258Y-109272500D01*
%TO.C,C14*%
X248594420Y-102240000D02*
X248875580Y-102240000D01*
X248594420Y-103260000D02*
X248875580Y-103260000D01*
%TO.C,C16*%
X248594420Y-114740000D02*
X248875580Y-114740000D01*
X248594420Y-115760000D02*
X248875580Y-115760000D01*
%TO.C,R25*%
X192227500Y-45512742D02*
X192227500Y-45987258D01*
X193272500Y-45512742D02*
X193272500Y-45987258D01*
%TO.C,U8*%
X241125000Y-108140000D02*
X241850000Y-108140000D01*
X241125000Y-108865000D02*
X241125000Y-108140000D01*
X241125000Y-113360000D02*
X241125000Y-112635000D01*
X241850000Y-113360000D02*
X241125000Y-113360000D01*
X245620000Y-108140000D02*
X246345000Y-108140000D01*
X246345000Y-108140000D02*
X246345000Y-108865000D01*
X246345000Y-112635000D02*
X246345000Y-113360000D01*
X246345000Y-113360000D02*
X245620000Y-113360000D01*
X240625000Y-109250000D02*
X240295000Y-109490000D01*
X240295000Y-109010000D01*
X240625000Y-109250000D01*
G36*
X240625000Y-109250000D02*
G01*
X240295000Y-109490000D01*
X240295000Y-109010000D01*
X240625000Y-109250000D01*
G37*
%TO.C,U4*%
X201425000Y-54550000D02*
X201425000Y-55500000D01*
X201425000Y-64950000D02*
X201425000Y-64000000D01*
X202790000Y-54550000D02*
X201425000Y-54550000D01*
X202790000Y-64950000D02*
X201425000Y-64950000D01*
X198600000Y-55540000D02*
X198260000Y-55070000D01*
X198940000Y-55070000D01*
X198600000Y-55540000D01*
G36*
X198600000Y-55540000D02*
G01*
X198260000Y-55070000D01*
X198940000Y-55070000D01*
X198600000Y-55540000D01*
G37*
%TO.C,R8*%
X249295436Y-72340000D02*
X250749564Y-72340000D01*
X249295436Y-74160000D02*
X250749564Y-74160000D01*
%TO.C,C6*%
X248159420Y-89720000D02*
X248440580Y-89720000D01*
X248159420Y-90740000D02*
X248440580Y-90740000D01*
%TO.C,J14*%
X223725000Y-110100000D02*
X223725000Y-111350000D01*
X223725000Y-111350000D02*
X224975000Y-111350000D01*
X224015000Y-98440000D02*
X224015000Y-111060000D01*
X224015000Y-111060000D02*
X229985000Y-111060000D01*
X224025000Y-98450000D02*
X224025000Y-100250000D01*
X224025000Y-100250000D02*
X224775000Y-100250000D01*
X224025000Y-101750000D02*
X224025000Y-107750000D01*
X224025000Y-107750000D02*
X224775000Y-107750000D01*
X224025000Y-109250000D02*
X224025000Y-111050000D01*
X224025000Y-111050000D02*
X224775000Y-111050000D01*
X224775000Y-98450000D02*
X224025000Y-98450000D01*
X224775000Y-100250000D02*
X224775000Y-98450000D01*
X224775000Y-101750000D02*
X224025000Y-101750000D01*
X224775000Y-107750000D02*
X224775000Y-101750000D01*
X224775000Y-109250000D02*
X224025000Y-109250000D01*
X224775000Y-111050000D02*
X224775000Y-109250000D01*
X226275000Y-98450000D02*
X226275000Y-99200000D01*
X226275000Y-99200000D02*
X229225000Y-99200000D01*
X226275000Y-110300000D02*
X229225000Y-110300000D01*
X226275000Y-111050000D02*
X226275000Y-110300000D01*
X229225000Y-99200000D02*
X229225000Y-104750000D01*
X229225000Y-110300000D02*
X229225000Y-104750000D01*
X229985000Y-98440000D02*
X224015000Y-98440000D01*
X229985000Y-111060000D02*
X229985000Y-98440000D01*
%TO.C,J12*%
X206640000Y-124595000D02*
X206640000Y-127255000D01*
X207310000Y-127255000D02*
X206640000Y-127255000D01*
X209850000Y-124595000D02*
X206640000Y-124595000D01*
X212390000Y-127255000D02*
X208830000Y-127255000D01*
X214930000Y-124595000D02*
X211370000Y-124595000D01*
X216450000Y-123385000D02*
X216450000Y-124595000D01*
X217120000Y-124595000D02*
X216450000Y-124595000D01*
X217120000Y-124595000D02*
X217120000Y-127255000D01*
X217120000Y-127255000D02*
X213910000Y-127255000D01*
%TO.C,R11*%
X201977500Y-102237258D02*
X201977500Y-101762742D01*
X203022500Y-102237258D02*
X203022500Y-101762742D01*
%TO.C,U7*%
X218525000Y-56340000D02*
X222285000Y-56340000D01*
X218525000Y-63160000D02*
X222285000Y-63160000D01*
X222285000Y-56340000D02*
X222285000Y-57600000D01*
X222285000Y-63160000D02*
X222285000Y-61900000D01*
X217245000Y-56440000D02*
X217005000Y-56110000D01*
X217485000Y-56110000D01*
X217245000Y-56440000D01*
G36*
X217245000Y-56440000D02*
G01*
X217005000Y-56110000D01*
X217485000Y-56110000D01*
X217245000Y-56440000D01*
G37*
%TO.C,R18*%
X247437742Y-54477500D02*
X247912258Y-54477500D01*
X247437742Y-55522500D02*
X247912258Y-55522500D01*
%TO.C,R13*%
X195987258Y-48227500D02*
X195512742Y-48227500D01*
X195987258Y-49272500D02*
X195512742Y-49272500D01*
%TO.C,J10*%
X205240000Y-21385000D02*
X205240000Y-33105000D01*
X205240000Y-33105000D02*
X206660000Y-33105000D01*
X206660000Y-28605000D02*
X210300000Y-28605000D01*
X206660000Y-33105000D02*
X206660000Y-28605000D01*
X207550000Y-21995000D02*
X207550000Y-27495000D01*
X207550000Y-27495000D02*
X208050000Y-27495000D01*
X208050000Y-21995000D02*
X207550000Y-21995000D01*
X208050000Y-27495000D02*
X208050000Y-21995000D01*
X210050000Y-21995000D02*
X210050000Y-27495000D01*
X210050000Y-27495000D02*
X210550000Y-27495000D01*
X210300000Y-21385000D02*
X205240000Y-21385000D01*
X210300000Y-21385000D02*
X215360000Y-21385000D01*
X210550000Y-21995000D02*
X210050000Y-21995000D01*
X210550000Y-27495000D02*
X210550000Y-21995000D01*
X212500000Y-32795000D02*
X212800000Y-32195000D01*
X212550000Y-21995000D02*
X212550000Y-27495000D01*
X212550000Y-27495000D02*
X213050000Y-27495000D01*
X212800000Y-32195000D02*
X213100000Y-32795000D01*
X213050000Y-21995000D02*
X212550000Y-21995000D01*
X213050000Y-27495000D02*
X213050000Y-21995000D01*
X213100000Y-32795000D02*
X212500000Y-32795000D01*
X213940000Y-28605000D02*
X210300000Y-28605000D01*
X213940000Y-33105000D02*
X213940000Y-28605000D01*
X215360000Y-21385000D02*
X215360000Y-33105000D01*
X215360000Y-33105000D02*
X213940000Y-33105000D01*
%TO.C,C13*%
X238725000Y-98890580D02*
X238725000Y-98609420D01*
X239745000Y-98890580D02*
X239745000Y-98609420D01*
%TO.C,J1*%
X258400000Y-70130000D02*
X259000000Y-70430000D01*
X258400000Y-70730000D02*
X258400000Y-70130000D01*
X259000000Y-70430000D02*
X258400000Y-70730000D01*
X259690000Y-51790000D02*
X259690000Y-57950000D01*
X259690000Y-56590000D02*
X269110000Y-56590000D01*
X259690000Y-61760000D02*
X259690000Y-60050000D01*
X259690000Y-65570000D02*
X259690000Y-63860000D01*
X259690000Y-69380000D02*
X259690000Y-67670000D01*
X259690000Y-72840000D02*
X269110000Y-72840000D01*
X259690000Y-77640000D02*
X259690000Y-71480000D01*
X259690000Y-77640000D02*
X269110000Y-77640000D01*
X265800000Y-72840000D02*
X265800000Y-56590000D01*
X269110000Y-51790000D02*
X259690000Y-51790000D01*
X269110000Y-77640000D02*
X269110000Y-51790000D01*
%TO.C,R2*%
X218927500Y-98712258D02*
X218927500Y-98237742D01*
X219972500Y-98712258D02*
X219972500Y-98237742D01*
%TO.C,J11*%
X194240000Y-21385000D02*
X194240000Y-33105000D01*
X194240000Y-33105000D02*
X195660000Y-33105000D01*
X195660000Y-28605000D02*
X199300000Y-28605000D01*
X195660000Y-33105000D02*
X195660000Y-28605000D01*
X196550000Y-21995000D02*
X196550000Y-27495000D01*
X196550000Y-27495000D02*
X197050000Y-27495000D01*
X197050000Y-21995000D02*
X196550000Y-21995000D01*
X197050000Y-27495000D02*
X197050000Y-21995000D01*
X199050000Y-21995000D02*
X199050000Y-27495000D01*
X199050000Y-27495000D02*
X199550000Y-27495000D01*
X199300000Y-21385000D02*
X194240000Y-21385000D01*
X199300000Y-21385000D02*
X204360000Y-21385000D01*
X199550000Y-21995000D02*
X199050000Y-21995000D01*
X199550000Y-27495000D02*
X199550000Y-21995000D01*
X201500000Y-32795000D02*
X201800000Y-32195000D01*
X201550000Y-21995000D02*
X201550000Y-27495000D01*
X201550000Y-27495000D02*
X202050000Y-27495000D01*
X201800000Y-32195000D02*
X202100000Y-32795000D01*
X202050000Y-21995000D02*
X201550000Y-21995000D01*
X202050000Y-27495000D02*
X202050000Y-21995000D01*
X202100000Y-32795000D02*
X201500000Y-32795000D01*
X202940000Y-28605000D02*
X199300000Y-28605000D01*
X202940000Y-33105000D02*
X202940000Y-28605000D01*
X204360000Y-21385000D02*
X204360000Y-33105000D01*
X204360000Y-33105000D02*
X202940000Y-33105000D01*
%TO.C,J13*%
X165185000Y-21322500D02*
X165185000Y-30742500D01*
X165185000Y-30742500D02*
X171145000Y-30742500D01*
X169985000Y-30742500D02*
X169985000Y-21322500D01*
X174645000Y-30742500D02*
X173245000Y-30742500D01*
X175395000Y-32032500D02*
X175695000Y-31432500D01*
X175695000Y-31432500D02*
X175995000Y-32032500D01*
X175995000Y-32032500D02*
X175395000Y-32032500D01*
X177905000Y-24632500D02*
X169985000Y-24632500D01*
X177905000Y-30742500D02*
X177905000Y-21322500D01*
X182705000Y-21322500D02*
X165185000Y-21322500D01*
X182705000Y-30742500D02*
X176745000Y-30742500D01*
X182705000Y-30742500D02*
X182705000Y-21322500D01*
%TO.C,U9*%
X193855000Y-79395000D02*
X193855000Y-84595000D01*
X193855000Y-84595000D02*
X199155000Y-84595000D01*
X195505000Y-79395000D02*
X193855000Y-79395000D01*
X199155000Y-79395000D02*
X197505000Y-79395000D01*
X199155000Y-84595000D02*
X199155000Y-79395000D01*
X197505000Y-79395000D02*
G75*
G02*
X195505000Y-79395000I-1000000J0D01*
G01*
%TO.C,C21*%
X208240000Y-108240000D02*
X208240000Y-112190000D01*
X208240000Y-118760000D02*
X208240000Y-114810000D01*
X217695563Y-108240000D02*
X208240000Y-108240000D01*
X217695563Y-118760000D02*
X208240000Y-118760000D01*
X218760000Y-109304437D02*
X217695563Y-108240000D01*
X218760000Y-109304437D02*
X218760000Y-112190000D01*
X218760000Y-117695563D02*
X217695563Y-118760000D01*
X218760000Y-117695563D02*
X218760000Y-114810000D01*
%TO.C,R1*%
X213137742Y-66227500D02*
X213612258Y-66227500D01*
X213137742Y-67272500D02*
X213612258Y-67272500D01*
%TO.C,R3*%
X221937742Y-85052500D02*
X222412258Y-85052500D01*
X221937742Y-86097500D02*
X222412258Y-86097500D01*
%TO.C,C5*%
X248344420Y-78240000D02*
X248625580Y-78240000D01*
X248344420Y-79260000D02*
X248625580Y-79260000D01*
%TO.C,C3*%
X238475000Y-75390580D02*
X238475000Y-75109420D01*
X239495000Y-75390580D02*
X239495000Y-75109420D01*
%TO.C,U2*%
X240875000Y-72640000D02*
X241600000Y-72640000D01*
X240875000Y-73365000D02*
X240875000Y-72640000D01*
X240875000Y-77860000D02*
X240875000Y-77135000D01*
X241600000Y-77860000D02*
X240875000Y-77860000D01*
X245370000Y-72640000D02*
X246095000Y-72640000D01*
X246095000Y-72640000D02*
X246095000Y-73365000D01*
X246095000Y-77135000D02*
X246095000Y-77860000D01*
X246095000Y-77860000D02*
X245370000Y-77860000D01*
X240375000Y-73750000D02*
X240045000Y-73990000D01*
X240045000Y-73510000D01*
X240375000Y-73750000D01*
G36*
X240375000Y-73750000D02*
G01*
X240045000Y-73990000D01*
X240045000Y-73510000D01*
X240375000Y-73750000D01*
G37*
%TO.C,J3*%
X249440000Y-21385000D02*
X249440000Y-33105000D01*
X249440000Y-33105000D02*
X250860000Y-33105000D01*
X250860000Y-28605000D02*
X253250000Y-28605000D01*
X250860000Y-33105000D02*
X250860000Y-28605000D01*
X251750000Y-21995000D02*
X251750000Y-27495000D01*
X251750000Y-27495000D02*
X252250000Y-27495000D01*
X252250000Y-21995000D02*
X251750000Y-21995000D01*
X252250000Y-27495000D02*
X252250000Y-21995000D01*
X253250000Y-21385000D02*
X249440000Y-21385000D01*
X253250000Y-21385000D02*
X257060000Y-21385000D01*
X254200000Y-32795000D02*
X254500000Y-32195000D01*
X254250000Y-21995000D02*
X254250000Y-27495000D01*
X254250000Y-27495000D02*
X254750000Y-27495000D01*
X254500000Y-32195000D02*
X254800000Y-32795000D01*
X254750000Y-21995000D02*
X254250000Y-21995000D01*
X254750000Y-27495000D02*
X254750000Y-21995000D01*
X254800000Y-32795000D02*
X254200000Y-32795000D01*
X255640000Y-28605000D02*
X253250000Y-28605000D01*
X255640000Y-33105000D02*
X255640000Y-28605000D01*
X257060000Y-21385000D02*
X257060000Y-33105000D01*
X257060000Y-33105000D02*
X255640000Y-33105000D01*
%TO.C,U6*%
X241125000Y-96190000D02*
X241850000Y-96190000D01*
X241125000Y-96915000D02*
X241125000Y-96190000D01*
X241125000Y-101410000D02*
X241125000Y-100685000D01*
X241850000Y-101410000D02*
X241125000Y-101410000D01*
X245620000Y-96190000D02*
X246345000Y-96190000D01*
X246345000Y-96190000D02*
X246345000Y-96915000D01*
X246345000Y-100685000D02*
X246345000Y-101410000D01*
X246345000Y-101410000D02*
X245620000Y-101410000D01*
X240625000Y-97300000D02*
X240295000Y-97540000D01*
X240295000Y-97060000D01*
X240625000Y-97300000D01*
G36*
X240625000Y-97300000D02*
G01*
X240295000Y-97540000D01*
X240295000Y-97060000D01*
X240625000Y-97300000D01*
G37*
%TO.C,C9*%
X213865000Y-59390580D02*
X213865000Y-59109420D01*
X214885000Y-59390580D02*
X214885000Y-59109420D01*
%TO.C,R4*%
X223112742Y-83352500D02*
X223587258Y-83352500D01*
X223112742Y-84397500D02*
X223587258Y-84397500D01*
%TO.C,J8*%
X216290000Y-21385000D02*
X216290000Y-33105000D01*
X216290000Y-33105000D02*
X217710000Y-33105000D01*
X217710000Y-28605000D02*
X221350000Y-28605000D01*
X217710000Y-33105000D02*
X217710000Y-28605000D01*
X218600000Y-21995000D02*
X218600000Y-27495000D01*
X218600000Y-27495000D02*
X219100000Y-27495000D01*
X219100000Y-21995000D02*
X218600000Y-21995000D01*
X219100000Y-27495000D02*
X219100000Y-21995000D01*
X221100000Y-21995000D02*
X221100000Y-27495000D01*
X221100000Y-27495000D02*
X221600000Y-27495000D01*
X221350000Y-21385000D02*
X216290000Y-21385000D01*
X221350000Y-21385000D02*
X226410000Y-21385000D01*
X221600000Y-21995000D02*
X221100000Y-21995000D01*
X221600000Y-27495000D02*
X221600000Y-21995000D01*
X223550000Y-32795000D02*
X223850000Y-32195000D01*
X223600000Y-21995000D02*
X223600000Y-27495000D01*
X223600000Y-27495000D02*
X224100000Y-27495000D01*
X223850000Y-32195000D02*
X224150000Y-32795000D01*
X224100000Y-21995000D02*
X223600000Y-21995000D01*
X224100000Y-27495000D02*
X224100000Y-21995000D01*
X224150000Y-32795000D02*
X223550000Y-32795000D01*
X224990000Y-28605000D02*
X221350000Y-28605000D01*
X224990000Y-33105000D02*
X224990000Y-28605000D01*
X226410000Y-21385000D02*
X226410000Y-33105000D01*
X226410000Y-33105000D02*
X224990000Y-33105000D01*
%TO.C,C1*%
X237844420Y-89990000D02*
X238125580Y-89990000D01*
X237844420Y-91010000D02*
X238125580Y-91010000D01*
%TO.C,R22*%
X249545436Y-111840000D02*
X250999564Y-111840000D01*
X249545436Y-113660000D02*
X250999564Y-113660000D01*
%TO.C,J17*%
X182940000Y-119490000D02*
X182940000Y-125460000D01*
X182940000Y-125460000D02*
X190560000Y-125460000D01*
X182950000Y-123200000D02*
X183700000Y-123200000D01*
X182950000Y-124700000D02*
X182950000Y-125450000D01*
X182950000Y-125450000D02*
X184750000Y-125450000D01*
X183700000Y-120250000D02*
X186750000Y-120250000D01*
X183700000Y-123200000D02*
X183700000Y-120250000D01*
X184750000Y-124700000D02*
X182950000Y-124700000D01*
X184750000Y-125450000D02*
X184750000Y-124700000D01*
X186250000Y-124700000D02*
X186250000Y-125450000D01*
X186250000Y-125450000D02*
X187250000Y-125450000D01*
X187250000Y-124700000D02*
X186250000Y-124700000D01*
X187250000Y-125450000D02*
X187250000Y-124700000D01*
X188750000Y-124700000D02*
X188750000Y-125450000D01*
X188750000Y-125450000D02*
X190550000Y-125450000D01*
X189600000Y-125750000D02*
X190850000Y-125750000D01*
X189800000Y-120250000D02*
X186750000Y-120250000D01*
X189800000Y-123200000D02*
X189800000Y-120250000D01*
X190550000Y-123200000D02*
X189800000Y-123200000D01*
X190550000Y-124700000D02*
X188750000Y-124700000D01*
X190550000Y-125450000D02*
X190550000Y-124700000D01*
X190560000Y-119490000D02*
X182940000Y-119490000D01*
X190560000Y-125460000D02*
X190560000Y-119490000D01*
X190850000Y-125750000D02*
X190850000Y-124500000D01*
%TO.C,R5*%
X210262742Y-89977500D02*
X210737258Y-89977500D01*
X210262742Y-91022500D02*
X210737258Y-91022500D01*
%TO.C,R20*%
X189737258Y-79977500D02*
X189262742Y-79977500D01*
X189737258Y-81022500D02*
X189262742Y-81022500D01*
%TO.C,R24*%
X201237258Y-42227500D02*
X200762742Y-42227500D01*
X201237258Y-43272500D02*
X200762742Y-43272500D01*
%TO.C,J4*%
X258400000Y-97070000D02*
X259000000Y-97370000D01*
X258400000Y-97670000D02*
X258400000Y-97070000D01*
X259000000Y-97370000D02*
X258400000Y-97670000D01*
X259690000Y-78730000D02*
X259690000Y-84890000D01*
X259690000Y-83530000D02*
X269110000Y-83530000D01*
X259690000Y-88700000D02*
X259690000Y-86990000D01*
X259690000Y-92510000D02*
X259690000Y-90800000D01*
X259690000Y-96320000D02*
X259690000Y-94610000D01*
X259690000Y-99780000D02*
X269110000Y-99780000D01*
X259690000Y-104580000D02*
X259690000Y-98420000D01*
X259690000Y-104580000D02*
X269110000Y-104580000D01*
X265800000Y-99780000D02*
X265800000Y-83530000D01*
X269110000Y-78730000D02*
X259690000Y-78730000D01*
X269110000Y-104580000D02*
X269110000Y-78730000D01*
%TO.C,C17*%
X198859420Y-112990000D02*
X199140580Y-112990000D01*
X198859420Y-114010000D02*
X199140580Y-114010000D01*
%TO.C,D4*%
X229835000Y-60750000D02*
X230745000Y-60750000D01*
X232170000Y-58030000D02*
X232170000Y-63470000D01*
X232290000Y-58030000D02*
X232290000Y-63470000D01*
X232410000Y-58030000D02*
X232410000Y-63470000D01*
X241395000Y-60750000D02*
X240485000Y-60750000D01*
X230745000Y-58030000D02*
X240485000Y-58030000D01*
X240485000Y-63470000D01*
X230745000Y-63470000D01*
X230745000Y-58030000D01*
%TO.C,R14*%
X249507936Y-108340000D02*
X250962064Y-108340000D01*
X249507936Y-110160000D02*
X250962064Y-110160000D01*
%TO.C,R12*%
X201977500Y-98262742D02*
X201977500Y-98737258D01*
X203022500Y-98262742D02*
X203022500Y-98737258D01*
%TO.C,R10*%
X223212742Y-86777500D02*
X223687258Y-86777500D01*
X223212742Y-87822500D02*
X223687258Y-87822500D01*
%TO.C,U1*%
X206390000Y-94890000D02*
X207340000Y-94890000D01*
X206390000Y-95840000D02*
X206390000Y-94890000D01*
X206390000Y-105110000D02*
X206390000Y-104160000D01*
X207340000Y-105110000D02*
X206390000Y-105110000D01*
X215660000Y-94890000D02*
X216610000Y-94890000D01*
X216610000Y-94890000D02*
X216610000Y-95840000D01*
X216610000Y-104160000D02*
X216610000Y-105110000D01*
X216610000Y-105110000D02*
X215660000Y-105110000D01*
X205750000Y-95840000D02*
X205410000Y-95370000D01*
X206090000Y-95370000D01*
X205750000Y-95840000D01*
G36*
X205750000Y-95840000D02*
G01*
X205410000Y-95370000D01*
X206090000Y-95370000D01*
X205750000Y-95840000D01*
G37*
%TO.C,TH1*%
X194750000Y-45380000D02*
X194750000Y-46000000D01*
X195670000Y-44460000D02*
G75*
G02*
X193830000Y-44460000I-920000J0D01*
G01*
X193830000Y-44460000D02*
G75*
G02*
X195670000Y-44460000I920000J0D01*
G01*
%TO.C,C10*%
X213865000Y-62890580D02*
X213865000Y-62609420D01*
X214885000Y-62890580D02*
X214885000Y-62609420D01*
%TO.C,R23*%
X249507936Y-99340000D02*
X250962064Y-99340000D01*
X249507936Y-101160000D02*
X250962064Y-101160000D01*
%TO.C,J6*%
X258467500Y-123860000D02*
X259067500Y-124160000D01*
X258467500Y-124460000D02*
X258467500Y-123860000D01*
X259067500Y-124160000D02*
X258467500Y-124460000D01*
X259757500Y-105520000D02*
X259757500Y-111680000D01*
X259757500Y-110320000D02*
X269177500Y-110320000D01*
X259757500Y-115490000D02*
X259757500Y-113780000D01*
X259757500Y-119300000D02*
X259757500Y-117590000D01*
X259757500Y-123110000D02*
X259757500Y-121400000D01*
X259757500Y-126570000D02*
X269177500Y-126570000D01*
X259757500Y-131370000D02*
X259757500Y-125210000D01*
X259757500Y-131370000D02*
X269177500Y-131370000D01*
X265867500Y-126570000D02*
X265867500Y-110320000D01*
X269177500Y-105520000D02*
X259757500Y-105520000D01*
X269177500Y-131370000D02*
X269177500Y-105520000D01*
%TO.C,C8*%
X218090000Y-64904437D02*
X218090000Y-66190000D01*
X218090000Y-64904437D02*
X219154437Y-63840000D01*
X218090000Y-69595563D02*
X218090000Y-68310000D01*
X218090000Y-69595563D02*
X219154437Y-70660000D01*
X219154437Y-63840000D02*
X224910000Y-63840000D01*
X219154437Y-70660000D02*
X224910000Y-70660000D01*
X224910000Y-63840000D02*
X224910000Y-66190000D01*
X224910000Y-70660000D02*
X224910000Y-68310000D01*
%TO.C,C12*%
X238094420Y-114740000D02*
X238375580Y-114740000D01*
X238094420Y-115760000D02*
X238375580Y-115760000D01*
%TO.C,C19*%
X225490000Y-70140580D02*
X225490000Y-69859420D01*
X226510000Y-70140580D02*
X226510000Y-69859420D01*
%TO.C,C4*%
X238475000Y-86640580D02*
X238475000Y-86359420D01*
X239495000Y-86640580D02*
X239495000Y-86359420D01*
%TO.C,U3*%
X240875000Y-83890000D02*
X241600000Y-83890000D01*
X240875000Y-84615000D02*
X240875000Y-83890000D01*
X240875000Y-89110000D02*
X240875000Y-88385000D01*
X241600000Y-89110000D02*
X240875000Y-89110000D01*
X245370000Y-83890000D02*
X246095000Y-83890000D01*
X246095000Y-83890000D02*
X246095000Y-84615000D01*
X246095000Y-88385000D02*
X246095000Y-89110000D01*
X246095000Y-89110000D02*
X245370000Y-89110000D01*
X240375000Y-85000000D02*
X240045000Y-85240000D01*
X240045000Y-84760000D01*
X240375000Y-85000000D01*
G36*
X240375000Y-85000000D02*
G01*
X240045000Y-85240000D01*
X240045000Y-84760000D01*
X240375000Y-85000000D01*
G37*
%TO.C,D2*%
X217250000Y-107610000D02*
X221660000Y-107610000D01*
X221660000Y-105390000D02*
X217250000Y-105390000D01*
X221660000Y-107610000D02*
X221660000Y-105390000D01*
%TO.C,C18*%
X205990000Y-47890580D02*
X205990000Y-47609420D01*
X207010000Y-47890580D02*
X207010000Y-47609420D01*
%TO.C,C20*%
X191990000Y-123359420D02*
X191990000Y-123640580D01*
X193010000Y-123359420D02*
X193010000Y-123640580D01*
%TO.C,J5*%
X238440000Y-21385000D02*
X238440000Y-33105000D01*
X238440000Y-33105000D02*
X239860000Y-33105000D01*
X239860000Y-28605000D02*
X243500000Y-28605000D01*
X239860000Y-33105000D02*
X239860000Y-28605000D01*
X240750000Y-21995000D02*
X240750000Y-27495000D01*
X240750000Y-27495000D02*
X241250000Y-27495000D01*
X241250000Y-21995000D02*
X240750000Y-21995000D01*
X241250000Y-27495000D02*
X241250000Y-21995000D01*
X243250000Y-21995000D02*
X243250000Y-27495000D01*
X243250000Y-27495000D02*
X243750000Y-27495000D01*
X243500000Y-21385000D02*
X238440000Y-21385000D01*
X243500000Y-21385000D02*
X248560000Y-21385000D01*
X243750000Y-21995000D02*
X243250000Y-21995000D01*
X243750000Y-27495000D02*
X243750000Y-21995000D01*
X245700000Y-32795000D02*
X246000000Y-32195000D01*
X245750000Y-21995000D02*
X245750000Y-27495000D01*
X245750000Y-27495000D02*
X246250000Y-27495000D01*
X246000000Y-32195000D02*
X246300000Y-32795000D01*
X246250000Y-21995000D02*
X245750000Y-21995000D01*
X246250000Y-27495000D02*
X246250000Y-21995000D01*
X246300000Y-32795000D02*
X245700000Y-32795000D01*
X247140000Y-28605000D02*
X243500000Y-28605000D01*
X247140000Y-33105000D02*
X247140000Y-28605000D01*
X248560000Y-21385000D02*
X248560000Y-33105000D01*
X248560000Y-33105000D02*
X247140000Y-33105000D01*
%TO.C,Q3*%
X247515000Y-56300000D02*
X252135000Y-56300000D01*
X247515000Y-66520000D02*
X247515000Y-56300000D01*
X250755000Y-56300000D02*
X250755000Y-66520000D01*
X252135000Y-56300000D02*
X252135000Y-66520000D01*
X252135000Y-59560000D02*
X250755000Y-59560000D01*
X252135000Y-63260000D02*
X250755000Y-63260000D01*
X252135000Y-66520000D02*
X247515000Y-66520000D01*
%TD*%
M02*
