%TF.GenerationSoftware,KiCad,Pcbnew,9.0.2*%
%TF.CreationDate,2025-12-04T12:20:34+01:00*%
%TF.ProjectId,TechStarter,54656368-5374-4617-9274-65722e6b6963,rev?*%
%TF.SameCoordinates,Original*%
%TF.FileFunction,Copper,L3,Inr*%
%TF.FilePolarity,Positive*%
%FSLAX46Y46*%
G04 Gerber Fmt 4.6, Leading zero omitted, Abs format (unit mm)*
G04 Created by KiCad (PCBNEW 9.0.2) date 2025-12-04 12:20:34*
%MOMM*%
%LPD*%
G01*
G04 APERTURE LIST*
G04 Aperture macros list*
%AMRoundRect*
0 Rectangle with rounded corners*
0 $1 Rounding radius*
0 $2 $3 $4 $5 $6 $7 $8 $9 X,Y pos of 4 corners*
0 Add a 4 corners polygon primitive as box body*
4,1,4,$2,$3,$4,$5,$6,$7,$8,$9,$2,$3,0*
0 Add four circle primitives for the rounded corners*
1,1,$1+$1,$2,$3*
1,1,$1+$1,$4,$5*
1,1,$1+$1,$6,$7*
1,1,$1+$1,$8,$9*
0 Add four rect primitives between the rounded corners*
20,1,$1+$1,$2,$3,$4,$5,0*
20,1,$1+$1,$4,$5,$6,$7,0*
20,1,$1+$1,$6,$7,$8,$9,0*
20,1,$1+$1,$8,$9,$2,$3,0*%
G04 Aperture macros list end*
%TA.AperFunction,ComponentPad*%
%ADD10RoundRect,0.250000X0.600000X0.725000X-0.600000X0.725000X-0.600000X-0.725000X0.600000X-0.725000X0*%
%TD*%
%TA.AperFunction,ComponentPad*%
%ADD11O,1.700000X1.950000*%
%TD*%
%TA.AperFunction,ComponentPad*%
%ADD12RoundRect,0.250000X-0.600000X-0.725000X0.600000X-0.725000X0.600000X0.725000X-0.600000X0.725000X0*%
%TD*%
%TA.AperFunction,ComponentPad*%
%ADD13RoundRect,0.250000X0.650000X1.550000X-0.650000X1.550000X-0.650000X-1.550000X0.650000X-1.550000X0*%
%TD*%
%TA.AperFunction,ComponentPad*%
%ADD14O,1.800000X3.600000*%
%TD*%
%TA.AperFunction,ComponentPad*%
%ADD15RoundRect,0.250000X1.550000X-0.650000X1.550000X0.650000X-1.550000X0.650000X-1.550000X-0.650000X0*%
%TD*%
%TA.AperFunction,ComponentPad*%
%ADD16O,3.600000X1.800000*%
%TD*%
%TA.AperFunction,ComponentPad*%
%ADD17RoundRect,0.249999X-0.850001X-0.850001X0.850001X-0.850001X0.850001X0.850001X-0.850001X0.850001X0*%
%TD*%
%TA.AperFunction,ComponentPad*%
%ADD18C,2.200000*%
%TD*%
%TA.AperFunction,HeatsinkPad*%
%ADD19C,0.500000*%
%TD*%
%TA.AperFunction,ComponentPad*%
%ADD20RoundRect,0.250000X0.550000X0.550000X-0.550000X0.550000X-0.550000X-0.550000X0.550000X-0.550000X0*%
%TD*%
%TA.AperFunction,ComponentPad*%
%ADD21C,1.600000*%
%TD*%
%TA.AperFunction,ComponentPad*%
%ADD22RoundRect,0.250000X0.725000X-0.600000X0.725000X0.600000X-0.725000X0.600000X-0.725000X-0.600000X0*%
%TD*%
%TA.AperFunction,ComponentPad*%
%ADD23O,1.950000X1.700000*%
%TD*%
%TA.AperFunction,ComponentPad*%
%ADD24RoundRect,0.250000X-0.550000X-0.550000X0.550000X-0.550000X0.550000X0.550000X-0.550000X0.550000X0*%
%TD*%
%TA.AperFunction,ComponentPad*%
%ADD25RoundRect,0.250000X0.600000X0.750000X-0.600000X0.750000X-0.600000X-0.750000X0.600000X-0.750000X0*%
%TD*%
%TA.AperFunction,ComponentPad*%
%ADD26O,1.700000X2.000000*%
%TD*%
%TA.AperFunction,ComponentPad*%
%ADD27RoundRect,0.250000X-1.350000X-1.350000X1.350000X-1.350000X1.350000X1.350000X-1.350000X1.350000X0*%
%TD*%
%TA.AperFunction,ComponentPad*%
%ADD28C,3.200000*%
%TD*%
%TA.AperFunction,ComponentPad*%
%ADD29C,1.400000*%
%TD*%
%TA.AperFunction,ComponentPad*%
%ADD30R,2.000000X1.905000*%
%TD*%
%TA.AperFunction,ComponentPad*%
%ADD31O,2.000000X1.905000*%
%TD*%
%TA.AperFunction,ViaPad*%
%ADD32C,0.600000*%
%TD*%
%TA.AperFunction,Conductor*%
%ADD33C,1.000000*%
%TD*%
%TA.AperFunction,Conductor*%
%ADD34C,0.200000*%
%TD*%
%TA.AperFunction,Conductor*%
%ADD35C,0.300000*%
%TD*%
G04 APERTURE END LIST*
D10*
%TO.N,+3.3V*%
%TO.C,J7*%
X235000000Y-30695000D03*
D11*
%TO.N,IS5*%
X232500000Y-30695000D03*
%TO.N,GND*%
X230000000Y-30695000D03*
%TD*%
D12*
%TO.N,+3.3V*%
%TO.C,J9*%
X257250000Y-134805000D03*
D11*
%TO.N,IS1*%
X259750000Y-134805000D03*
%TO.N,GND*%
X262250000Y-134805000D03*
%TD*%
D12*
%TO.N,+3.3V*%
%TO.C,J18*%
X243750000Y-134805000D03*
D11*
%TO.N,EB1*%
X246250000Y-134805000D03*
%TO.N,+3.3V*%
X248750000Y-134805000D03*
%TO.N,EB2*%
X251250000Y-134805000D03*
%TD*%
D13*
%TO.N,+24V*%
%TO.C,J16*%
X190350000Y-29432500D03*
D14*
%TO.N,Net-(D4-A)*%
X186540000Y-29432500D03*
%TD*%
D15*
%TO.N,Net-(J2-Pin_1)*%
%TO.C,J2*%
X261067500Y-43660000D03*
D16*
%TO.N,Net-(J2-Pin_2)*%
X261067500Y-39850000D03*
%TO.N,Net-(J2-Pin_3)*%
X261067500Y-36040000D03*
%TO.N,Net-(J2-Pin_4)*%
X261067500Y-32230000D03*
%TD*%
D17*
%TO.N,Net-(D1-K)*%
%TO.C,D1*%
X196420000Y-68000000D03*
D18*
%TO.N,GND*%
X206580000Y-68000000D03*
%TD*%
D19*
%TO.N,GND*%
%TO.C,U12*%
X200350000Y-45000000D03*
X200350000Y-46200000D03*
X200350000Y-47400000D03*
X201750000Y-45000000D03*
X201750000Y-46200000D03*
X201750000Y-47400000D03*
%TD*%
D12*
%TO.N,+3.3V*%
%TO.C,J15*%
X230250000Y-134805000D03*
D11*
%TO.N,EB3*%
X232750000Y-134805000D03*
%TO.N,+3.3V*%
X235250000Y-134805000D03*
%TO.N,EB4*%
X237750000Y-134805000D03*
%TD*%
D20*
%TO.N,Net-(R11-Pad2)*%
%TO.C,U10*%
X200305000Y-93775000D03*
D21*
%TO.N,GND*%
X200305000Y-91235000D03*
%TO.N,Net-(J3-Pin_2)*%
X192685000Y-91235000D03*
%TO.N,+24V*%
X192685000Y-93775000D03*
%TD*%
D19*
%TO.N,GND*%
%TO.C,U8*%
X242235000Y-109250000D03*
X242235000Y-110250000D03*
X242235000Y-111250000D03*
X242235000Y-112250000D03*
X243235000Y-109250000D03*
X243235000Y-110250000D03*
X243235000Y-111250000D03*
X243235000Y-112250000D03*
X244235000Y-109250000D03*
X244235000Y-110250000D03*
X244235000Y-111250000D03*
X244235000Y-112250000D03*
X245235000Y-109250000D03*
X245235000Y-110250000D03*
X245235000Y-111250000D03*
X245235000Y-112250000D03*
%TD*%
D22*
%TO.N,+5V*%
%TO.C,J14*%
X226475000Y-108500000D03*
D23*
%TO.N,TX6*%
X226475000Y-106000000D03*
%TO.N,RX6*%
X226475000Y-103500000D03*
%TO.N,GND*%
X226475000Y-101000000D03*
%TD*%
D10*
%TO.N,+3.3V*%
%TO.C,J10*%
X212800000Y-30695000D03*
D11*
%TO.N,IS2*%
X210300000Y-30695000D03*
%TO.N,GND*%
X207800000Y-30695000D03*
%TD*%
D15*
%TO.N,Net-(J1-Pin_1)*%
%TO.C,J1*%
X261000000Y-70430000D03*
D16*
%TO.N,Net-(J1-Pin_2)*%
X261000000Y-66620000D03*
%TO.N,Net-(J1-Pin_3)*%
X261000000Y-62810000D03*
%TO.N,Net-(J1-Pin_4)*%
X261000000Y-59000000D03*
%TD*%
D10*
%TO.N,+3.3V*%
%TO.C,J11*%
X201800000Y-30695000D03*
D11*
%TO.N,IS3*%
X199300000Y-30695000D03*
%TO.N,GND*%
X196800000Y-30695000D03*
%TD*%
D13*
%TO.N,GND*%
%TO.C,J13*%
X175695000Y-29432500D03*
D14*
%TO.N,+24V*%
X172195000Y-29432500D03*
%TD*%
D24*
%TO.N,Net-(R20-Pad1)*%
%TO.C,U9*%
X192695000Y-80725000D03*
D21*
%TO.N,GND*%
X192695000Y-83265000D03*
X200315000Y-83265000D03*
%TO.N,OutputFromRobot*%
X200315000Y-80725000D03*
%TD*%
D19*
%TO.N,GND*%
%TO.C,U2*%
X241985000Y-73750000D03*
X241985000Y-74750000D03*
X241985000Y-75750000D03*
X241985000Y-76750000D03*
X242985000Y-73750000D03*
X242985000Y-74750000D03*
X242985000Y-75750000D03*
X242985000Y-76750000D03*
X243985000Y-73750000D03*
X243985000Y-74750000D03*
X243985000Y-75750000D03*
X243985000Y-76750000D03*
X244985000Y-73750000D03*
X244985000Y-74750000D03*
X244985000Y-75750000D03*
X244985000Y-76750000D03*
%TD*%
D25*
%TO.N,Net-(J3-Pin_1)*%
%TO.C,J3*%
X254500000Y-30695000D03*
D26*
%TO.N,Net-(J3-Pin_2)*%
X252000000Y-30695000D03*
%TD*%
D19*
%TO.N,GND*%
%TO.C,U6*%
X242235000Y-97300000D03*
X242235000Y-98300000D03*
X242235000Y-99300000D03*
X242235000Y-100300000D03*
X243235000Y-97300000D03*
X243235000Y-98300000D03*
X243235000Y-99300000D03*
X243235000Y-100300000D03*
X244235000Y-97300000D03*
X244235000Y-98300000D03*
X244235000Y-99300000D03*
X244235000Y-100300000D03*
X245235000Y-97300000D03*
X245235000Y-98300000D03*
X245235000Y-99300000D03*
X245235000Y-100300000D03*
%TD*%
D10*
%TO.N,+3.3V*%
%TO.C,J8*%
X223850000Y-30695000D03*
D11*
%TO.N,IS6*%
X221350000Y-30695000D03*
%TO.N,GND*%
X218850000Y-30695000D03*
%TD*%
D25*
%TO.N,+BATT*%
%TO.C,J17*%
X188000000Y-123000000D03*
D26*
%TO.N,GND*%
X185500000Y-123000000D03*
%TD*%
D15*
%TO.N,Net-(J4-Pin_1)*%
%TO.C,J4*%
X261000000Y-97370000D03*
D16*
%TO.N,Net-(J4-Pin_2)*%
X261000000Y-93560000D03*
%TO.N,Net-(J4-Pin_3)*%
X261000000Y-89750000D03*
%TO.N,Net-(J4-Pin_4)*%
X261000000Y-85940000D03*
%TD*%
D27*
%TO.N,+24V*%
%TO.C,D4*%
X227995000Y-60750000D03*
D28*
%TO.N,Net-(D4-A)*%
X243235000Y-60750000D03*
%TD*%
D29*
%TO.N,Net-(U12-TEMP)*%
%TO.C,TH1*%
X194750000Y-44460000D03*
%TO.N,GND*%
X194750000Y-47000000D03*
%TD*%
D15*
%TO.N,Net-(J6-Pin_1)*%
%TO.C,J6*%
X261067500Y-124160000D03*
D16*
%TO.N,Net-(J6-Pin_2)*%
X261067500Y-120350000D03*
%TO.N,Net-(J6-Pin_3)*%
X261067500Y-116540000D03*
%TO.N,Net-(J6-Pin_4)*%
X261067500Y-112730000D03*
%TD*%
D19*
%TO.N,GND*%
%TO.C,U3*%
X241985000Y-85000000D03*
X241985000Y-86000000D03*
X241985000Y-87000000D03*
X241985000Y-88000000D03*
X242985000Y-85000000D03*
X242985000Y-86000000D03*
X242985000Y-87000000D03*
X242985000Y-88000000D03*
X243985000Y-85000000D03*
X243985000Y-86000000D03*
X243985000Y-87000000D03*
X243985000Y-88000000D03*
X244985000Y-85000000D03*
X244985000Y-86000000D03*
X244985000Y-87000000D03*
X244985000Y-88000000D03*
%TD*%
D10*
%TO.N,+3.3V*%
%TO.C,J5*%
X246000000Y-30695000D03*
D11*
%TO.N,IS4*%
X243500000Y-30695000D03*
%TO.N,GND*%
X241000000Y-30695000D03*
%TD*%
D30*
%TO.N,Net-(Q3-G)*%
%TO.C,Q3*%
X248875000Y-58870000D03*
D31*
%TO.N,Net-(D4-A)*%
X248875000Y-61410000D03*
%TO.N,GND*%
X248875000Y-63950000D03*
%TD*%
D32*
%TO.N,GND*%
X185000000Y-120000000D03*
X187000000Y-120000000D03*
X232500000Y-122500000D03*
X182500000Y-57500000D03*
X257500000Y-27500000D03*
X205000000Y-117500000D03*
X167500000Y-110000000D03*
X192500000Y-37500000D03*
X252500000Y-60000000D03*
X197500000Y-135000000D03*
X172500000Y-82500000D03*
X180000000Y-47500000D03*
X195000000Y-83265000D03*
X192500000Y-40000000D03*
X170000000Y-52500000D03*
X230000000Y-77500000D03*
X175000000Y-72500000D03*
X172500000Y-102500000D03*
X240000000Y-117500000D03*
X170000000Y-47500000D03*
X245500000Y-59000000D03*
X235000000Y-55000000D03*
X182500000Y-47500000D03*
X180000000Y-37500000D03*
X230000000Y-82500000D03*
X191000000Y-67000000D03*
X257500000Y-100000000D03*
X245000000Y-37500000D03*
X217500000Y-40000000D03*
X190000000Y-47500000D03*
X232500000Y-52500000D03*
X217500000Y-45000000D03*
X195000000Y-85000000D03*
X232500000Y-57500000D03*
X247500000Y-30000000D03*
X190000000Y-62500000D03*
X232500000Y-62500000D03*
X202500000Y-110000000D03*
X235000000Y-45000000D03*
X170000000Y-55000000D03*
X230000000Y-92500000D03*
X202000000Y-66000000D03*
X167500000Y-32500000D03*
X172500000Y-127500000D03*
X257500000Y-57500000D03*
X217500000Y-75000000D03*
X252500000Y-122500000D03*
X175000000Y-135000000D03*
X227500000Y-65000000D03*
X195000000Y-97500000D03*
X257500000Y-47500000D03*
X235000000Y-47500000D03*
X177500000Y-97500000D03*
X187500000Y-105000000D03*
X202000000Y-55500000D03*
X190000000Y-45000000D03*
X235000000Y-115000000D03*
X175000000Y-47500000D03*
X167500000Y-35000000D03*
X195000000Y-130000000D03*
X257500000Y-122500000D03*
X202500000Y-105000000D03*
X245000000Y-52500000D03*
X172500000Y-60000000D03*
X177500000Y-135000000D03*
X180000000Y-125000000D03*
X175000000Y-60000000D03*
X167500000Y-55000000D03*
X239000000Y-68500000D03*
X205000000Y-110000000D03*
X170000000Y-102500000D03*
X187500000Y-85000000D03*
X185000000Y-107500000D03*
X220000000Y-47500000D03*
X225000000Y-40000000D03*
X257500000Y-107500000D03*
X190000000Y-107500000D03*
X185000000Y-42500000D03*
X217500000Y-125000000D03*
X252500000Y-62500000D03*
X255000000Y-107500000D03*
X252500000Y-127500000D03*
X256500000Y-118000000D03*
X208000000Y-101000000D03*
X197500000Y-97500000D03*
X255000000Y-82500000D03*
X170000000Y-132500000D03*
X180000000Y-40000000D03*
X180000000Y-117500000D03*
X175000000Y-87500000D03*
X215000000Y-127500000D03*
X167500000Y-87500000D03*
X250000000Y-40000000D03*
X187500000Y-135000000D03*
X241000000Y-92500000D03*
X262500000Y-30000000D03*
X207500000Y-120000000D03*
X230000000Y-52500000D03*
X177500000Y-62500000D03*
X180000000Y-112500000D03*
X190000000Y-77500000D03*
X180000000Y-32500000D03*
X257500000Y-37500000D03*
X245000000Y-120000000D03*
X172500000Y-125000000D03*
X175000000Y-82500000D03*
X167500000Y-70000000D03*
X242500000Y-120000000D03*
X255000000Y-67500000D03*
X170000000Y-77500000D03*
X175000000Y-102500000D03*
X167500000Y-72500000D03*
X239000000Y-95500000D03*
X200000000Y-110000000D03*
X195000000Y-100000000D03*
X202500000Y-80000000D03*
X220000000Y-127500000D03*
X195000000Y-132500000D03*
X170000000Y-37500000D03*
X182500000Y-135000000D03*
X185000000Y-102500000D03*
X262500000Y-77500000D03*
X202500000Y-82500000D03*
X170000000Y-62500000D03*
X238000000Y-57500000D03*
X254972500Y-127527500D03*
X255000000Y-97500000D03*
X200000000Y-75000000D03*
X170000000Y-45000000D03*
X167500000Y-102500000D03*
X215000000Y-122500000D03*
X262500000Y-110000000D03*
X205000000Y-90000000D03*
X262500000Y-72500000D03*
X172500000Y-85000000D03*
X180000000Y-95000000D03*
X192500000Y-50000000D03*
X187500000Y-127500000D03*
X192500000Y-87500000D03*
X190000000Y-57500000D03*
X217500000Y-47500000D03*
X232500000Y-82500000D03*
X255000000Y-122500000D03*
X177500000Y-87500000D03*
X255000000Y-100000000D03*
X187500000Y-107500000D03*
X177500000Y-110000000D03*
X190000000Y-95000000D03*
X232500000Y-103500000D03*
X177500000Y-100000000D03*
X230000000Y-97500000D03*
X167500000Y-47500000D03*
X182500000Y-62500000D03*
X252500000Y-27500000D03*
X195000000Y-95000000D03*
X190000000Y-97500000D03*
X187500000Y-97500000D03*
X200000000Y-65000000D03*
X172500000Y-62500000D03*
X236000000Y-61500000D03*
X205000000Y-115000000D03*
X237500000Y-37500000D03*
X250000000Y-27500000D03*
X175000000Y-45000000D03*
X252500000Y-85000000D03*
X197500000Y-90000000D03*
X262500000Y-57500000D03*
X235000000Y-125000000D03*
X247500000Y-122500000D03*
X230000000Y-65000000D03*
X237500000Y-117500000D03*
X217500000Y-37500000D03*
X170000000Y-107500000D03*
X205000000Y-75000000D03*
X250000000Y-117500000D03*
X235000000Y-110000000D03*
X180000000Y-100000000D03*
X170000000Y-100000000D03*
X255000000Y-105000000D03*
X230000000Y-42500000D03*
X185000000Y-97500000D03*
X255000000Y-132500000D03*
X177500000Y-47500000D03*
X172500000Y-92500000D03*
X225000000Y-135000000D03*
X250000000Y-127500000D03*
X235000000Y-90000000D03*
X190000000Y-132500000D03*
X177500000Y-75000000D03*
X175000000Y-40000000D03*
X235000000Y-117500000D03*
X197500000Y-92500000D03*
X227500000Y-112500000D03*
X250000000Y-67500000D03*
X250000000Y-125000000D03*
X167500000Y-50000000D03*
X230000000Y-55000000D03*
X205000000Y-82500000D03*
X182500000Y-40000000D03*
X167500000Y-105000000D03*
X175000000Y-52500000D03*
X170000000Y-87500000D03*
X204000000Y-67500000D03*
X172500000Y-90000000D03*
X200000000Y-120000000D03*
X182500000Y-60000000D03*
X232500000Y-60000000D03*
X185000000Y-60000000D03*
X227500000Y-42500000D03*
X175000000Y-132500000D03*
X177500000Y-70000000D03*
X255000000Y-95000000D03*
X212500000Y-122500000D03*
X172500000Y-72500000D03*
X197500000Y-110000000D03*
X167500000Y-112500000D03*
X238500000Y-81000000D03*
X190000000Y-50000000D03*
X212500000Y-35000000D03*
X187500000Y-42500000D03*
X220000000Y-72500000D03*
X197500000Y-115000000D03*
X227500000Y-82500000D03*
X222500000Y-35000000D03*
X262500000Y-52500000D03*
X182500000Y-90000000D03*
X257500000Y-115000000D03*
X227000000Y-95500000D03*
X245000000Y-67500000D03*
X210000000Y-50000000D03*
X207500000Y-135000000D03*
X180000000Y-87500000D03*
X252500000Y-82500000D03*
X177500000Y-125000000D03*
X252500000Y-87500000D03*
X172500000Y-52500000D03*
X257500000Y-125000000D03*
X232500000Y-65000000D03*
X182500000Y-122500000D03*
X257500000Y-87500000D03*
X242500000Y-117500000D03*
X257500000Y-97500000D03*
X177500000Y-60000000D03*
X210000000Y-53500000D03*
X172500000Y-130000000D03*
X167500000Y-80000000D03*
X170000000Y-122500000D03*
X190000000Y-135000000D03*
X242500000Y-65000000D03*
X187500000Y-75000000D03*
X240000000Y-40000000D03*
X252500000Y-117500000D03*
X210000000Y-120000000D03*
X172500000Y-112500000D03*
X245000000Y-125000000D03*
X177500000Y-95000000D03*
X241000000Y-80000000D03*
X255000000Y-92500000D03*
X187500000Y-40000000D03*
X180000000Y-97500000D03*
X250000000Y-32500000D03*
X192500000Y-132500000D03*
X257500000Y-40000000D03*
X187500000Y-130000000D03*
X252500000Y-102500000D03*
X175000000Y-70000000D03*
X202500000Y-85000000D03*
X232500000Y-97500000D03*
X195000000Y-127500000D03*
X238000000Y-59500000D03*
X250000000Y-35000000D03*
X220000000Y-135000000D03*
X177500000Y-112500000D03*
X172500000Y-75000000D03*
X175000000Y-110000000D03*
X167500000Y-95000000D03*
X170000000Y-82500000D03*
X202500000Y-120000000D03*
X235000000Y-112500000D03*
X182500000Y-82500000D03*
X167500000Y-90000000D03*
X177500000Y-42500000D03*
X170000000Y-65000000D03*
X225000000Y-47500000D03*
X177500000Y-57500000D03*
X252500000Y-105000000D03*
X242500000Y-37500000D03*
X192500000Y-85000000D03*
X247500000Y-40000000D03*
X175000000Y-92500000D03*
X185000000Y-105000000D03*
X262500000Y-100000000D03*
X192500000Y-67500000D03*
X238000000Y-107500000D03*
X227500000Y-47500000D03*
X262500000Y-115000000D03*
X195000000Y-80000000D03*
X167500000Y-120000000D03*
X182500000Y-75000000D03*
X200000000Y-130000000D03*
X170000000Y-57500000D03*
X252500000Y-57500000D03*
X241000000Y-90500000D03*
X185000000Y-95000000D03*
X177500000Y-45000000D03*
X197500000Y-130000000D03*
X180000000Y-102500000D03*
X202500000Y-122500000D03*
X217500000Y-35000000D03*
X256000000Y-113500000D03*
X202500000Y-95000000D03*
X205000000Y-120000000D03*
X229000000Y-69500000D03*
X185000000Y-47500000D03*
X232500000Y-90000000D03*
X172500000Y-77500000D03*
X247500000Y-27500000D03*
X257500000Y-95000000D03*
X252500000Y-100000000D03*
X257500000Y-110000000D03*
X170000000Y-112500000D03*
X205000000Y-107500000D03*
X170000000Y-135000000D03*
X185000000Y-80000000D03*
X180000000Y-50000000D03*
X187500000Y-82500000D03*
X175000000Y-117500000D03*
X180000000Y-122500000D03*
X245000000Y-45000000D03*
X262500000Y-132500000D03*
X177500000Y-102500000D03*
X177500000Y-50000000D03*
X257500000Y-75000000D03*
X167500000Y-62500000D03*
X192500000Y-102500000D03*
X185000000Y-50000000D03*
X170000000Y-120000000D03*
X257500000Y-82500000D03*
X175000000Y-80000000D03*
X197500000Y-80000000D03*
X216000000Y-96750000D03*
X227500000Y-117500000D03*
X243000000Y-91500000D03*
X182500000Y-32500000D03*
X182500000Y-105000000D03*
X257500000Y-32500000D03*
X180000000Y-45000000D03*
X232500000Y-80000000D03*
X242500000Y-40000000D03*
X242500000Y-122500000D03*
X235000000Y-75000000D03*
X255000000Y-120000000D03*
X180000000Y-110000000D03*
X202500000Y-50000000D03*
X195000000Y-135000000D03*
X210000000Y-127500000D03*
X170000000Y-95000000D03*
X240000000Y-122500000D03*
X213500000Y-70500000D03*
X170000000Y-40000000D03*
X172500000Y-95000000D03*
X175000000Y-47500000D03*
X217500000Y-42500000D03*
X215000000Y-75000000D03*
X252472500Y-125027500D03*
X192500000Y-100000000D03*
X236000000Y-59500000D03*
X200000000Y-135000000D03*
X175000000Y-90000000D03*
X235000000Y-87500000D03*
X182500000Y-80000000D03*
X187500000Y-80000000D03*
X232500000Y-117500000D03*
X177500000Y-117500000D03*
X170000000Y-75000000D03*
X177500000Y-77500000D03*
X182500000Y-132500000D03*
X235000000Y-82500000D03*
X259972500Y-132527500D03*
X185000000Y-45000000D03*
X247000000Y-106500000D03*
X170000000Y-105000000D03*
X237500000Y-50000000D03*
X247500000Y-35000000D03*
X257500000Y-67500000D03*
X175000000Y-75000000D03*
X197750000Y-49750000D03*
X177500000Y-72500000D03*
X170000000Y-50000000D03*
X237500000Y-70000000D03*
X180000000Y-92500000D03*
X250000000Y-87000000D03*
X227500000Y-67500000D03*
X172500000Y-110000000D03*
X180000000Y-105000000D03*
X220000000Y-37500000D03*
X202000000Y-61500000D03*
X245000000Y-117500000D03*
X242500000Y-67500000D03*
X177500000Y-105000000D03*
X195000000Y-117500000D03*
X210000000Y-80000000D03*
X172500000Y-105000000D03*
X257500000Y-52500000D03*
X210000000Y-122500000D03*
X170000000Y-70000000D03*
X210000000Y-47500000D03*
X257500000Y-42500000D03*
X182500000Y-70000000D03*
X195000000Y-92500000D03*
X220000000Y-110000000D03*
X242500000Y-55000000D03*
X195000000Y-40000000D03*
X232500000Y-47500000D03*
X197500000Y-95000000D03*
X197500000Y-83265000D03*
X240500000Y-103500000D03*
X177500000Y-90000000D03*
X177500000Y-92500000D03*
X250000000Y-105000000D03*
X215000000Y-130000000D03*
X205000000Y-127500000D03*
X237500000Y-65000000D03*
X177500000Y-115000000D03*
X175000000Y-115000000D03*
X190000000Y-127500000D03*
X187500000Y-95000000D03*
X262500000Y-65000000D03*
X220000000Y-130000000D03*
X177500000Y-37500000D03*
X177500000Y-40000000D03*
X245000000Y-65000000D03*
X172500000Y-87500000D03*
X247500000Y-52500000D03*
X252500000Y-72500000D03*
X167500000Y-130000000D03*
X237500000Y-125000000D03*
X197500000Y-100000000D03*
X237500000Y-120000000D03*
X245500000Y-57500000D03*
X242500000Y-127500000D03*
X177500000Y-82500000D03*
X200000000Y-107500000D03*
X212500000Y-125000000D03*
X212500000Y-135000000D03*
X170000000Y-40000000D03*
X187500000Y-57500000D03*
X185000000Y-130000000D03*
X230000000Y-45000000D03*
X257500000Y-55000000D03*
X197500000Y-107500000D03*
X175000000Y-130000000D03*
X230000000Y-110000000D03*
X215000000Y-82500000D03*
X205000000Y-92500000D03*
X172500000Y-55000000D03*
X190000000Y-100000000D03*
X225000000Y-45000000D03*
X185000000Y-40000000D03*
X250000000Y-52500000D03*
X237500000Y-47500000D03*
X192500000Y-130000000D03*
X190000000Y-60000000D03*
X252500000Y-132500000D03*
X177500000Y-127500000D03*
X197500000Y-75000000D03*
X175000000Y-127500000D03*
X217500000Y-122500000D03*
X255000000Y-102500000D03*
X180000000Y-107500000D03*
X217500000Y-127500000D03*
X253500000Y-111000000D03*
X185000000Y-85000000D03*
X190000000Y-102500000D03*
X207500000Y-82500000D03*
X260000000Y-30000000D03*
X232500000Y-75000000D03*
X175000000Y-77500000D03*
X252500000Y-130000000D03*
X205000000Y-95000000D03*
X167500000Y-92500000D03*
X172500000Y-57500000D03*
X195000000Y-102500000D03*
X252500000Y-50000000D03*
X195000000Y-115000000D03*
X182500000Y-102500000D03*
X217500000Y-55000000D03*
X207500000Y-122500000D03*
X167500000Y-57500000D03*
X182500000Y-47500000D03*
X240000000Y-70000000D03*
X182500000Y-100000000D03*
X175000000Y-95000000D03*
X222500000Y-110000000D03*
X247500000Y-32500000D03*
X257500000Y-50000000D03*
X167500000Y-107500000D03*
X187500000Y-77500000D03*
X202500000Y-125000000D03*
X182500000Y-42500000D03*
X177500000Y-65000000D03*
X230000000Y-35000000D03*
X182500000Y-117500000D03*
X180000000Y-127500000D03*
X247000000Y-105000000D03*
X250000000Y-30000000D03*
X190000000Y-85000000D03*
X185000000Y-90000000D03*
X220000000Y-45000000D03*
X215000000Y-55000000D03*
X182500000Y-65000000D03*
X172500000Y-135000000D03*
X170000000Y-80000000D03*
X230000000Y-65000000D03*
X232500000Y-105000000D03*
X205000000Y-80000000D03*
X252500000Y-95000000D03*
X167500000Y-117500000D03*
X187500000Y-60000000D03*
X242500000Y-42500000D03*
X215000000Y-80000000D03*
X175000000Y-125000000D03*
X182500000Y-37500000D03*
X190000000Y-37500000D03*
X237500000Y-122500000D03*
X232500000Y-35000000D03*
X255000000Y-80000000D03*
X180000000Y-90000000D03*
X170000000Y-117500000D03*
X207800000Y-45000000D03*
X170000000Y-42500000D03*
X235000000Y-120000000D03*
X217500000Y-72500000D03*
X225000000Y-50000000D03*
X172500000Y-65000000D03*
X185000000Y-32500000D03*
X235000000Y-80000000D03*
X182500000Y-125000000D03*
X180000000Y-85000000D03*
X202500000Y-82500000D03*
X180000000Y-42500000D03*
X238500000Y-92500000D03*
X207500000Y-130000000D03*
X167500000Y-82500000D03*
X172500000Y-132500000D03*
X257500000Y-80000000D03*
X185000000Y-82500000D03*
X170000000Y-130000000D03*
X175000000Y-122500000D03*
X185000000Y-75000000D03*
X182500000Y-127500000D03*
X240000000Y-42500000D03*
X222500000Y-112500000D03*
X237500000Y-72500000D03*
X225000000Y-35000000D03*
X190000000Y-130000000D03*
X247500000Y-125000000D03*
X167500000Y-100000000D03*
X167500000Y-60000000D03*
X192500000Y-42500000D03*
X175000000Y-67500000D03*
X235000000Y-97500000D03*
X220000000Y-40000000D03*
X227500000Y-52500000D03*
X170000000Y-110000000D03*
X207000000Y-104500000D03*
X192500000Y-115000000D03*
X246500000Y-114500000D03*
X187500000Y-100000000D03*
X192500000Y-65000000D03*
X213500000Y-72000000D03*
X182500000Y-87500000D03*
X252500000Y-92500000D03*
X177500000Y-107500000D03*
X247500000Y-120000000D03*
X175000000Y-112500000D03*
X170000000Y-97500000D03*
X200000000Y-132500000D03*
X182500000Y-77500000D03*
X167500000Y-122500000D03*
X240000000Y-125000000D03*
X245000000Y-114500000D03*
X172500000Y-70000000D03*
X220000000Y-35000000D03*
X170000000Y-60000000D03*
X175000000Y-37500000D03*
X180000000Y-135000000D03*
X215000000Y-42500000D03*
X177500000Y-42500000D03*
X232500000Y-115000000D03*
X255000000Y-27500000D03*
X167500000Y-125000000D03*
X250000000Y-84000000D03*
X172500000Y-107500000D03*
X172500000Y-100000000D03*
X257472500Y-130027500D03*
X215000000Y-45000000D03*
X245000000Y-35000000D03*
X192500000Y-47500000D03*
X237500000Y-127500000D03*
X237500000Y-52500000D03*
X262500000Y-37500000D03*
X167500000Y-135000000D03*
X187500000Y-102500000D03*
X205500000Y-53500000D03*
X182500000Y-50000000D03*
X235000000Y-92500000D03*
X185000000Y-92500000D03*
X247500000Y-42500000D03*
X185000000Y-77500000D03*
X237500000Y-45000000D03*
X200000000Y-122500000D03*
X252500000Y-120000000D03*
X257500000Y-60000000D03*
X230000000Y-40000000D03*
X220000000Y-50000000D03*
X250000000Y-50000000D03*
X172500000Y-120000000D03*
X228000000Y-90500000D03*
X192500000Y-105000000D03*
X205000000Y-122500000D03*
X170000000Y-67500000D03*
X227500000Y-80000000D03*
X192500000Y-75000000D03*
X252500000Y-65000000D03*
X222500000Y-130000000D03*
X212500000Y-130000000D03*
X262500000Y-87500000D03*
X177500000Y-130000000D03*
X225000000Y-112500000D03*
X172500000Y-67500000D03*
X198500000Y-54500000D03*
X249972500Y-122527500D03*
X190000000Y-40000000D03*
X167500000Y-67500000D03*
X167500000Y-37500000D03*
X232500000Y-92500000D03*
X241500000Y-115000000D03*
X252500000Y-55000000D03*
X217500000Y-130000000D03*
X240000000Y-127500000D03*
X230000000Y-67500000D03*
X175000000Y-85000000D03*
X202500000Y-132500000D03*
X257500000Y-102500000D03*
X185000000Y-135000000D03*
X245000000Y-122500000D03*
X175000000Y-120000000D03*
X262500000Y-122500000D03*
X242500000Y-47500000D03*
X192500000Y-127500000D03*
X217500000Y-64000000D03*
X257500000Y-105000000D03*
X167500000Y-40000000D03*
X235000000Y-40000000D03*
X175000000Y-55000000D03*
X232500000Y-112500000D03*
X177500000Y-122500000D03*
X185000000Y-100000000D03*
X210000000Y-130000000D03*
X182500000Y-120000000D03*
X230000000Y-50000000D03*
X255000000Y-70000000D03*
X170000000Y-92500000D03*
X202500000Y-90000000D03*
X190000000Y-87500000D03*
X170000000Y-90000000D03*
X235000000Y-127500000D03*
X255000000Y-77500000D03*
X167500000Y-42500000D03*
X252500000Y-70000000D03*
X216500000Y-65500000D03*
X172500000Y-97500000D03*
X202500000Y-75000000D03*
X185000000Y-127500000D03*
X247500000Y-117500000D03*
X235000000Y-77500000D03*
X170000000Y-35000000D03*
X237500000Y-70000000D03*
X167500000Y-97500000D03*
X185000000Y-132500000D03*
X252500000Y-115000000D03*
X192500000Y-135000000D03*
X230000000Y-122500000D03*
X170000000Y-85000000D03*
X185000000Y-72500000D03*
X175000000Y-42500000D03*
X232500000Y-120000000D03*
X202000000Y-57500000D03*
X220000000Y-42500000D03*
X175000000Y-57500000D03*
X167500000Y-132500000D03*
X239000000Y-82500000D03*
X207500000Y-75000000D03*
X237500000Y-42500000D03*
X245000000Y-55000000D03*
X170000000Y-115000000D03*
X175000000Y-62500000D03*
X232500000Y-125000000D03*
X232500000Y-42500000D03*
X232500000Y-87500000D03*
X187500000Y-50000000D03*
X167500000Y-75000000D03*
X182500000Y-130000000D03*
X167500000Y-52500000D03*
X245000000Y-127500000D03*
X197500000Y-117500000D03*
X215000000Y-135000000D03*
X207500000Y-97500000D03*
X235000000Y-122500000D03*
X250000000Y-132500000D03*
X215000000Y-37500000D03*
X247500000Y-127500000D03*
X209000000Y-66000000D03*
X262500000Y-95000000D03*
X197500000Y-132500000D03*
X180000000Y-132500000D03*
X257500000Y-30000000D03*
X210000000Y-70000000D03*
X235000000Y-50000000D03*
X215000000Y-40000000D03*
X167500000Y-115000000D03*
X210000000Y-82500000D03*
X242500000Y-125000000D03*
X202500000Y-92500000D03*
X175000000Y-65000000D03*
X172500000Y-117500000D03*
X234500000Y-103500000D03*
X177500000Y-67500000D03*
X167500000Y-45000000D03*
X205000000Y-125000000D03*
X230000000Y-90000000D03*
X252500000Y-47500000D03*
X187500000Y-87500000D03*
X262500000Y-50000000D03*
X257500000Y-85000000D03*
X177500000Y-120000000D03*
X192500000Y-57500000D03*
X226000000Y-86000000D03*
X202500000Y-135000000D03*
X182500000Y-97500000D03*
X182500000Y-72500000D03*
X245000000Y-42500000D03*
X240000000Y-45000000D03*
X222500000Y-135000000D03*
X182500000Y-50000000D03*
X217500000Y-50000000D03*
X255000000Y-125000000D03*
X230000000Y-80000000D03*
X180000000Y-115000000D03*
X257500000Y-77500000D03*
X255500000Y-116500000D03*
X172500000Y-80000000D03*
X170000000Y-125000000D03*
X217500000Y-135000000D03*
X212500000Y-37500000D03*
X242500000Y-45000000D03*
X192500000Y-97500000D03*
X231500000Y-95500000D03*
X202500000Y-107500000D03*
X177500000Y-85000000D03*
X170000000Y-127500000D03*
X170000000Y-72500000D03*
X175000000Y-105000000D03*
X175000000Y-97500000D03*
X177500000Y-132500000D03*
X167500000Y-127500000D03*
X250000000Y-130000000D03*
X172500000Y-122500000D03*
X182500000Y-107500000D03*
X207750000Y-59750000D03*
X247500000Y-37500000D03*
X250000000Y-120000000D03*
X210000000Y-75000000D03*
X182500000Y-92500000D03*
X207500000Y-80000000D03*
X195000000Y-42500000D03*
X177500000Y-32500000D03*
X205000000Y-85000000D03*
X182500000Y-95000000D03*
X240000000Y-35000000D03*
X177500000Y-80000000D03*
X232500000Y-55000000D03*
X167500000Y-85000000D03*
X180000000Y-120000000D03*
X250000000Y-37500000D03*
X167500000Y-77500000D03*
X200000000Y-53500000D03*
X200000000Y-105000000D03*
X257500000Y-45000000D03*
X252500000Y-52500000D03*
X200000000Y-50000000D03*
X235000000Y-95500000D03*
X257500000Y-65000000D03*
X182500000Y-67500000D03*
X202500000Y-117500000D03*
X187500000Y-37500000D03*
X167500000Y-65000000D03*
X195000000Y-97500000D03*
X187500000Y-92500000D03*
X207800000Y-50000000D03*
X172500000Y-115000000D03*
X247500000Y-27500000D03*
X190000000Y-42500000D03*
X175000000Y-100000000D03*
X207500000Y-125000000D03*
X234000000Y-71500000D03*
X222500000Y-37500000D03*
X187500000Y-45000000D03*
X227500000Y-120000000D03*
X236500000Y-67000000D03*
X198000000Y-53500000D03*
X187500000Y-47500000D03*
X190000000Y-105000000D03*
X236500000Y-110000000D03*
X230000000Y-115000000D03*
X255000000Y-85000000D03*
X248000000Y-92000000D03*
X185000000Y-37500000D03*
X197500000Y-85000000D03*
X230000000Y-120000000D03*
X182500000Y-45000000D03*
X220000000Y-75000000D03*
X215000000Y-35000000D03*
X230000000Y-105000000D03*
X240000000Y-47500000D03*
X225000000Y-117500000D03*
X180000000Y-130000000D03*
X227500000Y-37500000D03*
X175000000Y-107500000D03*
X240000000Y-50000000D03*
X240000000Y-120000000D03*
X195000000Y-75000000D03*
X230000000Y-103500000D03*
X220000000Y-125000000D03*
X170000000Y-32500000D03*
X205000000Y-135000000D03*
X252500000Y-97500000D03*
X235000000Y-35000000D03*
X187500000Y-132500000D03*
X210000000Y-135000000D03*
X215000000Y-47500000D03*
X262500000Y-105000000D03*
X245000000Y-40000000D03*
X225500000Y-97000000D03*
X230000000Y-117500000D03*
X199000000Y-89000000D03*
X175000000Y-32500000D03*
X190000000Y-75000000D03*
X227500000Y-92500000D03*
X257500000Y-127500000D03*
%TO.N,+3.3V*%
X226050000Y-72350000D03*
X217225000Y-59750000D03*
X247593026Y-77775000D03*
X202587500Y-97587500D03*
X207600000Y-102400000D03*
X247250000Y-100000000D03*
X247500000Y-112500000D03*
X248250000Y-89000000D03*
X247000000Y-94250000D03*
X191225000Y-107425000D03*
X215650000Y-132105000D03*
X242650000Y-79025000D03*
X209250000Y-104000000D03*
X218275000Y-95500000D03*
X215299388Y-104650000D03*
X214225000Y-97525000D03*
X183025000Y-110900000D03*
%TO.N,Net-(D1-K)*%
X206500000Y-73250000D03*
%TO.N,IS4*%
X239425000Y-54150000D03*
X211425000Y-96050000D03*
%TO.N,IS5*%
X211431297Y-88568703D03*
%TO.N,IS6*%
X210244238Y-88499999D03*
%TO.N,IS1*%
X213475000Y-109275000D03*
%TO.N,IS2*%
X212075000Y-97625000D03*
X212075000Y-40625000D03*
%TO.N,IS3*%
X213100000Y-97625000D03*
X213100000Y-43000000D03*
%TO.N,EB4*%
X221400000Y-83900000D03*
X209084620Y-96915380D03*
X208600000Y-90000000D03*
%TO.N,motor3dir*%
X247000000Y-86000000D03*
X211250000Y-102500000D03*
%TO.N,SWCLK*%
X215150000Y-95750000D03*
X221900000Y-116200000D03*
%TO.N,TX6*%
X218500000Y-101250000D03*
%TO.N,motor4dir*%
X247000000Y-74550003D03*
X211750000Y-103250000D03*
%TO.N,motor1step*%
X247154273Y-111761487D03*
X204500000Y-102750000D03*
%TO.N,motor2dir*%
X247101134Y-98148866D03*
X210650000Y-108600000D03*
%TO.N,EB1*%
X211084620Y-92584620D03*
X210495557Y-97170312D03*
X222050000Y-90500000D03*
%TO.N,+BATT*%
X206500000Y-48525000D03*
X189300000Y-117150000D03*
%TO.N,RX6*%
X215900000Y-102295691D03*
%TO.N,motor4step*%
X207325735Y-107174265D03*
X247058856Y-76860384D03*
X219500000Y-103350000D03*
%TO.N,Net-(U1-NRST)*%
X194500000Y-113500000D03*
X208258949Y-99100000D03*
%TO.N,EB2*%
X211250000Y-91500000D03*
X220900000Y-87300000D03*
X210017331Y-95568310D03*
%TO.N,SWDIO*%
X218428245Y-97514969D03*
X223400000Y-116325000D03*
%TO.N,motor1dir*%
X240750000Y-106000000D03*
X247036490Y-110392298D03*
%TO.N,EB3*%
X209500000Y-91500000D03*
X220100000Y-86375000D03*
X209734620Y-97417252D03*
%TO.N,motor2step*%
X207250000Y-103250000D03*
X247302158Y-98923200D03*
%TO.N,motor3step*%
X205775000Y-105775000D03*
X247000000Y-87275000D03*
X227075000Y-99025000D03*
X217450000Y-104650000D03*
%TO.N,motorEN*%
X239759282Y-97074136D03*
X207500000Y-99750000D03*
X240000000Y-74250000D03*
X240250000Y-109750000D03*
X240000000Y-85500000D03*
%TO.N,+5V*%
X245600000Y-83949000D03*
X241500000Y-72750000D03*
X241750000Y-108250000D03*
X245750000Y-72750000D03*
X241634000Y-96250000D03*
X223975000Y-73450000D03*
X236050000Y-73450000D03*
X201825000Y-42750000D03*
X245050000Y-81900000D03*
X245600000Y-96300000D03*
X239004945Y-109754945D03*
X219850000Y-61450000D03*
X245600001Y-108400224D03*
X198500000Y-48250000D03*
%TO.N,Net-(J2-Pin_1)*%
X244135336Y-71885336D03*
%TO.N,Net-(J2-Pin_4)*%
X240500000Y-73000000D03*
%TO.N,Net-(J2-Pin_3)*%
X243198528Y-71650002D03*
%TO.N,Net-(J2-Pin_2)*%
X247000000Y-73750000D03*
%TO.N,Net-(J1-Pin_1)*%
X247625000Y-82425000D03*
X244000000Y-82825000D03*
%TO.N,Net-(J1-Pin_3)*%
X243166765Y-83206765D03*
%TO.N,Net-(J1-Pin_2)*%
X246950000Y-85000000D03*
%TO.N,Net-(J4-Pin_2)*%
X247000000Y-97250000D03*
%TO.N,Net-(J4-Pin_1)*%
X244275000Y-95300000D03*
%TO.N,Net-(J4-Pin_3)*%
X243377120Y-95292120D03*
%TO.N,Net-(J4-Pin_4)*%
X240552193Y-96947807D03*
%TO.N,Net-(J6-Pin_4)*%
X240584933Y-109023486D03*
%TO.N,Net-(J6-Pin_1)*%
X245250000Y-106750000D03*
%TO.N,Net-(J6-Pin_3)*%
X243339645Y-107008884D03*
%TO.N,Net-(J6-Pin_2)*%
X251000000Y-111000000D03*
X247048660Y-109485229D03*
%TO.N,Inductor*%
X215850000Y-100575000D03*
X222475000Y-98475000D03*
%TO.N,RX1{slash}TX1*%
X246250000Y-89000000D03*
X246250000Y-101250000D03*
X220625000Y-97300000D03*
X246000000Y-113250000D03*
X238750000Y-94125000D03*
X223325000Y-96250000D03*
X246000000Y-94150000D03*
X246250000Y-77750000D03*
%TD*%
D33*
%TO.N,GND*%
X197750000Y-49750000D02*
X207750000Y-59750000D01*
X196800000Y-30695000D02*
X196800000Y-47000000D01*
X218850000Y-30695000D02*
X218850000Y-48650000D01*
X218850000Y-48650000D02*
X218625000Y-48875000D01*
X192695000Y-83265000D02*
X195000000Y-83265000D01*
X195000000Y-83265000D02*
X197500000Y-83265000D01*
X207800000Y-30695000D02*
X207800000Y-45000000D01*
X199550000Y-47000000D02*
X200350000Y-46200000D01*
X230000000Y-35000000D02*
X230000000Y-37500000D01*
X196800000Y-47000000D02*
X196800000Y-48800000D01*
X230000000Y-37500000D02*
X220000000Y-47500000D01*
X241000000Y-30695000D02*
X234195000Y-37500000D01*
X207800000Y-50000000D02*
X207800000Y-59700000D01*
X196800000Y-47000000D02*
X194750000Y-47000000D01*
X234195000Y-37500000D02*
X230000000Y-37500000D01*
X230000000Y-30695000D02*
X230000000Y-35000000D01*
X218625000Y-48875000D02*
X217500000Y-50000000D01*
X207800000Y-45000000D02*
X207800000Y-50000000D01*
X196800000Y-47000000D02*
X199550000Y-47000000D01*
X207800000Y-59700000D02*
X207750000Y-59750000D01*
X197500000Y-83265000D02*
X200315000Y-83265000D01*
X220000000Y-47500000D02*
X218625000Y-48875000D01*
X217500000Y-50000000D02*
X207750000Y-59750000D01*
X196800000Y-48800000D02*
X197750000Y-49750000D01*
D34*
%TO.N,+3.3V*%
X248000000Y-95250000D02*
X247000000Y-94250000D01*
D33*
X217225000Y-59750000D02*
X246000000Y-30975000D01*
D34*
X248000000Y-99250000D02*
X248000000Y-95250000D01*
D33*
X246000000Y-30975000D02*
X246000000Y-30695000D01*
D34*
X247250000Y-100000000D02*
X248000000Y-99250000D01*
D33*
%TO.N,Net-(J3-Pin_2)*%
X234750000Y-57000000D02*
X234750000Y-69000000D01*
X216250000Y-87500000D02*
X196420000Y-87500000D01*
X196420000Y-87500000D02*
X192685000Y-91235000D01*
X234750000Y-69000000D02*
X216250000Y-87500000D01*
X252000000Y-30695000D02*
X252000000Y-39750000D01*
X252000000Y-39750000D02*
X234750000Y-57000000D01*
D34*
%TO.N,IS4*%
X235075000Y-73974943D02*
X235075000Y-70425000D01*
X239425000Y-66075000D02*
X239425000Y-54150000D01*
X212999943Y-96050000D02*
X235075000Y-73974943D01*
X235075000Y-70425000D02*
X239425000Y-66075000D01*
X211425000Y-96050000D02*
X212999943Y-96050000D01*
D35*
%TO.N,EB4*%
X237750000Y-135000000D02*
X236619000Y-136131000D01*
X208500000Y-112000000D02*
X208500000Y-102750000D01*
X236619000Y-136131000D02*
X228881000Y-136131000D01*
X237750000Y-134805000D02*
X237750000Y-135000000D01*
X208500000Y-102750000D02*
X209084620Y-102165380D01*
X227750000Y-131250000D02*
X208500000Y-112000000D01*
X227750000Y-135000000D02*
X227750000Y-131250000D01*
X228881000Y-136131000D02*
X227750000Y-135000000D01*
X209084620Y-102165380D02*
X209084620Y-96915380D01*
D34*
%TO.N,SWCLK*%
X216050000Y-110350000D02*
X216050000Y-103295634D01*
X221900000Y-116200000D02*
X216050000Y-110350000D01*
X216050000Y-103295634D02*
X215150000Y-102395634D01*
X215150000Y-102395634D02*
X215150000Y-95750000D01*
D35*
%TO.N,EB1*%
X244445000Y-133000000D02*
X234500000Y-133000000D01*
X213250000Y-111750000D02*
X212750000Y-111250000D01*
X234500000Y-133000000D02*
X213250000Y-111750000D01*
X246250000Y-134805000D02*
X244445000Y-133000000D01*
X210885620Y-101135620D02*
X210885620Y-97560375D01*
X212750000Y-103000000D02*
X210885620Y-101135620D01*
X210885620Y-97560375D02*
X210495557Y-97170312D01*
X212750000Y-111250000D02*
X212750000Y-103000000D01*
D34*
%TO.N,RX6*%
X217298527Y-100426473D02*
X219426473Y-100426473D01*
X222500000Y-103500000D02*
X226475000Y-103500000D01*
X215900000Y-101825000D02*
X217298527Y-100426473D01*
X219426473Y-100426473D02*
X222500000Y-103500000D01*
X215900000Y-102295691D02*
X215900000Y-101825000D01*
D35*
%TO.N,EB2*%
X235250000Y-132000000D02*
X214250000Y-111000000D01*
X214250000Y-111000000D02*
X214250000Y-103791480D01*
X211386620Y-100928100D02*
X211386620Y-96937599D01*
X248445000Y-132000000D02*
X235250000Y-132000000D01*
X214250000Y-103791480D02*
X211386620Y-100928100D01*
X211386620Y-96937599D02*
X210017331Y-95568310D01*
X251250000Y-134805000D02*
X248445000Y-132000000D01*
D34*
%TO.N,SWDIO*%
X227751000Y-103023240D02*
X227076760Y-102349000D01*
X225873240Y-104651000D02*
X227076760Y-104651000D01*
X223076000Y-98226057D02*
X222724943Y-97875000D01*
X220873943Y-97901000D02*
X218814276Y-97901000D01*
X227076760Y-104651000D02*
X227751000Y-103976760D01*
X223076000Y-99551760D02*
X223076000Y-98226057D01*
X227751000Y-103976760D02*
X227751000Y-103023240D01*
X225873240Y-102349000D02*
X223076000Y-99551760D01*
X223400000Y-107124240D02*
X225873240Y-104651000D01*
X220899943Y-97875000D02*
X220873943Y-97901000D01*
X222724943Y-97875000D02*
X220899943Y-97875000D01*
X223400000Y-116325000D02*
X223400000Y-107124240D01*
X227076760Y-102349000D02*
X225873240Y-102349000D01*
X218814276Y-97901000D02*
X218428245Y-97514969D01*
D35*
%TO.N,motor1dir*%
X247036490Y-110392298D02*
X246250000Y-109605808D01*
X246250000Y-106829346D02*
X245420654Y-106000000D01*
X241500000Y-106000000D02*
X240750000Y-106000000D01*
X246250000Y-108750000D02*
X246250000Y-106829346D01*
X246250000Y-109605808D02*
X246250000Y-108750000D01*
X245420654Y-106000000D02*
X241500000Y-106000000D01*
%TO.N,EB3*%
X210000000Y-111000000D02*
X232750000Y-133750000D01*
X210000000Y-97682632D02*
X210000000Y-111000000D01*
X209734620Y-97417252D02*
X210000000Y-97682632D01*
X232750000Y-133750000D02*
X232750000Y-134805000D01*
D34*
%TO.N,motor2step*%
X247302158Y-98923200D02*
X247302158Y-99012074D01*
D35*
%TO.N,motorEN*%
X239759282Y-97074136D02*
X239759282Y-109259282D01*
X240000000Y-85500000D02*
X240000000Y-74250000D01*
X239759282Y-97074136D02*
X239759282Y-85740718D01*
X239759282Y-85740718D02*
X240000000Y-85500000D01*
X239759282Y-109259282D02*
X240250000Y-109750000D01*
D34*
%TO.N,Net-(J2-Pin_4)*%
X255000000Y-62500000D02*
X255000000Y-47500000D01*
X255000000Y-37250000D02*
X260020000Y-32230000D01*
X255000000Y-45000000D02*
X255000000Y-37250000D01*
X240500000Y-72900057D02*
X243900057Y-69500000D01*
X260020000Y-32230000D02*
X261067500Y-32230000D01*
X240500000Y-73000000D02*
X240500000Y-72900057D01*
X255000000Y-47500000D02*
X255000000Y-45000000D01*
X243900057Y-69500000D02*
X250000000Y-69500000D01*
X255000000Y-64500000D02*
X255000000Y-62500000D01*
X250000000Y-69500000D02*
X255000000Y-64500000D01*
%TO.N,Net-(J1-Pin_1)*%
X261000000Y-70430000D02*
X259620000Y-70430000D01*
X259620000Y-70430000D02*
X247625000Y-82425000D01*
%TO.N,Net-(J1-Pin_3)*%
X261000000Y-62810000D02*
X258899000Y-64911000D01*
X258899000Y-64911000D02*
X258899000Y-68900943D01*
X243474943Y-84325000D02*
X243375000Y-84325000D01*
X243166765Y-84116765D02*
X243166765Y-83206765D01*
X258899000Y-68900943D02*
X243474943Y-84325000D01*
X243375000Y-84325000D02*
X243166765Y-84116765D01*
%TO.N,Net-(J1-Pin_2)*%
X246950000Y-81493840D02*
X246950000Y-85000000D01*
X261000000Y-67443840D02*
X246950000Y-81493840D01*
X261000000Y-66620000D02*
X261000000Y-67443840D01*
D35*
%TO.N,Net-(J4-Pin_4)*%
X240500000Y-95000000D02*
X242000000Y-93500000D01*
X249250000Y-93500000D02*
X256810000Y-85940000D01*
X240552193Y-96947807D02*
X240500000Y-96895614D01*
X256810000Y-85940000D02*
X261000000Y-85940000D01*
X242000000Y-93500000D02*
X249250000Y-93500000D01*
X240500000Y-96895614D02*
X240500000Y-95000000D01*
D34*
%TO.N,Net-(J6-Pin_4)*%
X240851000Y-112351000D02*
X242351000Y-113851000D01*
X240584933Y-109023486D02*
X240851000Y-109289553D01*
X252149000Y-113851000D02*
X253270000Y-112730000D01*
X242351000Y-113851000D02*
X252149000Y-113851000D01*
X240851000Y-109289553D02*
X240851000Y-112351000D01*
X253270000Y-112730000D02*
X261067500Y-112730000D01*
D35*
%TO.N,Net-(J6-Pin_2)*%
X251000000Y-111000000D02*
X248563431Y-111000000D01*
X248563431Y-111000000D02*
X247048660Y-109485229D01*
D34*
%TO.N,Inductor*%
X217950000Y-98475000D02*
X215850000Y-100575000D01*
X222475000Y-98475000D02*
X217950000Y-98475000D01*
D35*
%TO.N,RX1{slash}TX1*%
X221675000Y-96250000D02*
X220625000Y-97300000D01*
X223325000Y-96250000D02*
X221675000Y-96250000D01*
%TD*%
M02*
