M48
; DRILL file {KiCad 9.0.2} date 2025-12-04T18:58:24+0100
; FORMAT={-:-/ absolute / metric / decimal}
; #@! TF.CreationDate,2025-12-04T18:58:24+01:00
; #@! TF.GenerationSoftware,Kicad,Pcbnew,9.0.2
; #@! TF.FileFunction,Plated,1,4,PTH
FMAT,2
METRIC
; #@! TA.AperFunction,Plated,PTH,ComponentDrill
T1C0.200
; #@! TA.AperFunction,Plated,PTH,ViaDrill
T2C0.300
; #@! TA.AperFunction,Plated,PTH,ComponentDrill
T3C0.700
; #@! TA.AperFunction,Plated,PTH,ComponentDrill
T4C0.800
; #@! TA.AperFunction,Plated,PTH,ComponentDrill
T5C0.950
; #@! TA.AperFunction,Plated,PTH,ComponentDrill
T6C1.000
; #@! TA.AperFunction,Plated,PTH,ComponentDrill
T7C1.100
; #@! TA.AperFunction,Plated,PTH,ComponentDrill
T8C1.200
; #@! TA.AperFunction,Plated,PTH,ComponentDrill
T9C1.600
%
G90
G05
T1
X200.35Y-45.0
X200.35Y-46.2
X200.35Y-47.4
X201.75Y-45.0
X201.75Y-46.2
X201.75Y-47.4
X241.985Y-73.75
X241.985Y-74.75
X241.985Y-75.75
X241.985Y-76.75
X241.985Y-85.0
X241.985Y-86.0
X241.985Y-87.0
X241.985Y-88.0
X242.235Y-97.3
X242.235Y-98.3
X242.235Y-99.3
X242.235Y-100.3
X242.235Y-109.25
X242.235Y-110.25
X242.235Y-111.25
X242.235Y-112.25
X242.985Y-73.75
X242.985Y-74.75
X242.985Y-75.75
X242.985Y-76.75
X242.985Y-85.0
X242.985Y-86.0
X242.985Y-87.0
X242.985Y-88.0
X243.235Y-97.3
X243.235Y-98.3
X243.235Y-99.3
X243.235Y-100.3
X243.235Y-109.25
X243.235Y-110.25
X243.235Y-111.25
X243.235Y-112.25
X243.985Y-73.75
X243.985Y-74.75
X243.985Y-75.75
X243.985Y-76.75
X243.985Y-85.0
X243.985Y-86.0
X243.985Y-87.0
X243.985Y-88.0
X244.235Y-97.3
X244.235Y-98.3
X244.235Y-99.3
X244.235Y-100.3
X244.235Y-109.25
X244.235Y-110.25
X244.235Y-111.25
X244.235Y-112.25
X244.985Y-73.75
X244.985Y-74.75
X244.985Y-75.75
X244.985Y-76.75
X244.985Y-85.0
X244.985Y-86.0
X244.985Y-87.0
X244.985Y-88.0
X245.235Y-97.3
X245.235Y-98.3
X245.235Y-99.3
X245.235Y-100.3
X245.235Y-109.25
X245.235Y-110.25
X245.235Y-111.25
X245.235Y-112.25
T2
X167.5Y-32.5
X167.5Y-35.0
X167.5Y-37.5
X167.5Y-40.0
X167.5Y-42.5
X167.5Y-45.0
X167.5Y-47.5
X167.5Y-50.0
X167.5Y-52.5
X167.5Y-55.0
X167.5Y-57.5
X167.5Y-60.0
X167.5Y-62.5
X167.5Y-65.0
X167.5Y-67.5
X167.5Y-70.0
X167.5Y-72.5
X167.5Y-75.0
X167.5Y-77.5
X167.5Y-80.0
X167.5Y-82.5
X167.5Y-85.0
X167.5Y-87.5
X167.5Y-90.0
X167.5Y-92.5
X167.5Y-95.0
X167.5Y-97.5
X167.5Y-100.0
X167.5Y-102.5
X167.5Y-105.0
X167.5Y-107.5
X167.5Y-110.0
X167.5Y-112.5
X167.5Y-115.0
X167.5Y-117.5
X167.5Y-120.0
X167.5Y-122.5
X167.5Y-125.0
X167.5Y-127.5
X167.5Y-130.0
X167.5Y-132.5
X167.5Y-135.0
X170.0Y-32.5
X170.0Y-35.0
X170.0Y-37.5
X170.0Y-40.0
X170.0Y-40.0
X170.0Y-42.5
X170.0Y-45.0
X170.0Y-47.5
X170.0Y-50.0
X170.0Y-52.5
X170.0Y-60.0
X170.0Y-62.5
X170.0Y-65.0
X170.0Y-67.5
X170.0Y-70.0
X170.0Y-72.5
X170.0Y-75.0
X170.0Y-77.5
X170.0Y-80.0
X170.0Y-82.5
X170.0Y-85.0
X170.0Y-87.5
X170.0Y-90.0
X170.0Y-92.5
X170.0Y-95.0
X170.0Y-97.5
X170.0Y-100.0
X170.0Y-102.5
X170.0Y-105.0
X170.0Y-107.5
X170.0Y-110.0
X170.0Y-112.5
X170.0Y-115.0
X170.0Y-117.5
X170.0Y-125.0
X170.0Y-127.5
X170.0Y-130.0
X170.0Y-132.5
X170.0Y-135.0
X172.5Y-52.5
X172.5Y-60.0
X172.5Y-62.5
X172.5Y-65.0
X172.5Y-67.5
X172.5Y-70.0
X172.5Y-72.5
X172.5Y-75.0
X172.5Y-77.5
X172.5Y-80.0
X172.5Y-82.5
X172.5Y-85.0
X172.5Y-87.5
X172.5Y-90.0
X172.5Y-92.5
X172.5Y-95.0
X172.5Y-97.5
X172.5Y-100.0
X172.5Y-102.5
X172.5Y-105.0
X172.5Y-107.5
X172.5Y-110.0
X172.5Y-112.5
X172.5Y-115.0
X172.5Y-117.5
X172.5Y-125.0
X172.5Y-127.5
X172.5Y-130.0
X172.5Y-132.5
X172.5Y-135.0
X175.0Y-32.5
X175.0Y-37.5
X175.0Y-40.0
X175.0Y-42.5
X175.0Y-45.0
X175.0Y-47.5
X175.0Y-47.5
X175.0Y-52.5
X175.0Y-55.0
X175.0Y-57.5
X175.0Y-60.0
X175.0Y-62.5
X175.0Y-65.0
X175.0Y-67.5
X175.0Y-70.0
X175.0Y-72.5
X175.0Y-75.0
X175.0Y-77.5
X175.0Y-80.0
X175.0Y-82.5
X175.0Y-85.0
X175.0Y-87.5
X175.0Y-90.0
X175.0Y-92.5
X175.0Y-95.0
X175.0Y-97.5
X175.0Y-100.0
X175.0Y-102.5
X175.0Y-105.0
X175.0Y-107.5
X175.0Y-110.0
X175.0Y-112.5
X175.0Y-115.0
X175.0Y-117.5
X175.0Y-120.0
X175.0Y-122.5
X175.0Y-125.0
X175.0Y-127.5
X175.0Y-130.0
X175.0Y-132.5
X175.0Y-135.0
X177.5Y-32.5
X177.5Y-37.5
X177.5Y-40.0
X177.5Y-42.5
X177.5Y-42.5
X177.5Y-45.0
X177.5Y-47.5
X177.5Y-50.0
X177.5Y-57.5
X177.5Y-60.0
X177.5Y-62.5
X177.5Y-65.0
X177.5Y-67.5
X177.5Y-70.0
X177.5Y-72.5
X177.5Y-75.0
X177.5Y-77.5
X177.5Y-80.0
X177.5Y-82.5
X177.5Y-85.0
X177.5Y-87.5
X177.5Y-90.0
X177.5Y-92.5
X177.5Y-95.0
X177.5Y-97.5
X177.5Y-100.0
X177.5Y-102.5
X177.5Y-105.0
X177.5Y-107.5
X177.5Y-110.0
X177.5Y-112.5
X177.5Y-115.0
X177.5Y-117.5
X177.5Y-120.0
X177.5Y-122.5
X177.5Y-125.0
X177.5Y-127.5
X177.5Y-130.0
X177.5Y-132.5
X177.5Y-135.0
X180.0Y-32.5
X180.0Y-37.5
X180.0Y-40.0
X180.0Y-42.5
X180.0Y-45.0
X180.0Y-47.5
X180.0Y-50.0
X180.0Y-85.0
X180.0Y-87.5
X180.0Y-90.0
X180.0Y-92.5
X180.0Y-95.0
X180.0Y-97.5
X180.0Y-100.0
X180.0Y-102.5
X180.0Y-105.0
X180.0Y-107.5
X180.0Y-110.0
X180.0Y-112.5
X180.0Y-115.0
X180.0Y-117.5
X180.0Y-120.0
X180.0Y-122.5
X180.0Y-125.0
X180.0Y-127.5
X180.0Y-130.0
X180.0Y-132.5
X180.0Y-135.0
X182.5Y-32.5
X182.5Y-37.5
X182.5Y-40.0
X182.5Y-42.5
X182.5Y-45.0
X182.5Y-47.5
X182.5Y-47.5
X182.5Y-50.0
X182.5Y-50.0
X182.5Y-57.5
X182.5Y-60.0
X182.5Y-62.5
X182.5Y-65.0
X182.5Y-67.5
X182.5Y-70.0
X182.5Y-72.5
X182.5Y-75.0
X182.5Y-77.5
X182.5Y-80.0
X182.5Y-82.5
X182.5Y-87.5
X182.5Y-90.0
X182.5Y-92.5
X182.5Y-95.0
X182.5Y-97.5
X182.5Y-100.0
X182.5Y-102.5
X182.5Y-105.0
X182.5Y-107.5
X182.5Y-117.5
X182.5Y-120.0
X182.5Y-122.5
X182.5Y-125.0
X182.5Y-127.5
X182.5Y-130.0
X182.5Y-132.5
X182.5Y-135.0
X183.025Y-110.9
X185.0Y-32.5
X185.0Y-37.5
X185.0Y-40.0
X185.0Y-42.5
X185.0Y-45.0
X185.0Y-47.5
X185.0Y-50.0
X185.0Y-60.0
X185.0Y-72.5
X185.0Y-75.0
X185.0Y-77.5
X185.0Y-80.0
X185.0Y-82.5
X185.0Y-85.0
X185.0Y-90.0
X185.0Y-92.5
X185.0Y-95.0
X185.0Y-97.5
X185.0Y-100.0
X185.0Y-102.5
X185.0Y-105.0
X185.0Y-107.5
X185.0Y-120.0
X185.0Y-127.5
X185.0Y-130.0
X185.0Y-132.5
X185.0Y-135.0
X187.0Y-120.0
X187.5Y-37.5
X187.5Y-40.0
X187.5Y-42.5
X187.5Y-45.0
X187.5Y-47.5
X187.5Y-50.0
X187.5Y-57.5
X187.5Y-60.0
X187.5Y-75.0
X187.5Y-77.5
X187.5Y-80.0
X187.5Y-82.5
X187.5Y-85.0
X187.5Y-87.5
X187.5Y-92.5
X187.5Y-95.0
X187.5Y-97.5
X187.5Y-100.0
X187.5Y-102.5
X187.5Y-105.0
X187.5Y-107.5
X187.5Y-127.5
X187.5Y-130.0
X187.5Y-132.5
X187.5Y-135.0
X189.3Y-117.15
X190.0Y-37.5
X190.0Y-40.0
X190.0Y-42.5
X190.0Y-45.0
X190.0Y-47.5
X190.0Y-50.0
X190.0Y-57.5
X190.0Y-60.0
X190.0Y-62.5
X190.0Y-75.0
X190.0Y-77.5
X190.0Y-85.0
X190.0Y-87.5
X190.0Y-95.0
X190.0Y-97.5
X190.0Y-100.0
X190.0Y-102.5
X190.0Y-105.0
X190.0Y-107.5
X190.0Y-127.5
X190.0Y-130.0
X190.0Y-132.5
X190.0Y-135.0
X191.0Y-67.0
X191.225Y-107.425
X192.5Y-37.5
X192.5Y-40.0
X192.5Y-42.5
X192.5Y-47.5
X192.5Y-50.0
X192.5Y-57.5
X192.5Y-65.0
X192.5Y-67.5
X192.5Y-75.0
X192.5Y-85.0
X192.5Y-87.5
X192.5Y-97.5
X192.5Y-100.0
X192.5Y-102.5
X192.5Y-105.0
X192.5Y-115.0
X192.5Y-127.5
X192.5Y-130.0
X192.5Y-132.5
X192.5Y-135.0
X194.5Y-113.5
X195.0Y-40.0
X195.0Y-42.5
X195.0Y-75.0
X195.0Y-80.0
X195.0Y-83.265
X195.0Y-85.0
X195.0Y-92.5
X195.0Y-95.0
X195.0Y-97.5
X195.0Y-97.5
X195.0Y-100.0
X195.0Y-102.5
X195.0Y-115.0
X195.0Y-117.5
X195.0Y-127.5
X195.0Y-130.0
X195.0Y-132.5
X195.0Y-135.0
X197.5Y-75.0
X197.5Y-80.0
X197.5Y-83.265
X197.5Y-85.0
X197.5Y-90.0
X197.5Y-92.5
X197.5Y-95.0
X197.5Y-97.5
X197.5Y-100.0
X197.5Y-107.5
X197.5Y-110.0
X197.5Y-115.0
X197.5Y-117.5
X197.5Y-130.0
X197.5Y-132.5
X197.5Y-135.0
X197.75Y-49.75
X198.0Y-53.5
X198.5Y-48.25
X198.5Y-54.5
X199.0Y-89.0
X200.0Y-50.0
X200.0Y-53.5
X200.0Y-65.0
X200.0Y-75.0
X200.0Y-105.0
X200.0Y-107.5
X200.0Y-110.0
X200.0Y-120.0
X200.0Y-122.5
X200.0Y-130.0
X200.0Y-132.5
X200.0Y-135.0
X201.825Y-42.75
X202.0Y-55.5
X202.0Y-57.5
X202.0Y-61.5
X202.0Y-66.0
X202.5Y-50.0
X202.5Y-75.0
X202.5Y-80.0
X202.5Y-82.5
X202.5Y-82.5
X202.5Y-85.0
X202.5Y-90.0
X202.5Y-92.5
X202.5Y-95.0
X202.5Y-105.0
X202.5Y-107.5
X202.5Y-110.0
X202.5Y-117.5
X202.5Y-120.0
X202.5Y-122.5
X202.5Y-125.0
X202.5Y-132.5
X202.5Y-135.0
X202.587Y-97.587
X204.0Y-67.5
X204.5Y-102.75
X205.0Y-75.0
X205.0Y-80.0
X205.0Y-82.5
X205.0Y-85.0
X205.0Y-90.0
X205.0Y-95.0
X205.0Y-115.0
X205.0Y-117.5
X205.0Y-120.0
X205.0Y-122.5
X205.0Y-125.0
X205.0Y-127.5
X205.0Y-135.0
X205.5Y-53.5
X205.775Y-105.775
X206.5Y-48.525
X206.5Y-73.25
X207.0Y-104.5
X207.25Y-103.25
X207.326Y-107.174
X207.5Y-75.0
X207.5Y-80.0
X207.5Y-82.5
X207.5Y-97.5
X207.5Y-99.75
X207.5Y-120.0
X207.5Y-122.5
X207.5Y-125.0
X207.5Y-130.0
X207.5Y-135.0
X207.6Y-102.4
X207.75Y-59.75
X207.8Y-45.0
X207.8Y-50.0
X208.0Y-101.0
X208.259Y-99.1
X208.6Y-90.0
X209.0Y-66.0
X209.085Y-96.915
X209.25Y-104.0
X209.5Y-91.5
X209.735Y-97.417
X210.0Y-47.5
X210.0Y-50.0
X210.0Y-53.5
X210.0Y-70.0
X210.0Y-75.0
X210.0Y-80.0
X210.0Y-82.5
X210.0Y-120.0
X210.0Y-122.5
X210.0Y-127.5
X210.0Y-130.0
X210.0Y-135.0
X210.017Y-95.568
X210.244Y-88.5
X210.496Y-97.17
X210.65Y-108.6
X211.085Y-92.585
X211.25Y-91.5
X211.25Y-102.5
X211.425Y-96.05
X211.431Y-88.569
X211.75Y-103.25
X212.075Y-40.625
X212.075Y-97.625
X212.5Y-35.0
X212.5Y-37.5
X212.5Y-122.5
X212.5Y-125.0
X212.5Y-130.0
X212.5Y-135.0
X213.1Y-43.0
X213.1Y-97.625
X213.475Y-109.275
X213.5Y-70.5
X213.5Y-72.0
X214.225Y-97.525
X215.0Y-35.0
X215.0Y-37.5
X215.0Y-40.0
X215.0Y-42.5
X215.0Y-45.0
X215.0Y-47.5
X215.0Y-55.0
X215.0Y-75.0
X215.0Y-80.0
X215.0Y-82.5
X215.0Y-122.5
X215.0Y-127.5
X215.0Y-130.0
X215.0Y-135.0
X215.15Y-95.75
X215.299Y-104.65
X215.65Y-132.105
X215.85Y-100.575
X215.9Y-102.296
X216.0Y-96.75
X216.5Y-65.5
X217.225Y-59.75
X217.45Y-104.65
X217.5Y-35.0
X217.5Y-37.5
X217.5Y-40.0
X217.5Y-42.5
X217.5Y-45.0
X217.5Y-47.5
X217.5Y-50.0
X217.5Y-55.0
X217.5Y-64.0
X217.5Y-72.5
X217.5Y-75.0
X217.5Y-122.5
X217.5Y-125.0
X217.5Y-127.5
X217.5Y-130.0
X217.5Y-135.0
X218.275Y-95.5
X218.428Y-97.515
X218.5Y-101.25
X219.5Y-103.35
X219.85Y-61.45
X220.0Y-35.0
X220.0Y-37.5
X220.0Y-40.0
X220.0Y-42.5
X220.0Y-45.0
X220.0Y-47.5
X220.0Y-50.0
X220.0Y-72.5
X220.0Y-110.0
X220.0Y-125.0
X220.0Y-127.5
X220.0Y-130.0
X220.0Y-135.0
X220.1Y-86.375
X220.625Y-97.3
X220.9Y-87.3
X221.4Y-83.9
X221.9Y-116.2
X222.05Y-90.5
X222.475Y-98.475
X222.5Y-35.0
X222.5Y-37.5
X222.5Y-110.0
X222.5Y-112.5
X222.5Y-130.0
X222.5Y-135.0
X223.325Y-96.25
X223.4Y-116.325
X223.975Y-73.45
X225.0Y-35.0
X225.0Y-40.0
X225.0Y-45.0
X225.0Y-47.5
X225.0Y-50.0
X225.0Y-112.5
X225.0Y-117.5
X225.0Y-135.0
X225.5Y-97.0
X226.0Y-86.0
X226.05Y-72.35
X227.0Y-95.5
X227.075Y-99.025
X227.5Y-37.5
X227.5Y-42.5
X227.5Y-47.5
X227.5Y-52.5
X227.5Y-65.0
X227.5Y-67.5
X227.5Y-80.0
X227.5Y-82.5
X227.5Y-92.5
X227.5Y-112.5
X227.5Y-117.5
X227.5Y-120.0
X228.0Y-90.5
X229.0Y-69.5
X230.0Y-35.0
X230.0Y-40.0
X230.0Y-42.5
X230.0Y-45.0
X230.0Y-50.0
X230.0Y-52.5
X230.0Y-55.0
X230.0Y-65.0
X230.0Y-65.0
X230.0Y-67.5
X230.0Y-77.5
X230.0Y-80.0
X230.0Y-82.5
X230.0Y-90.0
X230.0Y-92.5
X230.0Y-97.5
X230.0Y-103.5
X230.0Y-105.0
X230.0Y-110.0
X230.0Y-115.0
X230.0Y-117.5
X230.0Y-120.0
X230.0Y-122.5
X231.5Y-95.5
X232.5Y-35.0
X232.5Y-42.5
X232.5Y-47.5
X232.5Y-52.5
X232.5Y-55.0
X232.5Y-57.5
X232.5Y-60.0
X232.5Y-62.5
X232.5Y-65.0
X232.5Y-75.0
X232.5Y-80.0
X232.5Y-82.5
X232.5Y-87.5
X232.5Y-90.0
X232.5Y-92.5
X232.5Y-97.5
X232.5Y-103.5
X232.5Y-105.0
X232.5Y-112.5
X232.5Y-115.0
X232.5Y-117.5
X232.5Y-120.0
X232.5Y-122.5
X232.5Y-125.0
X234.0Y-71.5
X234.5Y-103.5
X235.0Y-35.0
X235.0Y-40.0
X235.0Y-45.0
X235.0Y-47.5
X235.0Y-50.0
X235.0Y-55.0
X235.0Y-75.0
X235.0Y-77.5
X235.0Y-80.0
X235.0Y-82.5
X235.0Y-87.5
X235.0Y-90.0
X235.0Y-95.5
X235.0Y-97.5
X235.0Y-110.0
X235.0Y-112.5
X235.0Y-115.0
X235.0Y-117.5
X235.0Y-120.0
X235.0Y-122.5
X235.0Y-125.0
X235.0Y-127.5
X236.0Y-59.5
X236.0Y-61.5
X236.05Y-73.45
X236.5Y-67.0
X236.5Y-110.0
X237.5Y-37.5
X237.5Y-42.5
X237.5Y-45.0
X237.5Y-47.5
X237.5Y-50.0
X237.5Y-52.5
X237.5Y-65.0
X237.5Y-70.0
X237.5Y-70.0
X237.5Y-72.5
X237.5Y-117.5
X237.5Y-120.0
X237.5Y-122.5
X237.5Y-125.0
X237.5Y-127.5
X238.0Y-57.5
X238.0Y-59.5
X238.0Y-107.5
X238.5Y-81.0
X238.5Y-92.5
X238.75Y-94.125
X239.0Y-68.5
X239.0Y-82.5
X239.0Y-95.5
X239.005Y-109.755
X239.425Y-54.15
X239.759Y-97.074
X240.0Y-35.0
X240.0Y-40.0
X240.0Y-42.5
X240.0Y-45.0
X240.0Y-47.5
X240.0Y-50.0
X240.0Y-70.0
X240.0Y-74.25
X240.0Y-85.5
X240.0Y-117.5
X240.0Y-125.0
X240.0Y-127.5
X240.25Y-109.75
X240.5Y-73.0
X240.5Y-103.5
X240.552Y-96.948
X240.585Y-109.023
X240.75Y-106.0
X241.0Y-90.5
X241.0Y-92.5
X241.5Y-72.75
X241.5Y-115.0
X241.634Y-96.25
X241.75Y-108.25
X242.5Y-37.5
X242.5Y-40.0
X242.5Y-42.5
X242.5Y-45.0
X242.5Y-47.5
X242.5Y-55.0
X242.5Y-65.0
X242.5Y-67.5
X242.5Y-117.5
X242.5Y-125.0
X242.5Y-127.5
X242.65Y-79.025
X243.0Y-91.5
X243.167Y-83.207
X243.199Y-71.65
X243.34Y-107.009
X243.377Y-95.292
X244.0Y-82.825
X244.135Y-71.885
X244.275Y-95.3
X245.0Y-35.0
X245.0Y-37.5
X245.0Y-40.0
X245.0Y-42.5
X245.0Y-45.0
X245.0Y-52.5
X245.0Y-55.0
X245.0Y-65.0
X245.0Y-67.5
X245.0Y-114.5
X245.0Y-117.5
X245.0Y-120.0
X245.0Y-122.5
X245.0Y-125.0
X245.0Y-127.5
X245.05Y-81.9
X245.25Y-106.75
X245.5Y-57.5
X245.5Y-59.0
X245.6Y-83.949
X245.6Y-96.3
X245.6Y-108.4
X245.75Y-72.75
X246.0Y-94.15
X246.0Y-113.25
X246.25Y-77.75
X246.25Y-89.0
X246.25Y-101.25
X246.5Y-114.5
X246.95Y-85.0
X247.0Y-73.75
X247.0Y-74.55
X247.0Y-86.0
X247.0Y-87.275
X247.0Y-94.25
X247.0Y-97.25
X247.0Y-105.0
X247.0Y-106.5
X247.036Y-110.392
X247.049Y-109.485
X247.059Y-76.86
X247.101Y-98.149
X247.154Y-111.761
X247.25Y-100.0
X247.302Y-98.923
X247.5Y-27.5
X247.5Y-27.5
X247.5Y-30.0
X247.5Y-32.5
X247.5Y-35.0
X247.5Y-37.5
X247.5Y-40.0
X247.5Y-42.5
X247.5Y-52.5
X247.5Y-112.5
X247.5Y-117.5
X247.5Y-120.0
X247.5Y-122.5
X247.5Y-125.0
X247.5Y-127.5
X247.593Y-77.775
X247.625Y-82.425
X248.0Y-92.0
X248.25Y-89.0
X249.972Y-122.527
X250.0Y-27.5
X250.0Y-30.0
X250.0Y-32.5
X250.0Y-35.0
X250.0Y-37.5
X250.0Y-40.0
X250.0Y-50.0
X250.0Y-52.5
X250.0Y-67.5
X250.0Y-84.0
X250.0Y-87.0
X250.0Y-105.0
X250.0Y-117.5
X250.0Y-120.0
X250.0Y-125.0
X250.0Y-127.5
X250.0Y-130.0
X250.0Y-132.5
X251.0Y-111.0
X252.472Y-125.027
X252.5Y-27.5
X252.5Y-47.5
X252.5Y-50.0
X252.5Y-52.5
X252.5Y-55.0
X252.5Y-57.5
X252.5Y-60.0
X252.5Y-62.5
X252.5Y-65.0
X252.5Y-70.0
X252.5Y-72.5
X252.5Y-82.5
X252.5Y-85.0
X252.5Y-87.5
X252.5Y-92.5
X252.5Y-95.0
X252.5Y-97.5
X252.5Y-100.0
X252.5Y-115.0
X252.5Y-117.5
X252.5Y-120.0
X252.5Y-122.5
X252.5Y-127.5
X252.5Y-130.0
X252.5Y-132.5
X253.5Y-111.0
X254.972Y-127.527
X255.0Y-27.5
X255.0Y-67.5
X255.0Y-70.0
X255.0Y-77.5
X255.0Y-80.0
X255.0Y-82.5
X255.0Y-85.0
X255.0Y-92.5
X255.0Y-95.0
X255.0Y-97.5
X255.0Y-100.0
X255.0Y-102.5
X255.0Y-105.0
X255.0Y-107.5
X255.0Y-120.0
X255.0Y-122.5
X255.0Y-125.0
X255.0Y-132.5
X255.5Y-116.5
X256.0Y-113.5
X256.5Y-118.0
X257.472Y-130.028
X257.5Y-27.5
X257.5Y-30.0
X257.5Y-32.5
X257.5Y-37.5
X257.5Y-40.0
X257.5Y-42.5
X257.5Y-45.0
X257.5Y-47.5
X257.5Y-50.0
X257.5Y-52.5
X257.5Y-55.0
X257.5Y-57.5
X257.5Y-60.0
X257.5Y-65.0
X257.5Y-67.5
X257.5Y-75.0
X257.5Y-77.5
X257.5Y-80.0
X257.5Y-82.5
X257.5Y-85.0
X257.5Y-87.5
X257.5Y-95.0
X257.5Y-97.5
X257.5Y-100.0
X257.5Y-102.5
X257.5Y-105.0
X257.5Y-107.5
X257.5Y-110.0
X257.5Y-115.0
X257.5Y-122.5
X257.5Y-125.0
X257.5Y-127.5
X259.972Y-132.528
X260.0Y-30.0
X262.5Y-30.0
X262.5Y-37.5
X262.5Y-50.0
X262.5Y-52.5
X262.5Y-57.5
X262.5Y-65.0
X262.5Y-72.5
X262.5Y-77.5
X262.5Y-87.5
X262.5Y-95.0
X262.5Y-100.0
X262.5Y-105.0
X262.5Y-110.0
X262.5Y-115.0
X262.5Y-122.5
X262.5Y-132.5
T3
X194.75Y-44.46
X194.75Y-47.0
T4
X192.685Y-91.235
X192.685Y-93.775
X192.695Y-80.725
X192.695Y-83.265
X200.305Y-91.235
X200.305Y-93.775
X200.315Y-80.725
X200.315Y-83.265
T5
X196.8Y-30.695
X199.3Y-30.695
X201.8Y-30.695
X207.8Y-30.695
X210.3Y-30.695
X212.8Y-30.695
X218.85Y-30.695
X221.35Y-30.695
X223.85Y-30.695
X226.475Y-101.0
X226.475Y-103.5
X226.475Y-106.0
X226.475Y-108.5
X230.0Y-30.695
X230.25Y-134.805
X232.5Y-30.695
X232.75Y-134.805
X235.0Y-30.695
X235.25Y-134.805
X237.75Y-134.805
X241.0Y-30.695
X243.5Y-30.695
X243.75Y-134.805
X246.0Y-30.695
X246.25Y-134.805
X248.75Y-134.805
X251.25Y-134.805
X257.25Y-134.805
X259.75Y-134.805
X262.25Y-134.805
T6
X185.5Y-123.0
X188.0Y-123.0
X252.0Y-30.695
X254.5Y-30.695
T7
X196.42Y-68.0
X206.58Y-68.0
X248.875Y-58.87
X248.875Y-61.41
X248.875Y-63.95
T8
X172.195Y-29.432
X175.695Y-29.432
X186.54Y-29.432
X190.35Y-29.432
X261.0Y-59.0
X261.0Y-62.81
X261.0Y-66.62
X261.0Y-70.43
X261.0Y-85.94
X261.0Y-89.75
X261.0Y-93.56
X261.0Y-97.37
X261.067Y-32.23
X261.067Y-36.04
X261.067Y-39.85
X261.067Y-43.66
X261.067Y-112.73
X261.067Y-116.54
X261.067Y-120.35
X261.067Y-124.16
T9
X227.995Y-60.75
X243.235Y-60.75
M30
